<svg xmlns="http://www.w3.org/2000/svg" xmlns:xlink="http://www.w3.org/1999/xlink" width="154.5" height="154.499" viewBox="0 0 154.5 154.499">
  <defs>
    <linearGradient id="linear-gradient" x1="0.143" y1="0.933" x2="0.85" y2="0.023" gradientUnits="objectBoundingBox">
      <stop offset="0" stop-color="#9e9e9e"/>
      <stop offset="0.07" stop-color="#a2a2a2"/>
      <stop offset="0.151" stop-color="#b0b0b0"/>
      <stop offset="0.214" stop-color="#c1c1c1"/>
      <stop offset="0.217" stop-color="#cacaca"/>
      <stop offset="0.622" stop-color="#d0d0d0"/>
      <stop offset="0.629" stop-color="#e8e8e8"/>
      <stop offset="0.843" stop-color="#ededed"/>
      <stop offset="0.964" stop-color="#ededed"/>
      <stop offset="0.984" stop-color="#ededed"/>
      <stop offset="0.991" stop-color="#eaeaea"/>
    </linearGradient>
    <linearGradient id="linear-gradient-2" x1="0.135" y1="0.961" x2="0.868" y2="0.015" xlink:href="#linear-gradient"/>
    <linearGradient id="linear-gradient-3" x1="0.25" y1="1.25" x2="0.75" y2="-0.25" xlink:href="#linear-gradient"/>
  </defs>
  <g id="_2" data-name="2" transform="translate(-302.75 -2222)">
    <path id="Trazado_138720" data-name="Trazado 138720" d="M428.7,0h77.251V77.25A77.25,77.25,0,0,1,428.7,154.5h0a77.25,77.25,0,0,1-77.25-77.25h0A77.25,77.25,0,0,1,428.7,0Z" transform="translate(-48.699 2222)" fill="#ffe89f"/>
    <g id="Grupo_91210" data-name="Grupo 91210" transform="translate(-29.213 2071.687)">
      <g id="Grupo_91208" data-name="Grupo 91208" transform="translate(362.472 160.433)">
        <g id="Grupo_91207" data-name="Grupo 91207" transform="translate(0 0)">
          <path id="Trazado_139236" data-name="Trazado 139236" d="M446.756,172.867l-11.9-7.322c-7.482-4.417-17.9-3.827-29.412,2.824C382.666,181.517,364.2,213.362,364.2,239.5c0,12.558,4.266,21.512,11.224,25.965v0l.012.006A40.7,40.7,0,0,0,379,267.678l9.911,6.021,2.878-5.019A42.776,42.776,0,0,0,404.7,263.6c22.773-13.148,41.238-45,41.238-71.129a41.321,41.321,0,0,0-2.276-14.217Z" transform="translate(-358.988 -155.858)" fill="url(#linear-gradient)"/>
          <g id="Grupo_91202" data-name="Grupo 91202" transform="translate(0)">
            <ellipse id="Elipse_4401" data-name="Elipse 4401" cx="58.138" cy="33.564" rx="58.138" ry="33.564" transform="translate(0 100.381) rotate(-59.689)" fill="#f4f4f4"/>
          </g>
          <ellipse id="Elipse_4402" data-name="Elipse 4402" cx="57.218" cy="33.034" rx="57.218" ry="33.034" transform="translate(0.922 100.603) rotate(-59.689)" fill="#d8d8d8"/>
          <path id="Trazado_139237" data-name="Trazado 139237" d="M435.057,192.535c0,21.813-15.409,48.392-34.419,59.366s-31.757,4.567-31.757-17.246S384.29,186.264,403.3,175.29,435.057,170.726,435.057,192.535Z" transform="translate(-349.584 -141.135)" fill="#bbb"/>
          <path id="Trazado_139238" data-name="Trazado 139238" d="M435.014,175.2l1.448-2.487-5.738-3.143h0c-6.371-3.408-15.057-2.761-24.634,2.77-19.546,11.284-35.394,38.616-35.394,61.046,0,11.287,4.016,19.181,10.5,22.8v0l.081.039c.337.19.68.367,1.033.53l4.01,2.225,1.012-1.74c4.829.048,10.3-1.511,16.1-4.859,19.549-11.284,35.394-38.619,35.394-61.049C438.82,184.741,437.447,179.3,435.014,175.2Z" transform="translate(-345.941 -146.263)" fill="url(#linear-gradient-2)"/>
          <g id="Grupo_91203" data-name="Grupo 91203" transform="translate(15.157 11.835)">
            <ellipse id="Elipse_4403" data-name="Elipse 4403" cx="49.898" cy="28.808" rx="49.898" ry="28.808" transform="translate(0 86.155) rotate(-59.689)" fill="#f4f4f4"/>
          </g>
          <g id="Grupo_91204" data-name="Grupo 91204" transform="translate(16.537 14.542)">
            <ellipse id="Elipse_4404" data-name="Elipse 4404" cx="48.523" cy="28.014" rx="48.523" ry="28.014" transform="matrix(0.505, -0.863, 0.863, 0.505, 0, 83.78)" fill="#e4e4e4"/>
          </g>
          <path id="Trazado_139239" data-name="Trazado 139239" d="M408.322,175.532a5.635,5.635,0,0,1-2.553,4.4c-1.412.813-2.553.163-2.553-1.457a5.627,5.627,0,0,1,2.553-4.4C407.178,173.262,408.322,173.913,408.322,175.532Zm-2.553,7.521a5.618,5.618,0,0,0-2.553,4.4c0,1.617,1.141,2.27,2.553,1.454a5.626,5.626,0,0,0,2.553-4.4C408.322,182.891,407.178,182.237,405.769,183.053Zm3.724,16.92c-1.277.054-2.8,1.566-3.393,3.378s-.042,3.234,1.234,3.179,2.8-1.566,3.393-3.375S410.772,199.919,409.493,199.974Zm-10.3,8.033c-1,1.722-1,3.577,0,4.146s2.613-.367,3.613-2.086,1-3.574,0-4.143S400.187,206.287,399.19,208.006Zm-1.816,12.871c.6,1.123,2.114.882,3.393-.542s1.831-3.483,1.234-4.606-2.113-.879-3.393.542S396.779,219.757,397.375,220.877ZM408,220.429a5.238,5.238,0,0,0,1.806-4.631c-.364-1.352-1.764-1.472-3.128-.265a5.238,5.238,0,0,0-1.806,4.631C405.236,221.515,406.639,221.636,408,220.429Zm6.726-13.079c.121-1.683-.918-2.5-2.321-1.834a5.591,5.591,0,0,0-2.767,4.26c-.123,1.683.915,2.5,2.321,1.834A5.593,5.593,0,0,0,414.725,207.35Zm-4.986-17.068a5.34,5.34,0,0,0-3.086,3.935c-.334,1.764.506,2.866,1.876,2.46a5.34,5.34,0,0,0,3.086-3.935C411.95,190.977,411.11,189.876,409.74,190.282Zm7.605.391c-1.018-.53-2.634.446-3.61,2.177s-.939,3.568.081,4.1,2.634-.446,3.61-2.18S418.366,191.2,417.345,190.673Zm4.5,5.9c-.394-1.325-1.812-1.4-3.167-.163s-2.132,3.312-1.734,4.636,1.812,1.4,3.167.163S422.243,197.9,421.849,196.577Zm.2,9.836c.334-1.764-.506-2.866-1.876-2.46a5.34,5.34,0,0,0-3.086,3.935c-.334,1.764.506,2.866,1.876,2.46A5.34,5.34,0,0,0,422.045,206.414Zm-4.167,11.134c.975-1.734.936-3.568-.081-4.1s-2.637.446-3.61,2.177-.939,3.568.081,4.1S416.9,219.278,417.878,217.547Zm-7.412,9.445c1.355-1.234,2.132-3.309,1.734-4.634s-1.812-1.4-3.164-.163-2.132,3.309-1.737,4.634S409.114,228.229,410.465,226.992Zm-8.668,5.23a5.329,5.329,0,0,0,3.086-3.935c.334-1.764-.506-2.863-1.876-2.457a5.33,5.33,0,0,0-3.086,3.932C399.588,231.529,400.425,232.628,401.8,232.222Zm-7.608-.388c1.021.53,2.637-.446,3.613-2.18s.936-3.565-.081-4.095-2.637.446-3.613,2.177S393.172,231.3,394.189,231.833Zm-4.5-5.9c.394,1.325,1.812,1.4,3.167.163s2.129-3.312,1.734-4.637-1.812-1.4-3.167-.163S389.291,224.6,389.688,225.929Zm-.2-9.836c-.334,1.764.506,2.863,1.876,2.457a5.329,5.329,0,0,0,3.086-3.932c.334-1.767-.506-2.866-1.876-2.46A5.329,5.329,0,0,0,389.493,216.093Zm4.167-11.134c-.975,1.731-.939,3.565.081,4.095s2.634-.446,3.61-2.177.939-3.565-.081-4.095S394.635,203.225,393.659,204.959Zm7.409-9.448c-1.352,1.237-2.129,3.312-1.734,4.637s1.813,1.4,3.167.163,2.132-3.312,1.734-4.637S402.424,194.277,401.069,195.512ZM414.175,179.9c-1.328.211-2.791,1.84-3.273,3.64s.2,3.086,1.524,2.875,2.791-1.843,3.276-3.643S415.5,179.687,414.175,179.9Zm7.391.629c-1.081-.419-2.692.674-3.6,2.439s-.765,3.529.313,3.944,2.692-.674,3.6-2.439S422.647,180.946,421.566,180.53Zm5.486,4.335c-.7-1-2.267-.575-3.49.939s-1.638,3.55-.933,4.543,2.267.572,3.486-.942S427.756,185.859,427.052,184.866Zm2.92,7.518c-.247-1.454-1.572-1.752-2.96-.671a5.457,5.457,0,0,0-2.071,4.591c.244,1.454,1.569,1.752,2.956.668A5.443,5.443,0,0,0,429.972,192.383Zm0,9.794c.244-1.737-.684-2.722-2.075-2.2a5.472,5.472,0,0,0-2.956,4.086c-.244,1.734.684,2.719,2.071,2.2A5.477,5.477,0,0,0,429.972,202.177Zm-2.92,10.887c.7-1.806.286-3.357-.936-3.462s-2.782,1.277-3.486,3.086-.286,3.36.933,3.462S426.347,214.874,427.052,213.064Zm-5.486,10.67c1.081-1.662,1.219-3.592.313-4.308s-2.517.051-3.6,1.716-1.219,3.592-.313,4.308S420.485,225.4,421.566,223.734Zm-7.391,9.165c1.325-1.319,2.008-3.393,1.526-4.637s-1.948-1.18-3.276.139-2.008,3.4-1.524,4.637S412.847,234.218,414.175,232.9Zm-8.406,6.554a5.635,5.635,0,0,0,2.553-4.4c0-1.617-1.144-2.27-2.553-1.454a5.617,5.617,0,0,0-2.553,4.4C403.215,239.616,404.357,240.266,405.769,239.453Zm-8.406,3.152c1.325-.211,2.791-1.843,3.273-3.64s-.2-3.086-1.526-2.875-2.791,1.843-3.273,3.64S396.038,242.816,397.363,242.606Zm-7.391-.629c1.081.415,2.692-.674,3.6-2.439s.765-3.529-.316-3.947-2.689.674-3.6,2.439S388.89,241.561,389.971,241.976Zm-5.486-4.335c.7.994,2.267.572,3.486-.942s1.641-3.547.936-4.54-2.267-.575-3.489.939S383.781,236.647,384.486,237.641Zm-2.92-7.518c.247,1.451,1.569,1.752,2.96.668A5.454,5.454,0,0,0,386.6,226.2c-.247-1.451-1.572-1.749-2.96-.668A5.457,5.457,0,0,0,381.565,230.123Zm0-9.794c-.244,1.734.683,2.719,2.071,2.2a5.477,5.477,0,0,0,2.96-4.086c.244-1.734-.683-2.719-2.071-2.2A5.475,5.475,0,0,0,381.565,220.329Zm2.92-10.89c-.7,1.809-.286,3.36.933,3.465s2.785-1.28,3.489-3.089.286-3.357-.936-3.462S385.19,207.633,384.486,209.439Zm5.486-10.67c-1.081,1.665-1.222,3.595-.316,4.311s2.517-.051,3.6-1.716,1.222-3.595.316-4.311S391.052,197.107,389.971,198.769Zm7.391-9.165c-1.325,1.319-2.008,3.4-1.526,4.637s1.948,1.18,3.273-.136,2.008-3.4,1.526-4.639S398.687,188.286,397.363,189.6Zm16.791-19.1a5.272,5.272,0,0,0-3.128,3.878c-.364,1.773.445,2.914,1.806,2.547a5.29,5.29,0,0,0,3.128-3.878C416.324,171.272,415.514,170.134,414.154,170.5Zm7.813-.8c-1.219-.1-2.782,1.277-3.486,3.086s-.286,3.36.933,3.465,2.782-1.28,3.489-3.089S423.189,169.809,421.966,169.7Zm6.711,2.035c-1-.569-2.613.364-3.61,2.083s-1,3.577,0,4.146,2.613-.367,3.61-2.086S429.674,172.308,428.677,171.739Zm5.148,4.727c-.7-1-2.267-.575-3.487.939s-1.641,3.55-.936,4.543,2.267.572,3.49-.942S434.53,177.459,433.826,176.466Zm3.236,7.1c-.364-1.352-1.764-1.472-3.128-.265s-2.171,3.279-1.8,4.631,1.764,1.472,3.125.265A5.238,5.238,0,0,0,437.062,183.562Zm1.1,8.984c0-1.617-1.144-2.27-2.553-1.454a5.621,5.621,0,0,0-2.556,4.4c0,1.617,1.144,2.27,2.556,1.454A5.626,5.626,0,0,0,438.167,192.546Zm-1.1,10.261c.364-1.773-.443-2.914-1.807-2.547a5.275,5.275,0,0,0-3.125,3.878c-.367,1.773.443,2.914,1.8,2.547A5.272,5.272,0,0,0,437.062,202.807Zm-3.236,10.836c.7-1.809.286-3.36-.933-3.462s-2.785,1.277-3.49,3.086-.286,3.357.936,3.462S433.121,215.452,433.826,213.642Zm-5.148,10.673c1-1.722,1-3.577,0-4.146s-2.613.364-3.61,2.086-1,3.574,0,4.143S427.681,226.035,428.677,224.315Zm-6.711,9.782c1.222-1.514,1.641-3.55.936-4.543s-2.267-.572-3.489.942-1.638,3.547-.933,4.54S420.747,235.612,421.966,234.1Zm-7.813,8.225a5.251,5.251,0,0,0,1.806-4.634c-.367-1.352-1.767-1.469-3.128-.265a5.246,5.246,0,0,0-1.806,4.631C411.39,243.406,412.79,243.527,414.154,242.323Zm-8.385,6.106a5.626,5.626,0,0,0,2.553-4.4c0-1.617-1.144-2.27-2.553-1.454a5.617,5.617,0,0,0-2.553,4.4C403.215,248.591,404.357,249.244,405.769,248.428Zm-8.385,3.577a5.275,5.275,0,0,0,3.125-3.878c.367-1.773-.443-2.914-1.8-2.547a5.272,5.272,0,0,0-3.128,3.878C395.213,251.231,396.02,252.372,397.384,252.005Zm-7.816.795c1.222.105,2.785-1.277,3.489-3.086s.286-3.357-.933-3.462-2.785,1.28-3.489,3.086S388.348,252.7,389.568,252.8Zm-6.708-2.032c1,.569,2.613-.364,3.61-2.086s1-3.574,0-4.143-2.613.364-3.61,2.083S381.86,250.2,382.86,250.768Zm-5.151-4.727c.708.994,2.27.572,3.489-.942s1.641-3.547.936-4.543-2.267-.572-3.489.942S377,245.047,377.709,246.041Zm-3.234-7.1c.364,1.355,1.764,1.472,3.125.268a5.241,5.241,0,0,0,1.806-4.631c-.364-1.355-1.764-1.472-3.128-.268S374.108,237.59,374.475,238.942Zm-1.1-8.984c0,1.62,1.144,2.27,2.553,1.457a5.635,5.635,0,0,0,2.553-4.4c0-1.62-1.144-2.27-2.553-1.457A5.635,5.635,0,0,0,373.37,229.958Zm1.1-10.261c-.367,1.776.443,2.914,1.8,2.547a5.272,5.272,0,0,0,3.128-3.878c.364-1.773-.443-2.914-1.806-2.544A5.27,5.27,0,0,0,374.475,219.7Zm3.234-10.833c-.7,1.807-.286,3.357.936,3.462s2.782-1.277,3.489-3.086.286-3.36-.936-3.462S378.416,207.055,377.709,208.864Zm5.151-10.673c-1,1.719-1,3.577,0,4.143s2.613-.364,3.61-2.083,1-3.577,0-4.146S383.856,196.472,382.86,198.191Zm6.708-9.782c-1.219,1.514-1.638,3.547-.933,4.543s2.267.572,3.489-.942,1.638-3.55.933-4.543S390.79,186.895,389.568,188.409Zm7.816-8.225a5.238,5.238,0,0,0-1.806,4.631c.364,1.352,1.764,1.472,3.128.268s2.171-3.279,1.8-4.634S398.745,178.98,397.384,180.184Z" transform="translate(-340.558 -141.802)" fill="#4f5052"/>
          <g id="Grupo_91206" data-name="Grupo 91206" transform="translate(33.002 27.897)">
            <g id="Grupo_91205" data-name="Grupo 91205">
              <path id="Trazado_139240" data-name="Trazado 139240" d="M392.052,173.355a1.677,1.677,0,0,0-1.2.051,3.98,3.98,0,0,1-.406,3.227,4.951,4.951,0,0,1-2.4,2.388,1.3,1.3,0,0,0,.72.717c1.081.418,2.692-.674,3.6-2.439S393.133,173.77,392.052,173.355Z" transform="translate(-344.046 -162.524)" fill="#a7a7a7"/>
              <path id="Trazado_139241" data-name="Trazado 139241" d="M389.083,173.1a2.108,2.108,0,0,0-.434.117,3.189,3.189,0,0,1,.039,2.089,5.39,5.39,0,0,1-2.839,3.523,1.3,1.3,0,0,0,1.484.786c1.328-.214,2.791-1.843,3.276-3.643S390.407,172.889,389.083,173.1Z" transform="translate(-348.468 -162.9)" fill="#a7a7a7"/>
              <path id="Trazado_139242" data-name="Trazado 139242" d="M383.185,182.992a3.69,3.69,0,0,1-1.162.741c.488,1.09,1.812,1.081,3.08-.075,1.355-1.234,2.132-3.312,1.734-4.637a1.391,1.391,0,0,0-2.005-.9,1.833,1.833,0,0,1,.087.238C385.314,179.68,384.537,181.757,383.185,182.992Z" transform="translate(-356.161 -153.045)" fill="#a7a7a7"/>
              <path id="Trazado_139243" data-name="Trazado 139243" d="M386.152,174.156a2.416,2.416,0,0,1,.193,1,5.621,5.621,0,0,1-2.556,4.4,3.257,3.257,0,0,1-.443.211c.382.846,1.295,1.072,2.363.455a5.626,5.626,0,0,0,2.553-4.4C388.263,174.376,387.35,173.708,386.152,174.156Z" transform="translate(-353.501 -161.013)" fill="#a7a7a7"/>
              <path id="Trazado_139244" data-name="Trazado 139244" d="M392.482,174.7c.479,1.063.036,2.887-1.084,4.275a4.207,4.207,0,0,1-1.716,1.34,1.532,1.532,0,0,0,.147.268c.7.993,2.267.572,3.486-.942s1.641-3.547.936-4.54A1.415,1.415,0,0,0,392.482,174.7Z" transform="translate(-340.761 -159.93)" fill="#a7a7a7"/>
              <path id="Trazado_139245" data-name="Trazado 139245" d="M392.468,186.131a5.477,5.477,0,0,0,2.96-4.083c.244-1.737-.684-2.722-2.075-2.2v0a2.78,2.78,0,0,1,.154,1.529,5.472,5.472,0,0,1-2.957,4.086A1.383,1.383,0,0,0,392.468,186.131Z" transform="translate(-339.015 -149.57)" fill="#a7a7a7"/>
              <path id="Trazado_139246" data-name="Trazado 139246" d="M393.358,176.933a2.206,2.206,0,0,1,.151.515,5.443,5.443,0,0,1-2.071,4.588,3.216,3.216,0,0,1-.888.509c.446.994,1.6,1.1,2.806.157a5.443,5.443,0,0,0,2.074-4.588A1.418,1.418,0,0,0,393.358,176.933Z" transform="translate(-339.017 -155.428)" fill="#a7a7a7"/>
              <path id="Trazado_139247" data-name="Trazado 139247" d="M378.949,193.935a5.454,5.454,0,0,0,2.071-4.591,1.416,1.416,0,0,0-2.071-1.177,2.084,2.084,0,0,1,.151.512,5.438,5.438,0,0,1-2.071,4.591,3.327,3.327,0,0,1-.885.509C376.586,194.772,377.742,194.874,378.949,193.935Z" transform="translate(-367.984 -132.842)" fill="#a7a7a7"/>
              <path id="Trazado_139248" data-name="Trazado 139248" d="M392.77,183.592c.334-1.764-.506-2.866-1.876-2.46-.054.018-.108.039-.166.06a2.926,2.926,0,0,1,.12,1.734,5.439,5.439,0,0,1-2.92,3.875,1.346,1.346,0,0,0,1.755.726A5.34,5.34,0,0,0,392.77,183.592Z" transform="translate(-344.285 -146.878)" fill="#a7a7a7"/>
              <path id="Trazado_139249" data-name="Trazado 139249" d="M380.649,195.344c1.222-1.514,1.641-3.547.936-4.54a1.419,1.419,0,0,0-1.77-.4c.479,1.06.036,2.887-1.084,4.275a4.212,4.212,0,0,1-1.719,1.34,1.766,1.766,0,0,0,.151.268C377.867,197.28,379.43,196.859,380.649,195.344Z" transform="translate(-366.237 -128.344)" fill="#a7a7a7"/>
              <path id="Trazado_139250" data-name="Trazado 139250" d="M376.792,185.065c-.072.018-.145.045-.22.072a2.957,2.957,0,0,1,.108,1.806,5.446,5.446,0,0,1-2.908,3.806,1.332,1.332,0,0,0,1.7.738,5.272,5.272,0,0,0,3.128-3.878C378.963,185.835,378.156,184.694,376.792,185.065Z" transform="translate(-372.751 -138.941)" fill="#a7a7a7"/>
              <path id="Trazado_139251" data-name="Trazado 139251" d="M382.741,180.778a4.118,4.118,0,0,1-.515,3.435,4.858,4.858,0,0,1-2.288,2.183,1.319,1.319,0,0,0,.6.659c1.018.53,2.634-.446,3.61-2.177s.939-3.565-.081-4.095A1.6,1.6,0,0,0,382.741,180.778Z" transform="translate(-360.353 -147.7)" fill="#a7a7a7"/>
              <path id="Trazado_139252" data-name="Trazado 139252" d="M376.239,188.274a2.4,2.4,0,0,1,.193,1,5.635,5.635,0,0,1-2.553,4.4,3.073,3.073,0,0,1-.446.208c.382.849,1.295,1.072,2.363.458a5.635,5.635,0,0,0,2.553-4.4C378.35,188.494,377.437,187.822,376.239,188.274Z" transform="translate(-373.433 -132.628)" fill="#a7a7a7"/>
              <path id="Trazado_139253" data-name="Trazado 139253" d="M381.018,187.449c.244-1.734-.683-2.719-2.071-2.2h0a2.8,2.8,0,0,1,.154,1.532,5.475,5.475,0,0,1-2.953,4.086,1.379,1.379,0,0,0,1.915.665A5.477,5.477,0,0,0,381.018,187.449Z" transform="translate(-367.982 -138.706)" fill="#a7a7a7"/>
              <path id="Trazado_139254" data-name="Trazado 139254" d="M387.388,178.385a5.456,5.456,0,0,1-2.923,3.875,1.347,1.347,0,0,0,1.755.726,4.865,4.865,0,0,0,2.613-2.55,5.251,5.251,0,0,1,.509-1.629c.214-1.62-.608-2.6-1.912-2.216-.054.018-.108.039-.163.06A2.95,2.95,0,0,1,387.388,178.385Z" transform="translate(-351.251 -156.008)" fill="#a7a7a7"/>
              <path id="Trazado_139255" data-name="Trazado 139255" d="M393.318,182.956a1.934,1.934,0,0,0-.834.135,3.585,3.585,0,0,1-.148,2.662,5.21,5.21,0,0,1-2.655,2.951,1.271,1.271,0,0,0,1.084.8c1.222.105,2.785-1.277,3.49-3.086S394.54,183.061,393.318,182.956Z" transform="translate(-340.763 -143.053)" fill="#a7a7a7"/>
              <path id="Trazado_139256" data-name="Trazado 139256" d="M386.671,184.784a1.673,1.673,0,0,1,.105.292c.367,1.352-.443,3.426-1.8,4.631a3.534,3.534,0,0,1-1.1.689c.479,1.072,1.767,1.087,3.023-.024a5.238,5.238,0,0,0,1.806-4.631A1.4,1.4,0,0,0,386.671,184.784Z" transform="translate(-352.451 -139.642)" fill="#a7a7a7"/>
              <path id="Trazado_139257" data-name="Trazado 139257" d="M381.688,185.649a5.454,5.454,0,0,1-2.923,3.878,1.346,1.346,0,0,0,1.755.723,5.329,5.329,0,0,0,3.086-3.932c.334-1.767-.506-2.866-1.876-2.46-.054.015-.108.039-.163.057A2.95,2.95,0,0,1,381.688,185.649Z" transform="translate(-362.712 -141.398)" fill="#a7a7a7"/>
              <path id="Trazado_139258" data-name="Trazado 139258" d="M383.633,187.584a1.392,1.392,0,0,0-2.008-.9,2.18,2.18,0,0,1,.09.238c.394,1.325-.382,3.4-1.737,4.634a3.576,3.576,0,0,1-1.159.741c.488,1.093,1.812,1.084,3.08-.072.054-.051.105-.105.16-.157s.081-.084.123-.129A5.06,5.06,0,0,0,383.633,187.584Z" transform="translate(-362.603 -135.828)" fill="#a7a7a7"/>
              <path id="Trazado_139259" data-name="Trazado 139259" d="M379.665,184.673a5.2,5.2,0,0,1-2.653,2.951,1.279,1.279,0,0,0,1.084.8c1.222.1,2.785-1.28,3.489-3.089s.286-3.357-.936-3.462a1.98,1.98,0,0,0-.834.135A3.573,3.573,0,0,1,379.665,184.673Z" transform="translate(-366.237 -145.222)" fill="#a7a7a7"/>
              <path id="Trazado_139260" data-name="Trazado 139260" d="M396.065,176.826a2.426,2.426,0,0,1,.19,1,5.618,5.618,0,0,1-2.553,4.4,2.94,2.94,0,0,1-.443.211c.382.846,1.295,1.072,2.363.455a5.626,5.626,0,0,0,2.553-4.4C398.176,177.049,397.263,176.377,396.065,176.826Z" transform="translate(-333.568 -155.644)" fill="#a7a7a7"/>
              <path id="Trazado_139261" data-name="Trazado 139261" d="M375.846,188.234c1.222.1,2.782-1.277,3.489-3.086s.286-3.36-.936-3.462a1.889,1.889,0,0,0-.834.135,3.573,3.573,0,0,1-.15,2.661,5.19,5.19,0,0,1-2.653,2.948A1.274,1.274,0,0,0,375.846,188.234Z" transform="translate(-370.761 -145.607)" fill="#a7a7a7"/>
              <path id="Trazado_139262" data-name="Trazado 139262" d="M387.2,183.036c.732.379,1.773-.018,2.661-.915l.127-.126a5.964,5.964,0,0,0,.822-1.138c.975-1.731.939-3.565-.081-4.095a1.589,1.589,0,0,0-1.322,0,4.1,4.1,0,0,1-.515,3.432,4.83,4.83,0,0,1-2.288,2.183A1.339,1.339,0,0,0,387.2,183.036Z" transform="translate(-346.946 -155.787)" fill="#a7a7a7"/>
              <path id="Trazado_139263" data-name="Trazado 139263" d="M385.506,186.312c1.28-.054,2.8-1.566,3.393-3.375s.045-3.237-1.234-3.182a2.091,2.091,0,0,0-.638.141,3.374,3.374,0,0,1-.045,2.376,5.3,5.3,0,0,1-2.755,3.234A1.274,1.274,0,0,0,385.506,186.312Z" transform="translate(-351.731 -149.48)" fill="#a7a7a7"/>
              <path id="Trazado_139264" data-name="Trazado 139264" d="M384.766,190.063c1.277-1.421,1.831-3.483,1.234-4.606a1.391,1.391,0,0,0-1.873-.563c.515,1.141-.039,3.125-1.279,4.5a4.044,4.044,0,0,1-1.521,1.108,1.02,1.02,0,0,0,.045.1C381.969,191.728,383.487,191.487,384.766,190.063Z" transform="translate(-357.558 -139.427)" fill="#a7a7a7"/>
              <path id="Trazado_139265" data-name="Trazado 139265" d="M390.769,178.656c.394,1.325-.382,3.4-1.737,4.637a3.681,3.681,0,0,1-1.159.741c.488,1.09,1.813,1.081,3.08-.075,1.352-1.237,2.129-3.312,1.734-4.637a1.39,1.39,0,0,0-2.005-.9A2.477,2.477,0,0,1,390.769,178.656Z" transform="translate(-344.398 -152.443)" fill="#a7a7a7"/>
              <path id="Trazado_139266" data-name="Trazado 139266" d="M387.352,190.6c1.018.53,2.634-.446,3.61-2.177s.936-3.568-.081-4.1a1.613,1.613,0,0,0-1.322,0,4.11,4.11,0,0,1-.518,3.435,4.817,4.817,0,0,1-2.285,2.18A1.325,1.325,0,0,0,387.352,190.6Z" transform="translate(-346.644 -140.575)" fill="#a7a7a7"/>
              <path id="Trazado_139267" data-name="Trazado 139267" d="M380.683,194.623c1.021.53,2.637-.446,3.613-2.18.057-.1.111-.208.163-.31.012-.081.021-.163.036-.247a5.618,5.618,0,0,1,.473-1.385,1.993,1.993,0,0,0-.753-2.153,1.6,1.6,0,0,0-1.325,0,4.1,4.1,0,0,1-.515,3.432,4.817,4.817,0,0,1-2.288,2.183A1.366,1.366,0,0,0,380.683,194.623Z" transform="translate(-360.054 -132.489)" fill="#a7a7a7"/>
              <path id="Trazado_139268" data-name="Trazado 139268" d="M385.931,181.841a1.584,1.584,0,0,0-1.361-.027,4.165,4.165,0,0,1-.56,3.5,4.772,4.772,0,0,1-2.249,2.111,1.341,1.341,0,0,0,.557.641c1,.566,2.613-.367,3.613-2.086S386.927,182.41,385.931,181.841Z" transform="translate(-356.688 -145.617)" fill="#a7a7a7"/>
              <path id="Trazado_139269" data-name="Trazado 139269" d="M388.715,192.057a1.634,1.634,0,0,1,.105.289,5.248,5.248,0,0,1-1.8,4.634,3.65,3.65,0,0,1-1.1.689c.479,1.069,1.767,1.087,3.023-.024a5.251,5.251,0,0,0,1.806-4.634A1.4,1.4,0,0,0,388.715,192.057Z" transform="translate(-348.341 -125.021)" fill="#a7a7a7"/>
              <path id="Trazado_139270" data-name="Trazado 139270" d="M383.8,194.948c-.075.021-.148.045-.22.072a2.992,2.992,0,0,1,.105,1.809,5.433,5.433,0,0,1-2.908,3.8,1.34,1.34,0,0,0,1.7.741,5.275,5.275,0,0,0,3.125-3.878C385.975,195.722,385.165,194.581,383.8,194.948Z" transform="translate(-358.658 -119.067)" fill="#a7a7a7"/>
              <path id="Trazado_139271" data-name="Trazado 139271" d="M382.646,191.642a1.679,1.679,0,0,0-1.2.054,3.956,3.956,0,0,1-.406,3.227,4.926,4.926,0,0,1-2.4,2.385,1.3,1.3,0,0,0,.72.72c1.081.415,2.692-.674,3.6-2.439S383.727,192.06,382.646,191.642Z" transform="translate(-362.953 -125.75)" fill="#a7a7a7"/>
              <path id="Trazado_139272" data-name="Trazado 139272" d="M384.079,191.765a2.135,2.135,0,0,0-.431.117,3.189,3.189,0,0,1,.039,2.089,5.378,5.378,0,0,1-2.842,3.523,1.3,1.3,0,0,0,1.487.786c1.325-.211,2.791-1.843,3.273-3.64S385.4,191.554,384.079,191.765Z" transform="translate(-358.529 -125.374)" fill="#a7a7a7"/>
              <path id="Trazado_139273" data-name="Trazado 139273" d="M378.4,198.135c1.222-1.514,1.641-3.547.936-4.543a1.418,1.418,0,0,0-1.77-.4c.479,1.06.036,2.884-1.084,4.275a4.211,4.211,0,0,1-1.719,1.34,1.456,1.456,0,0,0,.151.268C375.617,200.071,377.177,199.649,378.4,198.135Z" transform="translate(-370.761 -122.735)" fill="#a7a7a7"/>
              <path id="Trazado_139274" data-name="Trazado 139274" d="M376.792,196.611a5.241,5.241,0,0,0,1.806-4.631,1.393,1.393,0,0,0-2.023-.957,2.514,2.514,0,0,1,.105.289,5.252,5.252,0,0,1-1.806,4.634,3.616,3.616,0,0,1-1.1.689C374.251,197.7,375.536,197.722,376.792,196.611Z" transform="translate(-372.751 -127.1)" fill="#a7a7a7"/>
              <path id="Trazado_139275" data-name="Trazado 139275" d="M386.152,193.924a2.425,2.425,0,0,1,.193,1,5.621,5.621,0,0,1-2.556,4.4,2.939,2.939,0,0,1-.443.211c.382.846,1.295,1.072,2.363.455a5.626,5.626,0,0,0,2.553-4.4C388.263,194.147,387.35,193.475,386.152,193.924Z" transform="translate(-353.501 -121.264)" fill="#a7a7a7"/>
              <path id="Trazado_139276" data-name="Trazado 139276" d="M380.506,194.667a1.583,1.583,0,0,0-1.361-.027,4.162,4.162,0,0,1-.557,3.5,4.763,4.763,0,0,1-2.252,2.111,1.347,1.347,0,0,0,.56.641c1,.569,2.613-.364,3.61-2.086S381.5,195.236,380.506,194.667Z" transform="translate(-367.596 -119.827)" fill="#a7a7a7"/>
              <path id="Trazado_139277" data-name="Trazado 139277" d="M383.984,194.79a5.329,5.329,0,0,0,3.086-3.935c.334-1.764-.506-2.863-1.876-2.457-.054.015-.111.039-.166.057a2.926,2.926,0,0,1,.121,1.734,5.439,5.439,0,0,1-2.92,3.875A1.344,1.344,0,0,0,383.984,194.79Z" transform="translate(-355.747 -132.268)" fill="#a7a7a7"/>
              <path id="Trazado_139278" data-name="Trazado 139278" d="M395.571,183.148a1.9,1.9,0,0,0-.837.136,3.585,3.585,0,0,1-.148,2.661,5.2,5.2,0,0,1-2.655,2.951,1.272,1.272,0,0,0,1.087.8c1.219.105,2.782-1.277,3.487-3.086S396.79,183.25,395.571,183.148Z" transform="translate(-336.238 -142.667)" fill="#a7a7a7"/>
              <path id="Trazado_139279" data-name="Trazado 139279" d="M394.525,186.573a1.574,1.574,0,0,0-1.361-.024,4.157,4.157,0,0,1-.557,3.5,4.8,4.8,0,0,1-2.252,2.114,1.353,1.353,0,0,0,.56.638c1,.569,2.613-.364,3.61-2.083S395.521,187.142,394.525,186.573Z" transform="translate(-339.407 -136.102)" fill="#a7a7a7"/>
              <path id="Trazado_139280" data-name="Trazado 139280" d="M395.942,179.895c-.072.021-.144.045-.22.075a2.957,2.957,0,0,1,.108,1.806,5.453,5.453,0,0,1-2.908,3.806,1.334,1.334,0,0,0,1.7.738,5.272,5.272,0,0,0,3.128-3.878C398.113,180.669,397.306,179.528,395.942,179.895Z" transform="translate(-334.246 -149.334)" fill="#a7a7a7"/>
              <path id="Trazado_139281" data-name="Trazado 139281" d="M391.106,189.541c.479,1.06.036,2.884-1.084,4.275a4.228,4.228,0,0,1-1.719,1.337,1.542,1.542,0,0,0,.15.268c.7,1,2.267.575,3.486-.939s1.641-3.55.936-4.543A1.415,1.415,0,0,0,391.106,189.541Z" transform="translate(-343.533 -130.083)" fill="#a7a7a7"/>
              <path id="Trazado_139282" data-name="Trazado 139282" d="M386.152,190.944a2.4,2.4,0,0,1,.193,1,5.63,5.63,0,0,1-2.556,4.4,2.907,2.907,0,0,1-.443.208c.382.849,1.295,1.075,2.363.458a5.635,5.635,0,0,0,2.553-4.4C388.263,191.164,387.35,190.492,386.152,190.944Z" transform="translate(-353.501 -127.259)" fill="#a7a7a7"/>
              <path id="Trazado_139283" data-name="Trazado 139283" d="M389.482,187.885a1.388,1.388,0,0,0-2.005-.9,1.656,1.656,0,0,1,.087.235c.4,1.325-.379,3.4-1.734,4.637a3.586,3.586,0,0,1-1.162.741c.488,1.093,1.812,1.084,3.08-.075C389.1,191.284,389.88,189.209,389.482,187.885Z" transform="translate(-350.842 -135.225)" fill="#a7a7a7"/>
              <path id="Trazado_139284" data-name="Trazado 139284" d="M382.03,195.128a1.943,1.943,0,0,0-.837.139,3.577,3.577,0,0,1-.148,2.658,5.211,5.211,0,0,1-2.655,2.951,1.271,1.271,0,0,0,1.084.8c1.222.105,2.785-1.277,3.489-3.086S383.249,195.234,382.03,195.128Z" transform="translate(-363.466 -118.575)" fill="#a7a7a7"/>
              <path id="Trazado_139285" data-name="Trazado 139285" d="M395.83,174.368a5.246,5.246,0,0,1-1.806,4.63,3.558,3.558,0,0,1-1.1.689c.479,1.072,1.764,1.09,3.02-.024a5.238,5.238,0,0,0,1.806-4.631,1.394,1.394,0,0,0-2.023-.954A2.33,2.33,0,0,1,395.83,174.368Z" transform="translate(-334.246 -161.17)" fill="#a7a7a7"/>
              <path id="Trazado_139286" data-name="Trazado 139286" d="M393.648,176.18a4.207,4.207,0,0,1-1.716,1.34,1.531,1.531,0,0,0,.148.268c.7.994,2.267.572,3.49-.942s1.638-3.547.933-4.54a1.414,1.414,0,0,0-1.77-.4C395.211,172.968,394.768,174.792,393.648,176.18Z" transform="translate(-336.236 -165.539)" fill="#a7a7a7"/>
              <path id="Trazado_139287" data-name="Trazado 139287" d="M392.607,173.964a4.791,4.791,0,0,1-2.252,2.111,1.361,1.361,0,0,0,.56.641c1,.566,2.613-.367,3.61-2.086s1-3.574,0-4.143a1.583,1.583,0,0,0-1.361-.027A4.163,4.163,0,0,1,392.607,173.964Z" transform="translate(-339.407 -168.447)" fill="#a7a7a7"/>
              <path id="Trazado_139288" data-name="Trazado 139288" d="M387.617,187.844a5.593,5.593,0,0,0,2.767-4.26c.115-1.593-.81-2.412-2.1-1.927a2.652,2.652,0,0,1,.181,1.262,5.586,5.586,0,0,1-2.767,4.26,2.3,2.3,0,0,1-.22.093A1.444,1.444,0,0,0,387.617,187.844Z" transform="translate(-349.218 -145.933)" fill="#a7a7a7"/>
              <path id="Trazado_139289" data-name="Trazado 139289" d="M390.955,172.5a5.2,5.2,0,0,1-2.652,2.951,1.279,1.279,0,0,0,1.084.8c1.222.1,2.782-1.28,3.489-3.089s.286-3.357-.936-3.462a1.938,1.938,0,0,0-.834.139A3.565,3.565,0,0,1,390.955,172.5Z" transform="translate(-343.533 -169.698)" fill="#a7a7a7"/>
              <path id="Trazado_139290" data-name="Trazado 139290" d="M392.365,186.394a1.5,1.5,0,0,0-1.511-.129,4.33,4.33,0,0,1-.723,3.772,4.606,4.606,0,0,1-2.083,1.846,1.372,1.372,0,0,0,.406.536c.906.717,2.517-.051,3.6-1.716S393.272,187.111,392.365,186.394Z" transform="translate(-344.046 -136.668)" fill="#a7a7a7"/>
              <path id="Trazado_139291" data-name="Trazado 139291" d="M390.609,189.745a1.386,1.386,0,0,0-1.96-.75c.012.027.027.054.039.084.482,1.243-.2,3.318-1.526,4.637a3.823,3.823,0,0,1-1.313.888c.515,1.15,1.939,1.063,3.233-.223C390.407,193.063,391.091,190.988,390.609,189.745Z" transform="translate(-348.468 -131.181)" fill="#a7a7a7"/>
              <path id="Trazado_139292" data-name="Trazado 139292" d="M383.648,176.108c.012.03.027.054.039.084.482,1.243-.2,3.318-1.526,4.637a3.774,3.774,0,0,1-1.316.891c.518,1.15,1.942,1.063,3.234-.223,1.325-1.319,2.008-3.4,1.526-4.64A1.387,1.387,0,0,0,383.648,176.108Z" transform="translate(-358.529 -157.09)" fill="#a7a7a7"/>
              <path id="Trazado_139293" data-name="Trazado 139293" d="M383.689,173.334a5.238,5.238,0,0,1-1.806,4.631,3.6,3.6,0,0,1-1.1.692c.479,1.069,1.764,1.087,3.023-.024,1.361-1.207,2.171-3.279,1.8-4.634a1.394,1.394,0,0,0-2.023-.954A1.925,1.925,0,0,1,383.689,173.334Z" transform="translate(-358.658 -163.249)" fill="#a7a7a7"/>
              <path id="Trazado_139294" data-name="Trazado 139294" d="M381.45,178.835a4.319,4.319,0,0,1-.72,3.772,4.585,4.585,0,0,1-2.086,1.843,1.466,1.466,0,0,0,.406.539c.909.717,2.517-.051,3.6-1.716s1.222-3.595.316-4.311A1.517,1.517,0,0,0,381.45,178.835Z" transform="translate(-362.955 -151.607)" fill="#a7a7a7"/>
              <path id="Trazado_139295" data-name="Trazado 139295" d="M380.107,179.837a4.232,4.232,0,0,1-1.716,1.34,1.778,1.778,0,0,0,.148.268c.7.994,2.267.572,3.489-.942s1.638-3.55.933-4.543a1.415,1.415,0,0,0-1.77-.4C381.67,176.622,381.227,178.446,380.107,179.837Z" transform="translate(-363.464 -158.191)" fill="#a7a7a7"/>
              <path id="Trazado_139296" data-name="Trazado 139296" d="M388.818,171.893a5.429,5.429,0,0,1-2.905,3.8,1.337,1.337,0,0,0,1.7.741,5.284,5.284,0,0,0,3.128-3.878c.364-1.776-.445-2.914-1.806-2.547a2.089,2.089,0,0,0-.22.072A2.988,2.988,0,0,1,388.818,171.893Z" transform="translate(-348.339 -169.209)" fill="#a7a7a7"/>
              <path id="Trazado_139297" data-name="Trazado 139297" d="M386.345,172.176a5.62,5.62,0,0,1-2.556,4.4,2.676,2.676,0,0,1-.443.211c.382.849,1.295,1.075,2.363.458a5.635,5.635,0,0,0,2.553-4.4c0-1.445-.912-2.117-2.11-1.665A2.4,2.4,0,0,1,386.345,172.176Z" transform="translate(-353.501 -167.008)" fill="#a7a7a7"/>
              <path id="Trazado_139298" data-name="Trazado 139298" d="M378.588,182.059a4.792,4.792,0,0,1-2.252,2.111,1.339,1.339,0,0,0,.56.638c1,.569,2.613-.364,3.61-2.083s1-3.577,0-4.146a1.594,1.594,0,0,0-1.361-.024A4.164,4.164,0,0,1,378.588,182.059Z" transform="translate(-367.596 -152.172)" fill="#a7a7a7"/>
            </g>
          </g>
        </g>
      </g>
      <ellipse id="Elipse_4405" data-name="Elipse 4405" cx="25.502" cy="14.723" rx="25.502" ry="14.723" transform="translate(402.101 244.469) rotate(-59.69)" fill="url(#linear-gradient-3)"/>
      <g id="Grupo_91209" data-name="Grupo 91209" transform="translate(414.152 209.463)">
        <path id="Trazado_139299" data-name="Trazado 139299" d="M415.814,189.514c0,11.465-8.1,25.435-18.089,31.2s-18.089,1.15-18.089-10.315,8.1-25.432,18.089-31.2S415.814,178.052,415.814,189.514Z" transform="translate(-379.637 -176.718)" fill="#f3f3f3"/>
        <path id="Trazado_139300" data-name="Trazado 139300" d="M396.013,186.577a12.43,12.43,0,0,1-5.639,9.728c-3.116,1.8-5.642.358-5.642-3.215a12.425,12.425,0,0,1,5.642-9.728C393.487,181.565,396.013,183,396.013,186.577Z" transform="translate(-369.392 -164.914)" fill="#a4a4a4"/>
        <path id="Trazado_139301" data-name="Trazado 139301" d="M393.022,185.75a8.64,8.64,0,0,1-3.92,6.762c-2.165,1.249-3.92.25-3.92-2.234a8.639,8.639,0,0,1,3.92-6.762C391.267,182.267,393.022,183.267,393.022,185.75Z" transform="translate(-368.487 -164.13)" fill="#d8312e"/>
        <path id="Trazado_139302" data-name="Trazado 139302" d="M392.175,185.653a7.409,7.409,0,0,1-3.36,5.8c-1.855,1.069-3.36.214-3.36-1.915a7.4,7.4,0,0,1,3.36-5.8C390.67,182.667,392.175,183.525,392.175,185.653Z" transform="translate(-367.939 -163.53)" fill="#ff4d4a"/>
        <path id="Trazado_139303" data-name="Trazado 139303" d="M390.04,185.533a4.324,4.324,0,0,1-1.96,3.381c-1.084.626-1.96.123-1.96-1.117a4.311,4.311,0,0,1,1.96-3.381C389.161,183.79,390.04,184.29,390.04,185.533Z" transform="translate(-366.601 -161.781)" fill="#ff7977"/>
      </g>
    </g>
  </g>
</svg>
