<svg xmlns="http://www.w3.org/2000/svg" xmlns:xlink="http://www.w3.org/1999/xlink" width="154.5" height="154.499" viewBox="0 0 154.5 154.499">
  <defs>
    <linearGradient id="linear-gradient" y1="0.5" x2="1" y2="0.5" gradientUnits="objectBoundingBox">
      <stop offset="0.041" stop-color="#262526"/>
      <stop offset="0.419" stop-color="#2a292b"/>
      <stop offset="0.976" stop-color="#373639"/>
    </linearGradient>
  </defs>
  <g id="_3" data-name="3" transform="translate(-722.75 -2222)">
    <path id="Trazado_138721" data-name="Trazado 138721" d="M428.7,0h77.251V77.25A77.25,77.25,0,0,1,428.7,154.5h0a77.25,77.25,0,0,1-77.25-77.25h0A77.25,77.25,0,0,1,428.7,0Z" transform="translate(371.301 2222)" fill="#ffe89f"/>
    <g id="Grupo_91250" data-name="Grupo 91250" transform="translate(535.952 2150.732)">
      <g id="Grupo_91246" data-name="Grupo 91246" transform="translate(226.182 86.6)">
        <g id="Grupo_91219" data-name="Grupo 91219">
          <path id="Trazado_139304" data-name="Trazado 139304" d="M268.8,160.351l1.857-28.146-14.659-1.429v0a29.519,29.519,0,0,0-14.46,1.886c-10.431,3.909-17.12,11.861-14.941,17.76,1.094,2.961,4.217,4.84,8.373,5.486h0Z" transform="translate(-226.182 -40.199)" fill="#c3c4c3" style="mix-blend-mode: multiply;isolation: isolate"/>
          <path id="Trazado_139305" data-name="Trazado 139305" d="M292.049,103.744,235.52,103.5v69.465h0c.045,4.158,2.825,8.318,8.34,11.5,11.073,6.391,28.969,6.424,39.972.072,5.523-3.189,8.26-7.382,8.215-11.575h0Z" transform="translate(-216.318 -68.747)" fill="url(#linear-gradient)"/>
          <path id="Trazado_139306" data-name="Trazado 139306" d="M292.049,127.577l-56.529-.243v13.621h0c.045,4.158,2.825,8.32,8.34,11.5,11.073,6.393,28.969,6.424,39.972.072,5.523-3.189,8.26-7.382,8.215-11.575h0Z" transform="translate(-216.318 -43.573)" fill="#3b3b3d"/>
          <path id="Trazado_139307" data-name="Trazado 139307" d="M292.049,127.341,235.52,127.1v13.619h0c.045,4.16,2.825,8.32,8.34,11.5,11.073,6.393,28.969,6.426,39.972.074,5.523-3.191,8.26-7.382,8.215-11.577h0Z" transform="translate(-216.318 -43.823)" fill="#131315"/>
          <path id="Trazado_139308" data-name="Trazado 139308" d="M292.049,99.7,235.52,99.46v69.463h0c.045,4.16,2.825,8.32,8.34,11.5,11.073,6.393,28.969,6.426,39.972.072,5.523-3.189,8.26-7.382,8.215-11.575h0Z" transform="translate(-216.318 -73.016)" fill="url(#linear-gradient)"/>
          <path id="Trazado_139309" data-name="Trazado 139309" d="M292.049,95.439,235.52,95.2v13.621h0c.045,4.16,2.825,8.32,8.34,11.5,11.073,6.393,28.969,6.424,39.972.072,5.523-3.189,8.26-7.382,8.215-11.575h0Z" transform="translate(-216.318 -77.52)" fill="#3b3b3d"/>
          <path id="Trazado_139310" data-name="Trazado 139310" d="M292.049,95.172l-56.529-.243V108.55h0c.045,4.158,2.825,8.32,8.34,11.5,11.073,6.393,28.969,6.424,39.972.072,5.523-3.189,8.26-7.382,8.215-11.575h0Z" transform="translate(-216.318 -77.802)" fill="#131315"/>
          <path id="Trazado_139311" data-name="Trazado 139311" d="M292.049,94.676l-56.529-.241v13.619h0c.045,4.16,2.825,8.32,8.34,11.5,11.073,6.393,28.969,6.426,39.972.072,5.523-3.189,8.26-7.382,8.215-11.575h0Z" transform="translate(-216.318 -78.323)" fill="url(#linear-gradient)"/>
          <path id="Trazado_139312" data-name="Trazado 139312" d="M283.833,114.494c-11,6.352-28.9,6.319-39.972-.074s-11.128-16.724-.125-23.077,28.9-6.319,39.972.072S294.837,108.14,283.833,114.494Z" transform="translate(-216.318 -86.6)" fill="#505052"/>
          <path id="Trazado_139313" data-name="Trazado 139313" d="M282.82,113.906c-10.68,6.167-28.052,6.136-38.8-.07s-10.8-16.234-.121-22.4,28.052-6.136,38.8.07S293.5,107.742,282.82,113.906Z" transform="translate(-215.892 -86.353)" fill="#00e7f4"/>
          <path id="Trazado_139314" data-name="Trazado 139314" d="M280.153,112.368c-9.833,5.677-25.823,5.649-35.715-.064s-9.944-14.945-.113-20.62,25.823-5.649,35.715.064S289.984,106.692,280.153,112.368Z" transform="translate(-214.772 -85.707)" fill="#242426"/>
          <g id="Grupo_91218" data-name="Grupo 91218" transform="translate(24.221 1.974)">
            <path id="Trazado_139315" data-name="Trazado 139315" d="M277.7,110.5c-9.05,5.225-23.768,5.2-32.876-.06s-9.152-13.754-.1-18.979,23.768-5.2,32.876.058S286.746,105.275,277.7,110.5Z" transform="translate(-237.961 -87.56)" fill="#7a7a7b"/>
            <path id="Trazado_139316" data-name="Trazado 139316" d="M276.917,110.051c-8.86,5.116-23.273,5.089-32.189-.06s-8.963-13.469-.1-18.585,23.273-5.089,32.189.06S285.777,104.935,276.917,110.051Z" transform="translate(-237.909 -87.53)" fill="#505052"/>
            <g id="Grupo_91212" data-name="Grupo 91212" transform="translate(6.534 17.371)">
              <path id="Trazado_139317" data-name="Trazado 139317" d="M242.684,101.1c-2.034-1.162-2.064-3.049-.07-4.207a8.1,8.1,0,0,1,7.339-.019c2.044,1.17,2.06,3.056.035,4.234A8.013,8.013,0,0,1,242.684,101.1Z" transform="translate(-241.138 -96.007)" fill="#2e2e30"/>
              <path id="Trazado_139318" data-name="Trazado 139318" d="M248.637,97.2a6.49,6.49,0,0,0-5.871.014c-1.6.927-1.569,2.437.058,3.366a6.411,6.411,0,0,0,5.842.008C250.284,99.643,250.271,98.135,248.637,97.2Z" transform="translate(-240.665 -95.484)" fill="#575758"/>
              <g id="Grupo_91211" data-name="Grupo 91211" transform="translate(2.912 1.677)">
                <path id="Trazado_139319" data-name="Trazado 139319" d="M246.017,97.861a4.221,4.221,0,0,0-.707-.325,5.874,5.874,0,0,0-1.561-.321,6.648,6.648,0,0,0-.835-.012.406.406,0,0,1-.306-.088.116.116,0,0,1-.01-.187.351.351,0,0,1,.243-.095,7.511,7.511,0,0,1,.913.008,7.259,7.259,0,0,1,1.11.156,6.429,6.429,0,0,1,.839.245,5.5,5.5,0,0,1,.648.29,4.024,4.024,0,0,1,.551.354,2.785,2.785,0,0,1,.543.547,1.81,1.81,0,0,1,.325.683,1.5,1.5,0,0,1,.025.574c-.014.1-.169.175-.352.167-.167-.008-.3-.1-.288-.2a1.461,1.461,0,0,0-.01-.434,1.542,1.542,0,0,0-.249-.592,2.117,2.117,0,0,0-.348-.393A3.021,3.021,0,0,0,246.017,97.861Z" transform="translate(-242.554 -96.823)" fill="#dcdadb"/>
                <path id="Trazado_139320" data-name="Trazado 139320" d="M245.518,97.757a1.925,1.925,0,0,1,.843.884,1.1,1.1,0,0,1,.076.594c-.014.1-.162.173-.333.167s-.313-.088-.308-.189c0-.066.01-.134.006-.2a1.076,1.076,0,0,0-.341-.689,2.179,2.179,0,0,0-.681-.45,3.873,3.873,0,0,0-1.454-.308c-.119,0-.241,0-.362,0a.443.443,0,0,1-.288-.078c-.076-.062-.084-.127-.025-.193a.345.345,0,0,1,.251-.1,5.438,5.438,0,0,1,1.409.109,4.719,4.719,0,0,1,.746.226A3.653,3.653,0,0,1,245.518,97.757Z" transform="translate(-242.493 -96.437)" fill="#dcdadb"/>
                <path id="Trazado_139321" data-name="Trazado 139321" d="M244.563,97.917a.913.913,0,0,1,.522.816.178.178,0,0,1-.056.134.492.492,0,0,1-.432.058c-.117-.043-.169-.1-.16-.183a.521.521,0,0,0-.206-.469,1.562,1.562,0,0,0-.946-.339c-.09-.006-.181-.006-.271,0a.378.378,0,0,1-.327-.127c-.047-.08.006-.169.125-.214a.531.531,0,0,1,.165-.031,3.227,3.227,0,0,1,1.022.115A2.557,2.557,0,0,1,244.563,97.917Z" transform="translate(-242.431 -96.052)" fill="#dcdadb"/>
                <path id="Trazado_139322" data-name="Trazado 139322" d="M242.778,98.555c-.255-.144-.259-.38-.01-.524a1.009,1.009,0,0,1,.917,0c.257.146.259.38.006.528A1,1,0,0,1,242.778,98.555Z" transform="translate(-242.523 -95.666)" fill="#dcdadb"/>
              </g>
            </g>
            <g id="Grupo_91214" data-name="Grupo 91214" transform="translate(2.176 1.255)">
              <g id="Grupo_91213" data-name="Grupo 91213">
                <path id="Trazado_139323" data-name="Trazado 139323" d="M257.95,91.418a2.6,2.6,0,0,1-2.348,0,.717.717,0,0,1-.008-1.357,2.607,2.607,0,0,1,2.35,0A.716.716,0,0,1,257.95,91.418Z" transform="translate(-222.021 -86.471)" fill="#160c0d"/>
                <path id="Trazado_139324" data-name="Trazado 139324" d="M252.393,95.324c-.9.1-1.773-.247-1.945-.767s.415-1.022,1.316-1.119,1.77.247,1.945.767S253.294,95.227,252.393,95.324Z" transform="translate(-226.98 -82.622)" fill="#160c0d"/>
                <path id="Trazado_139325" data-name="Trazado 139325" d="M252.007,93.575c-.144.522-1,.876-1.9.79s-1.522-.582-1.378-1.1,1-.876,1.9-.788S252.15,93.053,252.007,93.575Z" transform="translate(-228.787 -83.639)" fill="#160c0d"/>
                <path id="Trazado_139326" data-name="Trazado 139326" d="M249.031,93.177c.8.261,1.09.845.646,1.306a2.4,2.4,0,0,1-2.26.364c-.8-.261-1.09-.845-.644-1.306A2.4,2.4,0,0,1,249.031,93.177Z" transform="translate(-231.051 -83.013)" fill="#160c0d"/>
                <path id="Trazado_139327" data-name="Trazado 139327" d="M247.44,94.917a2.574,2.574,0,0,1,2.338-.132c.711.337.818.942.241,1.351a2.569,2.569,0,0,1-2.336.13C246.971,95.931,246.862,95.327,247.44,94.917Z" transform="translate(-230.517 -81.412)" fill="#160c0d"/>
                <path id="Trazado_139328" data-name="Trazado 139328" d="M249.681,96.121c-.471-.456-.216-1.045.572-1.314a2.444,2.444,0,0,1,2.276.339c.473.456.216,1.043-.572,1.312A2.444,2.444,0,0,1,249.681,96.121Z" transform="translate(-228.006 -81.3)" fill="#160c0d"/>
                <path id="Trazado_139329" data-name="Trazado 139329" d="M254.651,95.487c-.917.01-1.68-.409-1.7-.94s.7-.966,1.618-.977,1.678.411,1.7.94S255.568,95.476,254.651,95.487Z" transform="translate(-224.307 -82.466)" fill="#160c0d"/>
                <path id="Trazado_139330" data-name="Trazado 139330" d="M253.27,96.671c-.8-.255-1.1-.839-.664-1.3a2.381,2.381,0,0,1,2.252-.376c.806.255,1.1.839.666,1.3A2.385,2.385,0,0,1,253.27,96.671Z" transform="translate(-224.881 -81.09)" fill="#160c0d"/>
                <path id="Trazado_139331" data-name="Trazado 139331" d="M251.047,97.294c-.479-.452-.232-1.043.549-1.316a2.465,2.465,0,0,1,2.284.325c.479.454.232,1.043-.549,1.316A2.459,2.459,0,0,1,251.047,97.294Z" transform="translate(-226.573 -80.069)" fill="#160c0d"/>
                <path id="Trazado_139332" data-name="Trazado 139332" d="M248.573,97.191c-.023-.531.7-.968,1.618-.979s1.68.411,1.7.942-.7.966-1.618.977S248.6,97.719,248.573,97.191Z" transform="translate(-228.928 -79.676)" fill="#160c0d"/>
                <path id="Trazado_139333" data-name="Trazado 139333" d="M246.515,96.386a2.387,2.387,0,0,1,2.252-.376c.806.255,1.1.839.666,1.3a2.386,2.386,0,0,1-2.252.374C246.375,97.432,246.077,96.848,246.515,96.386Z" transform="translate(-231.315 -80.016)" fill="#160c0d"/>
                <path id="Trazado_139334" data-name="Trazado 139334" d="M245.422,95.1a2.456,2.456,0,0,1,2.282.325c.479.452.232,1.043-.549,1.316a2.465,2.465,0,0,1-2.285-.325C244.394,95.96,244.639,95.372,245.422,95.1Z" transform="translate(-233.095 -80.998)" fill="#160c0d"/>
                <path id="Trazado_139335" data-name="Trazado 139335" d="M245.588,93.67c.917-.01,1.678.411,1.7.94s-.7.966-1.618.977-1.678-.409-1.7-.94S244.67,93.68,245.588,93.67Z" transform="translate(-233.791 -82.361)" fill="#160c0d"/>
                <path id="Trazado_139336" data-name="Trazado 139336" d="M246.966,92.486c.806.257,1.1.839.666,1.3a2.392,2.392,0,0,1-2.252.376c-.806-.257-1.1-.839-.666-1.3A2.392,2.392,0,0,1,246.966,92.486Z" transform="translate(-233.216 -83.737)" fill="#160c0d"/>
                <path id="Trazado_139337" data-name="Trazado 139337" d="M249.192,91.863c.477.454.232,1.043-.551,1.316a2.456,2.456,0,0,1-2.282-.325c-.479-.452-.232-1.043.549-1.316A2.465,2.465,0,0,1,249.192,91.863Z" transform="translate(-231.525 -84.758)" fill="#160c0d"/>
                <path id="Trazado_139338" data-name="Trazado 139338" d="M251.663,91.968c.025.528-.7.966-1.616.977s-1.68-.411-1.7-.94.7-.966,1.616-.977S251.641,91.437,251.663,91.968Z" transform="translate(-229.17 -85.151)" fill="#160c0d"/>
                <path id="Trazado_139339" data-name="Trazado 139339" d="M256.427,96.557c-.886-.138-1.415-.664-1.18-1.176a1.981,1.981,0,0,1,2.032-.674c.886.14,1.415.666,1.18,1.176A1.974,1.974,0,0,1,256.427,96.557Z" transform="translate(-221.937 -81.301)" fill="#160c0d"/>
                <path id="Trazado_139340" data-name="Trazado 139340" d="M254.888,97.679c-.753-.3-.938-.9-.413-1.337a2.517,2.517,0,0,1,2.311-.23c.753.3.938.9.415,1.337A2.521,2.521,0,0,1,254.888,97.679Z" transform="translate(-223.009 -79.966)" fill="#160c0d"/>
                <path id="Trazado_139341" data-name="Trazado 139341" d="M252.775,98.428c-.529-.436-.35-1.032.4-1.335a2.529,2.529,0,0,1,2.315.239c.529.436.348,1.032-.4,1.335A2.524,2.524,0,0,1,252.775,98.428Z" transform="translate(-224.81 -78.926)" fill="#160c0d"/>
                <path id="Trazado_139342" data-name="Trazado 139342" d="M250.34,98.712c-.241-.512.284-1.036,1.168-1.172a2,2,0,0,1,2.038.681c.241.512-.284,1.038-1.168,1.172A2,2,0,0,1,250.34,98.712Z" transform="translate(-227.123 -78.307)" fill="#160c0d"/>
                <path id="Trazado_139343" data-name="Trazado 139343" d="M247.879,98.5c.076-.528.88-.917,1.793-.868s1.594.514,1.515,1.04-.88.917-1.793.868S247.8,99.023,247.879,98.5Z" transform="translate(-229.667 -78.183)" fill="#160c0d"/>
                <path id="Trazado_139344" data-name="Trazado 139344" d="M243.032,93.962c.915-.045,1.721.345,1.805.874s-.592.991-1.505,1.036-1.721-.348-1.8-.876S242.119,94.005,243.032,93.962Z" transform="translate(-236.376 -82.056)" fill="#160c0d"/>
                <path id="Trazado_139345" data-name="Trazado 139345" d="M243.81,92.6c.886.14,1.415.666,1.18,1.176a1.972,1.972,0,0,1-2.03.674c-.886-.138-1.415-.664-1.18-1.176A1.979,1.979,0,0,1,243.81,92.6Z" transform="translate(-236.161 -83.526)" fill="#160c0d"/>
                <path id="Trazado_139346" data-name="Trazado 139346" d="M245.349,91.478c.753.306.94.9.415,1.337a2.512,2.512,0,0,1-2.311.232c-.753-.306-.94-.9-.415-1.337A2.512,2.512,0,0,1,245.349,91.478Z" transform="translate(-235.088 -84.861)" fill="#160c0d"/>
                <path id="Trazado_139347" data-name="Trazado 139347" d="M247.463,90.731c.528.434.35,1.032-.4,1.335a2.519,2.519,0,0,1-2.313-.241c-.528-.434-.35-1.032.4-1.335A2.519,2.519,0,0,1,247.463,90.731Z" transform="translate(-233.287 -85.901)" fill="#160c0d"/>
                <path id="Trazado_139348" data-name="Trazado 139348" d="M249.9,90.447c.239.512-.284,1.036-1.168,1.172a2,2,0,0,1-2.038-.683c-.241-.512.282-1.036,1.168-1.172A2,2,0,0,1,249.9,90.447Z" transform="translate(-230.975 -86.52)" fill="#160c0d"/>
                <path id="Trazado_139349" data-name="Trazado 139349" d="M259.113,92.7a2.432,2.432,0,0,1-2.27-.356c-.461-.459-.191-1.045.6-1.308a2.44,2.44,0,0,1,2.272.354C260.176,91.852,259.906,92.438,259.113,92.7Z" transform="translate(-220.43 -85.276)" fill="#160c0d"/>
                <path id="Trazado_139350" data-name="Trazado 139350" d="M259.664,94.112a2,2,0,0,1-2.038-.681c-.241-.512.284-1.038,1.168-1.174a2.006,2.006,0,0,1,2.038.683C261.072,93.452,260.548,93.976,259.664,94.112Z" transform="translate(-219.427 -83.886)" fill="#160c0d"/>
                <path id="Trazado_139351" data-name="Trazado 139351" d="M259.563,95.555c-.917,0-1.661-.434-1.666-.962s.738-.958,1.655-.956,1.664.432,1.666.962S260.48,95.555,259.563,95.555Z" transform="translate(-219.079 -82.395)" fill="#160c0d"/>
                <path id="Trazado_139352" data-name="Trazado 139352" d="M258.819,96.931c-.886-.138-1.415-.664-1.18-1.176a1.979,1.979,0,0,1,2.03-.674c.888.14,1.417.666,1.182,1.176A1.977,1.977,0,0,1,258.819,96.931Z" transform="translate(-219.411 -80.906)" fill="#160c0d"/>
                <path id="Trazado_139353" data-name="Trazado 139353" d="M257.482,98.147c-.8-.267-1.069-.853-.615-1.312a2.421,2.421,0,0,1,2.268-.345c.8.265,1.069.853.615,1.31A2.421,2.421,0,0,1,257.482,98.147Z" transform="translate(-220.399 -79.52)" fill="#160c0d"/>
                <path id="Trazado_139354" data-name="Trazado 139354" d="M255.644,99.12a.715.715,0,0,1-.008-1.355,2.59,2.59,0,0,1,2.348,0c.652.376.654.983.008,1.355A2.59,2.59,0,0,1,255.644,99.12Z" transform="translate(-221.977 -78.331)" fill="#160c0d"/>
                <path id="Trazado_139355" data-name="Trazado 139355" d="M253.429,99.783c-.461-.459-.193-1.045.6-1.308a2.436,2.436,0,0,1,2.27.354c.461.461.191,1.047-.6,1.31A2.435,2.435,0,0,1,253.429,99.783Z" transform="translate(-224.037 -77.419)" fill="#160c0d"/>
                <path id="Trazado_139356" data-name="Trazado 139356" d="M250.988,100.093c-.241-.512.282-1.036,1.168-1.172a2,2,0,0,1,2.038.681c.241.512-.284,1.036-1.168,1.172A2,2,0,0,1,250.988,100.093Z" transform="translate(-226.438 -76.849)" fill="#160c0d"/>
                <path id="Trazado_139357" data-name="Trazado 139357" d="M248.488,100.024c0-.528.738-.956,1.655-.954s1.664.432,1.666.96-.738.958-1.655.956S248.49,100.555,248.488,100.024Z" transform="translate(-229.017 -76.657)" fill="#160c0d"/>
                <path id="Trazado_139358" data-name="Trazado 139358" d="M246.1,99.588a1.972,1.972,0,0,1,2.03-.674c.886.138,1.415.664,1.18,1.176a1.979,1.979,0,0,1-2.03.674C246.394,100.624,245.865,100.1,246.1,99.588Z" transform="translate(-231.599 -76.858)" fill="#160c0d"/>
                <path id="Trazado_139359" data-name="Trazado 139359" d="M240.575,95.045a2.006,2.006,0,0,1,2.038.683c.239.512-.284,1.036-1.168,1.172a2,2,0,0,1-2.038-.683C239.166,95.705,239.689,95.181,240.575,95.045Z" transform="translate(-238.671 -80.941)" fill="#160c0d"/>
                <path id="Trazado_139360" data-name="Trazado 139360" d="M240.674,93.6c.917,0,1.663.432,1.666.962s-.738.956-1.655.954-1.661-.432-1.666-.96S239.757,93.6,240.674,93.6Z" transform="translate(-239.019 -82.431)" fill="#160c0d"/>
                <path id="Trazado_139361" data-name="Trazado 139361" d="M241.418,92.226c.888.14,1.417.666,1.182,1.176a1.975,1.975,0,0,1-2.032.674c-.886-.138-1.415-.664-1.18-1.176A1.979,1.979,0,0,1,241.418,92.226Z" transform="translate(-238.687 -83.921)" fill="#160c0d"/>
                <path id="Trazado_139362" data-name="Trazado 139362" d="M242.755,91.011c.8.265,1.071.851.615,1.31a2.416,2.416,0,0,1-2.266.348c-.8-.267-1.071-.853-.615-1.312A2.417,2.417,0,0,1,242.755,91.011Z" transform="translate(-237.699 -85.307)" fill="#160c0d"/>
                <path id="Trazado_139363" data-name="Trazado 139363" d="M244.595,90.038c.65.376.654.983.006,1.355a2.59,2.59,0,0,1-2.348,0,.715.715,0,0,1-.006-1.355A2.59,2.59,0,0,1,244.595,90.038Z" transform="translate(-236.121 -86.497)" fill="#160c0d"/>
                <path id="Trazado_139364" data-name="Trazado 139364" d="M246.81,89.373c.461.461.191,1.047-.6,1.31a2.429,2.429,0,0,1-2.27-.356c-.463-.459-.193-1.045.6-1.308A2.436,2.436,0,0,1,246.81,89.373Z" transform="translate(-234.061 -87.407)" fill="#160c0d"/>
                <path id="Trazado_139365" data-name="Trazado 139365" d="M249.251,89.066c.241.512-.284,1.036-1.168,1.172a2,2,0,0,1-2.038-.683c-.241-.512.282-1.036,1.168-1.172A2,2,0,0,1,249.251,89.066Z" transform="translate(-231.659 -87.978)" fill="#160c0d"/>
                <path id="Trazado_139366" data-name="Trazado 139366" d="M251.75,89.132c0,.531-.738.958-1.655.956s-1.664-.432-1.666-.962.738-.956,1.655-.956S251.746,88.6,251.75,89.132Z" transform="translate(-229.08 -88.17)" fill="#160c0d"/>
                <path id="Trazado_139367" data-name="Trazado 139367" d="M254.139,89.571a1.979,1.979,0,0,1-2.03.674c-.888-.14-1.417-.666-1.18-1.176a1.972,1.972,0,0,1,2.029-.674C253.845,88.532,254.373,89.059,254.139,89.571Z" transform="translate(-226.499 -87.969)" fill="#160c0d"/>
                <path id="Trazado_139368" data-name="Trazado 139368" d="M256.253,90.351a2.416,2.416,0,0,1-2.266.345c-.8-.265-1.071-.851-.615-1.31a2.417,2.417,0,0,1,2.266-.348C256.434,89.306,256.71,89.892,256.253,90.351Z" transform="translate(-224.091 -87.389)" fill="#160c0d"/>
              </g>
            </g>
            <g id="Grupo_91217" data-name="Grupo 91217" transform="translate(24.243 3.976)">
              <g id="Grupo_91216" data-name="Grupo 91216">
                <g id="Grupo_91215" data-name="Grupo 91215">
                  <path id="Trazado_139369" data-name="Trazado 139369" d="M259.644,97.965,250.522,92.7c-1.143-.66-1-1.814.321-2.574h0a4.955,4.955,0,0,1,4.46-.185l9.122,5.266c1.143.66,1,1.814-.321,2.577h0A4.961,4.961,0,0,1,259.644,97.965Z" transform="translate(-249.751 -89.493)" fill="#2e2e30"/>
                  <path id="Trazado_139370" data-name="Trazado 139370" d="M259.793,97.807l-9.229-5.328c-1.043-.6-.911-1.653.292-2.348h0a4.521,4.521,0,0,1,4.065-.169l9.229,5.328c1.042.6.913,1.653-.292,2.348h0A4.514,4.514,0,0,1,259.793,97.807Z" transform="translate(-249.634 -89.426)" fill="#424244"/>
                  <path id="Trazado_139371" data-name="Trazado 139371" d="M254.863,92.44a4.1,4.1,0,0,1-3.7-.006,1.129,1.129,0,0,1-.01-2.139,4.09,4.09,0,0,1,3.7.008A1.128,1.128,0,0,1,254.863,92.44Z" transform="translate(-249.076 -89.109)" fill="#2e2e30"/>
                  <path id="Trazado_139372" data-name="Trazado 139372" d="M258.611,94.6a4.09,4.09,0,0,1-3.7-.008,1.128,1.128,0,0,1-.012-2.136,4.1,4.1,0,0,1,3.7.006A1.129,1.129,0,0,1,258.611,94.6Z" transform="translate(-245.117 -86.824)" fill="#2e2e30"/>
                  <path id="Trazado_139373" data-name="Trazado 139373" d="M258.239,94.455a3.624,3.624,0,0,1-3.272-.006,1,1,0,0,1-.01-1.89,3.624,3.624,0,0,1,3.272.006A1,1,0,0,1,258.239,94.455Z" transform="translate(-244.961 -86.664)" fill="#484849"/>
                  <path id="Trazado_139374" data-name="Trazado 139374" d="M254.49,92.29a3.613,3.613,0,0,1-3.269-.006,1,1,0,0,1-.01-1.888,3.607,3.607,0,0,1,3.269.006A1,1,0,0,1,254.49,92.29Z" transform="translate(-248.919 -88.949)" fill="#484849"/>
                  <path id="Trazado_139375" data-name="Trazado 139375" d="M254.136,92.032a3.158,3.158,0,0,1-2.86-.006.872.872,0,0,1-.008-1.651,3.158,3.158,0,0,1,2.86.006A.872.872,0,0,1,254.136,92.032Z" transform="translate(-248.77 -88.921)" fill="#575758"/>
                  <path id="Trazado_139376" data-name="Trazado 139376" d="M257.89,94.2a3.165,3.165,0,0,1-2.86,0,.872.872,0,0,1-.008-1.651,3.164,3.164,0,0,1,2.86,0A.872.872,0,0,1,257.89,94.2Z" transform="translate(-244.805 -86.631)" fill="#575758"/>
                </g>
              </g>
              <path id="Trazado_139377" data-name="Trazado 139377" d="M252.337,91.582l-1.169-.675.987-.57,1.168.675Z" transform="translate(-248.254 -88.601)" fill="#dcdadb"/>
            </g>
          </g>
          <path id="Trazado_139378" data-name="Trazado 139378" d="M256.084,93.775l-1.168-.675.987-.57,1.168.675Z" transform="translate(-195.831 -80.335)" fill="#dcdadb"/>
        </g>
        <g id="Grupo_91245" data-name="Grupo 91245" transform="translate(19.434 60.013)">
          <g id="Grupo_91220" data-name="Grupo 91220">
            <path id="Trazado_139379" data-name="Trazado 139379" d="M236.7,117c0,.67-.239,1.215-.533,1.215s-.533-.545-.533-1.215.239-1.215.533-1.215S236.7,116.328,236.7,117Z" transform="translate(-235.633 -115.785)"/>
            <path id="Trazado_139380" data-name="Trazado 139380" d="M236.7,118.753c0,.672-.239,1.215-.533,1.215s-.533-.543-.533-1.215.239-1.215.533-1.215S236.7,118.083,236.7,118.753Z" transform="translate(-235.633 -113.933)"/>
            <path id="Trazado_139381" data-name="Trazado 139381" d="M236.7,120.507c0,.67-.239,1.215-.533,1.215s-.533-.545-.533-1.215.239-1.215.533-1.215S236.7,119.837,236.7,120.507Z" transform="translate(-235.633 -112.081)"/>
            <path id="Trazado_139382" data-name="Trazado 139382" d="M236.7,122.261c0,.67-.239,1.215-.533,1.215s-.533-.545-.533-1.215.239-1.215.533-1.215S236.7,121.589,236.7,122.261Z" transform="translate(-235.633 -110.228)"/>
            <path id="Trazado_139383" data-name="Trazado 139383" d="M236.7,124.014c0,.672-.239,1.215-.533,1.215s-.533-.543-.533-1.215.239-1.215.533-1.215S236.7,123.344,236.7,124.014Z" transform="translate(-235.633 -108.376)"/>
            <path id="Trazado_139384" data-name="Trazado 139384" d="M236.7,125.768c0,.67-.239,1.215-.533,1.215s-.533-.545-.533-1.215.239-1.215.533-1.215S236.7,125.1,236.7,125.768Z" transform="translate(-235.633 -106.524)"/>
            <path id="Trazado_139385" data-name="Trazado 139385" d="M236.7,127.522c0,.67-.239,1.215-.533,1.215s-.533-.545-.533-1.215.239-1.215.533-1.215S236.7,126.85,236.7,127.522Z" transform="translate(-235.633 -104.671)"/>
            <path id="Trazado_139386" data-name="Trazado 139386" d="M236.7,129.275c0,.672-.239,1.217-.533,1.217s-.533-.545-.533-1.217.239-1.215.533-1.215S236.7,128.6,236.7,129.275Z" transform="translate(-235.633 -102.819)"/>
            <path id="Trazado_139387" data-name="Trazado 139387" d="M236.7,131.029c0,.672-.239,1.215-.533,1.215s-.533-.543-.533-1.215.239-1.215.533-1.215S236.7,130.359,236.7,131.029Z" transform="translate(-235.633 -100.967)"/>
          </g>
          <g id="Grupo_91221" data-name="Grupo 91221" transform="translate(1.372 6.152)">
            <path id="Trazado_139388" data-name="Trazado 139388" d="M237.363,119.992c0,.67-.239,1.215-.531,1.215s-.533-.545-.533-1.215.239-1.215.533-1.215S237.363,119.322,237.363,119.992Z" transform="translate(-236.3 -118.777)"/>
            <path id="Trazado_139389" data-name="Trazado 139389" d="M237.363,121.749c0,.67-.239,1.215-.531,1.215s-.533-.545-.533-1.215.239-1.215.533-1.215S237.363,121.077,237.363,121.749Z" transform="translate(-236.3 -116.921)"/>
            <path id="Trazado_139390" data-name="Trazado 139390" d="M237.363,123.507c0,.67-.239,1.215-.531,1.215s-.533-.545-.533-1.215.239-1.217.533-1.217S237.363,122.835,237.363,123.507Z" transform="translate(-236.3 -115.066)"/>
            <path id="Trazado_139391" data-name="Trazado 139391" d="M237.363,125.262c0,.672-.239,1.215-.531,1.215s-.533-.543-.533-1.215.239-1.215.533-1.215S237.363,124.592,237.363,125.262Z" transform="translate(-236.3 -113.21)"/>
            <path id="Trazado_139392" data-name="Trazado 139392" d="M237.363,127.019c0,.67-.239,1.215-.531,1.215s-.533-.545-.533-1.215.239-1.215.533-1.215S237.363,126.349,237.363,127.019Z" transform="translate(-236.3 -111.355)"/>
            <path id="Trazado_139393" data-name="Trazado 139393" d="M237.363,128.776c0,.67-.239,1.215-.531,1.215s-.533-.545-.533-1.215.239-1.215.533-1.215S237.363,128.1,237.363,128.776Z" transform="translate(-236.3 -109.499)"/>
            <path id="Trazado_139394" data-name="Trazado 139394" d="M237.363,130.533c0,.67-.239,1.215-.531,1.215s-.533-.545-.533-1.215.239-1.215.533-1.215S237.363,129.861,237.363,130.533Z" transform="translate(-236.3 -107.643)"/>
            <path id="Trazado_139395" data-name="Trazado 139395" d="M237.363,132.289c0,.672-.239,1.215-.531,1.215s-.533-.543-.533-1.215.239-1.215.533-1.215S237.363,131.619,237.363,132.289Z" transform="translate(-236.3 -105.788)"/>
          </g>
          <g id="Grupo_91222" data-name="Grupo 91222" transform="translate(2.741 5.081)">
            <path id="Trazado_139396" data-name="Trazado 139396" d="M238.031,119.471c0,.67-.239,1.215-.533,1.215s-.533-.545-.533-1.215.239-1.215.533-1.215S238.031,118.8,238.031,119.471Z" transform="translate(-236.966 -118.256)"/>
            <path id="Trazado_139397" data-name="Trazado 139397" d="M238.031,121.225c0,.67-.239,1.215-.533,1.215s-.533-.545-.533-1.215.239-1.215.533-1.215S238.031,120.553,238.031,121.225Z" transform="translate(-236.966 -116.403)"/>
            <path id="Trazado_139398" data-name="Trazado 139398" d="M238.031,122.978c0,.672-.239,1.215-.533,1.215s-.533-.543-.533-1.215.239-1.215.533-1.215S238.031,122.308,238.031,122.978Z" transform="translate(-236.966 -114.552)"/>
            <path id="Trazado_139399" data-name="Trazado 139399" d="M238.031,124.732c0,.67-.239,1.215-.533,1.215s-.533-.545-.533-1.215.239-1.215.533-1.215S238.031,124.062,238.031,124.732Z" transform="translate(-236.966 -112.699)"/>
            <path id="Trazado_139400" data-name="Trazado 139400" d="M238.031,126.486c0,.67-.239,1.215-.533,1.215s-.533-.545-.533-1.215.239-1.215.533-1.215S238.031,125.814,238.031,126.486Z" transform="translate(-236.966 -110.846)"/>
            <path id="Trazado_139401" data-name="Trazado 139401" d="M238.031,128.239c0,.672-.239,1.215-.533,1.215s-.533-.543-.533-1.215.239-1.215.533-1.215S238.031,127.569,238.031,128.239Z" transform="translate(-236.966 -108.995)"/>
            <path id="Trazado_139402" data-name="Trazado 139402" d="M238.031,129.993c0,.672-.239,1.215-.533,1.215s-.533-.543-.533-1.215.239-1.215.533-1.215S238.031,129.323,238.031,129.993Z" transform="translate(-236.966 -107.142)"/>
            <path id="Trazado_139403" data-name="Trazado 139403" d="M238.031,131.747c0,.67-.239,1.215-.533,1.215s-.533-.545-.533-1.215.239-1.215.533-1.215S238.031,131.075,238.031,131.747Z" transform="translate(-236.966 -105.289)"/>
            <path id="Trazado_139404" data-name="Trazado 139404" d="M238.031,133.5c0,.672-.239,1.215-.533,1.215s-.533-.543-.533-1.215.239-1.215.533-1.215S238.031,132.83,238.031,133.5Z" transform="translate(-236.966 -103.438)"/>
          </g>
          <g id="Grupo_91223" data-name="Grupo 91223" transform="translate(4.162 7.906)">
            <path id="Trazado_139405" data-name="Trazado 139405" d="M238.895,120.845c0,.672-.278,1.215-.619,1.215s-.619-.543-.619-1.215.278-1.215.619-1.215S238.895,120.175,238.895,120.845Z" transform="translate(-237.657 -119.63)"/>
            <path id="Trazado_139406" data-name="Trazado 139406" d="M238.895,122.6c0,.672-.278,1.215-.619,1.215s-.619-.543-.619-1.215.278-1.215.619-1.215S238.895,121.932,238.895,122.6Z" transform="translate(-237.657 -117.774)"/>
            <path id="Trazado_139407" data-name="Trazado 139407" d="M238.895,124.359c0,.67-.278,1.215-.619,1.215s-.619-.545-.619-1.215.278-1.215.619-1.215S238.895,123.689,238.895,124.359Z" transform="translate(-237.657 -115.918)"/>
            <path id="Trazado_139408" data-name="Trazado 139408" d="M238.895,126.116c0,.67-.278,1.215-.619,1.215s-.619-.545-.619-1.215.278-1.215.619-1.215S238.895,125.444,238.895,126.116Z" transform="translate(-237.657 -114.062)"/>
            <path id="Trazado_139409" data-name="Trazado 139409" d="M238.895,127.874c0,.67-.278,1.215-.619,1.215s-.619-.545-.619-1.215.278-1.217.619-1.217S238.895,127.2,238.895,127.874Z" transform="translate(-237.657 -112.208)"/>
            <path id="Trazado_139410" data-name="Trazado 139410" d="M238.895,129.629c0,.672-.278,1.215-.619,1.215s-.619-.543-.619-1.215.278-1.215.619-1.215S238.895,128.959,238.895,129.629Z" transform="translate(-237.657 -110.352)"/>
            <path id="Trazado_139411" data-name="Trazado 139411" d="M238.895,131.386c0,.672-.278,1.215-.619,1.215s-.619-.543-.619-1.215.278-1.215.619-1.215S238.895,130.716,238.895,131.386Z" transform="translate(-237.657 -108.496)"/>
            <path id="Trazado_139412" data-name="Trazado 139412" d="M238.895,133.143c0,.67-.278,1.215-.619,1.215s-.619-.545-.619-1.215.278-1.215.619-1.215S238.895,132.471,238.895,133.143Z" transform="translate(-237.657 -106.64)"/>
          </g>
          <g id="Grupo_91224" data-name="Grupo 91224" transform="translate(5.756 7.368)">
            <path id="Trazado_139413" data-name="Trazado 139413" d="M239.67,120.583c0,.67-.278,1.215-.619,1.215s-.619-.545-.619-1.215.278-1.215.619-1.215S239.67,119.913,239.67,120.583Z" transform="translate(-238.432 -119.368)"/>
            <path id="Trazado_139414" data-name="Trazado 139414" d="M239.67,122.337c0,.67-.278,1.215-.619,1.215s-.619-.545-.619-1.215.278-1.215.619-1.215S239.67,121.665,239.67,122.337Z" transform="translate(-238.432 -117.515)"/>
            <path id="Trazado_139415" data-name="Trazado 139415" d="M239.67,124.09c0,.672-.278,1.215-.619,1.215s-.619-.543-.619-1.215.278-1.215.619-1.215S239.67,123.42,239.67,124.09Z" transform="translate(-238.432 -115.664)"/>
            <path id="Trazado_139416" data-name="Trazado 139416" d="M239.67,125.844c0,.672-.278,1.215-.619,1.215s-.619-.543-.619-1.215.278-1.215.619-1.215S239.67,125.174,239.67,125.844Z" transform="translate(-238.432 -113.811)"/>
            <path id="Trazado_139417" data-name="Trazado 139417" d="M239.67,127.6c0,.67-.278,1.215-.619,1.215s-.619-.545-.619-1.215.278-1.215.619-1.215S239.67,126.926,239.67,127.6Z" transform="translate(-238.432 -111.958)"/>
            <path id="Trazado_139418" data-name="Trazado 139418" d="M239.67,129.351c0,.672-.278,1.215-.619,1.215s-.619-.543-.619-1.215.278-1.215.619-1.215S239.67,128.681,239.67,129.351Z" transform="translate(-238.432 -110.107)"/>
            <path id="Trazado_139419" data-name="Trazado 139419" d="M239.67,131.105c0,.672-.278,1.215-.619,1.215s-.619-.543-.619-1.215.278-1.215.619-1.215S239.67,130.435,239.67,131.105Z" transform="translate(-238.432 -108.254)"/>
            <path id="Trazado_139420" data-name="Trazado 139420" d="M239.67,132.859c0,.67-.278,1.215-.619,1.215s-.619-.545-.619-1.215.278-1.215.619-1.215S239.67,132.187,239.67,132.859Z" transform="translate(-238.432 -106.401)"/>
            <path id="Trazado_139421" data-name="Trazado 139421" d="M239.67,134.614c0,.67-.278,1.213-.619,1.213s-.619-.543-.619-1.213.278-1.217.619-1.217S239.67,133.942,239.67,134.614Z" transform="translate(-238.432 -104.55)"/>
          </g>
          <g id="Grupo_91225" data-name="Grupo 91225" transform="translate(7.495 10.878)">
            <path id="Trazado_139422" data-name="Trazado 139422" d="M241.022,122.29c0,.67-.389,1.215-.872,1.215s-.872-.545-.872-1.215.391-1.215.872-1.215S241.022,121.618,241.022,122.29Z" transform="translate(-239.278 -121.075)"/>
            <path id="Trazado_139423" data-name="Trazado 139423" d="M241.022,124.047c0,.67-.389,1.215-.872,1.215s-.872-.545-.872-1.215.391-1.215.872-1.215S241.022,123.375,241.022,124.047Z" transform="translate(-239.278 -119.219)"/>
            <path id="Trazado_139424" data-name="Trazado 139424" d="M241.022,125.8c0,.672-.389,1.217-.872,1.217s-.872-.545-.872-1.217.391-1.215.872-1.215S241.022,125.133,241.022,125.8Z" transform="translate(-239.278 -117.364)"/>
            <path id="Trazado_139425" data-name="Trazado 139425" d="M241.022,127.56c0,.672-.389,1.215-.872,1.215s-.872-.543-.872-1.215.391-1.215.872-1.215S241.022,126.89,241.022,127.56Z" transform="translate(-239.278 -115.508)"/>
            <path id="Trazado_139426" data-name="Trazado 139426" d="M241.022,129.317c0,.67-.389,1.215-.872,1.215s-.872-.545-.872-1.215.391-1.215.872-1.215S241.022,128.647,241.022,129.317Z" transform="translate(-239.278 -113.653)"/>
            <path id="Trazado_139427" data-name="Trazado 139427" d="M241.022,131.074c0,.67-.389,1.215-.872,1.215s-.872-.545-.872-1.215.391-1.215.872-1.215S241.022,130.4,241.022,131.074Z" transform="translate(-239.278 -111.797)"/>
            <path id="Trazado_139428" data-name="Trazado 139428" d="M241.022,132.831c0,.67-.389,1.215-.872,1.215s-.872-.545-.872-1.215.391-1.215.872-1.215S241.022,132.159,241.022,132.831Z" transform="translate(-239.278 -109.941)"/>
            <path id="Trazado_139429" data-name="Trazado 139429" d="M241.022,134.587c0,.672-.389,1.215-.872,1.215s-.872-.543-.872-1.215.391-1.215.872-1.215S241.022,133.917,241.022,134.587Z" transform="translate(-239.278 -108.086)"/>
          </g>
          <g id="Grupo_91226" data-name="Grupo 91226" transform="translate(9.743 9.568)">
            <path id="Trazado_139430" data-name="Trazado 139430" d="M242.115,121.653c0,.672-.391,1.215-.872,1.215s-.872-.543-.872-1.215.389-1.215.872-1.215S242.115,120.983,242.115,121.653Z" transform="translate(-240.371 -120.438)"/>
            <path id="Trazado_139431" data-name="Trazado 139431" d="M242.115,123.407c0,.67-.391,1.215-.872,1.215s-.872-.545-.872-1.215.389-1.215.872-1.215S242.115,122.737,242.115,123.407Z" transform="translate(-240.371 -118.585)"/>
            <path id="Trazado_139432" data-name="Trazado 139432" d="M242.115,125.161c0,.67-.391,1.215-.872,1.215s-.872-.545-.872-1.215.389-1.215.872-1.215S242.115,124.489,242.115,125.161Z" transform="translate(-240.371 -116.733)"/>
            <path id="Trazado_139433" data-name="Trazado 139433" d="M242.115,126.916c0,.67-.391,1.213-.872,1.213s-.872-.543-.872-1.213.389-1.217.872-1.217S242.115,126.244,242.115,126.916Z" transform="translate(-240.371 -114.881)"/>
            <path id="Trazado_139434" data-name="Trazado 139434" d="M242.115,128.668c0,.672-.391,1.215-.872,1.215s-.872-.543-.872-1.215.389-1.215.872-1.215S242.115,128,242.115,128.668Z" transform="translate(-240.371 -113.028)"/>
            <path id="Trazado_139435" data-name="Trazado 139435" d="M242.115,130.422c0,.67-.391,1.215-.872,1.215s-.872-.545-.872-1.215.389-1.215.872-1.215S242.115,129.75,242.115,130.422Z" transform="translate(-240.371 -111.176)"/>
            <path id="Trazado_139436" data-name="Trazado 139436" d="M242.115,132.176c0,.67-.391,1.215-.872,1.215s-.872-.545-.872-1.215.389-1.215.872-1.215S242.115,131.5,242.115,132.176Z" transform="translate(-240.371 -109.323)"/>
            <path id="Trazado_139437" data-name="Trazado 139437" d="M242.115,133.929c0,.672-.391,1.215-.872,1.215s-.872-.543-.872-1.215.389-1.215.872-1.215S242.115,133.259,242.115,133.929Z" transform="translate(-240.371 -107.471)"/>
            <path id="Trazado_139438" data-name="Trazado 139438" d="M242.115,135.683c0,.67-.391,1.215-.872,1.215s-.872-.545-.872-1.215.389-1.215.872-1.215S242.115,135.013,242.115,135.683Z" transform="translate(-240.371 -105.619)"/>
          </g>
          <g id="Grupo_91227" data-name="Grupo 91227" transform="translate(11.988 12.539)">
            <path id="Trazado_139439" data-name="Trazado 139439" d="M243.209,123.1c0,.67-.391,1.215-.874,1.215s-.872-.545-.872-1.215.391-1.215.872-1.215S243.209,122.426,243.209,123.1Z" transform="translate(-241.463 -121.883)"/>
            <path id="Trazado_139440" data-name="Trazado 139440" d="M243.209,124.855c0,.67-.391,1.215-.874,1.215s-.872-.545-.872-1.215.391-1.215.872-1.215S243.209,124.183,243.209,124.855Z" transform="translate(-241.463 -120.027)"/>
            <path id="Trazado_139441" data-name="Trazado 139441" d="M243.209,126.611c0,.672-.391,1.217-.874,1.217s-.872-.545-.872-1.217.391-1.215.872-1.215S243.209,125.941,243.209,126.611Z" transform="translate(-241.463 -118.172)"/>
            <path id="Trazado_139442" data-name="Trazado 139442" d="M243.209,128.368c0,.672-.391,1.215-.874,1.215s-.872-.543-.872-1.215.391-1.215.872-1.215S243.209,127.7,243.209,128.368Z" transform="translate(-241.463 -116.316)"/>
            <path id="Trazado_139443" data-name="Trazado 139443" d="M243.209,130.125c0,.67-.391,1.215-.874,1.215s-.872-.545-.872-1.215.391-1.215.872-1.215S243.209,129.455,243.209,130.125Z" transform="translate(-241.463 -114.461)"/>
            <path id="Trazado_139444" data-name="Trazado 139444" d="M243.209,131.882c0,.67-.391,1.215-.874,1.215s-.872-.545-.872-1.215.391-1.215.872-1.215S243.209,131.21,243.209,131.882Z" transform="translate(-241.463 -112.605)"/>
            <path id="Trazado_139445" data-name="Trazado 139445" d="M243.209,133.639c0,.67-.391,1.215-.874,1.215s-.872-.545-.872-1.215.391-1.215.872-1.215S243.209,132.967,243.209,133.639Z" transform="translate(-241.463 -110.749)"/>
            <path id="Trazado_139446" data-name="Trazado 139446" d="M243.209,135.4c0,.672-.391,1.215-.874,1.215s-.872-.543-.872-1.215.391-1.215.872-1.215S243.209,134.725,243.209,135.4Z" transform="translate(-241.463 -108.894)"/>
          </g>
          <g id="Grupo_91228" data-name="Grupo 91228" transform="translate(14.433 11.645)">
            <path id="Trazado_139447" data-name="Trazado 139447" d="M245.082,122.661a1.215,1.215,0,1,1-1.215-1.213A1.217,1.217,0,0,1,245.082,122.661Z" transform="translate(-242.652 -121.448)"/>
            <path id="Trazado_139448" data-name="Trazado 139448" d="M245.082,124.416a1.215,1.215,0,1,1-1.215-1.215A1.215,1.215,0,0,1,245.082,124.416Z" transform="translate(-242.652 -119.596)"/>
            <path id="Trazado_139449" data-name="Trazado 139449" d="M245.082,126.17a1.215,1.215,0,1,1-1.215-1.215A1.216,1.216,0,0,1,245.082,126.17Z" transform="translate(-242.652 -117.744)"/>
            <path id="Trazado_139450" data-name="Trazado 139450" d="M245.082,127.924a1.215,1.215,0,1,1-1.215-1.215A1.216,1.216,0,0,1,245.082,127.924Z" transform="translate(-242.652 -115.891)"/>
            <path id="Trazado_139451" data-name="Trazado 139451" d="M245.082,129.677a1.215,1.215,0,1,1-1.215-1.215A1.215,1.215,0,0,1,245.082,129.677Z" transform="translate(-242.652 -114.039)"/>
            <path id="Trazado_139452" data-name="Trazado 139452" d="M245.082,131.431a1.215,1.215,0,1,1-1.215-1.215A1.216,1.216,0,0,1,245.082,131.431Z" transform="translate(-242.652 -112.187)"/>
            <path id="Trazado_139453" data-name="Trazado 139453" d="M245.082,133.185a1.215,1.215,0,1,1-1.215-1.215A1.216,1.216,0,0,1,245.082,133.185Z" transform="translate(-242.652 -110.334)"/>
            <path id="Trazado_139454" data-name="Trazado 139454" d="M245.082,134.938a1.215,1.215,0,1,1-1.215-1.215A1.215,1.215,0,0,1,245.082,134.938Z" transform="translate(-242.652 -108.482)"/>
            <path id="Trazado_139455" data-name="Trazado 139455" d="M245.082,136.692a1.215,1.215,0,1,1-1.215-1.215A1.216,1.216,0,0,1,245.082,136.692Z" transform="translate(-242.652 -106.63)"/>
          </g>
          <g id="Grupo_91229" data-name="Grupo 91229" transform="translate(17.563 14.614)">
            <path id="Trazado_139456" data-name="Trazado 139456" d="M246.6,124.107a1.215,1.215,0,1,1-1.215-1.215A1.216,1.216,0,0,1,246.6,124.107Z" transform="translate(-244.174 -122.892)"/>
            <path id="Trazado_139457" data-name="Trazado 139457" d="M246.6,125.864a1.215,1.215,0,1,1-1.215-1.215A1.216,1.216,0,0,1,246.6,125.864Z" transform="translate(-244.174 -121.036)"/>
            <path id="Trazado_139458" data-name="Trazado 139458" d="M246.6,127.621a1.215,1.215,0,1,1-1.215-1.215A1.216,1.216,0,0,1,246.6,127.621Z" transform="translate(-244.174 -119.18)"/>
            <path id="Trazado_139459" data-name="Trazado 139459" d="M246.6,129.377a1.215,1.215,0,1,1-1.215-1.215A1.215,1.215,0,0,1,246.6,129.377Z" transform="translate(-244.174 -117.325)"/>
            <path id="Trazado_139460" data-name="Trazado 139460" d="M246.6,131.134a1.215,1.215,0,1,1-1.215-1.215A1.215,1.215,0,0,1,246.6,131.134Z" transform="translate(-244.174 -115.47)"/>
            <path id="Trazado_139461" data-name="Trazado 139461" d="M246.6,132.891a1.215,1.215,0,1,1-1.215-1.215A1.216,1.216,0,0,1,246.6,132.891Z" transform="translate(-244.174 -113.614)"/>
            <path id="Trazado_139462" data-name="Trazado 139462" d="M246.6,134.648a1.215,1.215,0,1,1-1.215-1.215A1.216,1.216,0,0,1,246.6,134.648Z" transform="translate(-244.174 -111.758)"/>
            <path id="Trazado_139463" data-name="Trazado 139463" d="M246.6,136.4a1.215,1.215,0,1,1-1.215-1.215A1.215,1.215,0,0,1,246.6,136.4Z" transform="translate(-244.174 -109.903)"/>
          </g>
          <g id="Grupo_91230" data-name="Grupo 91230" transform="translate(20.692 12.858)">
            <path id="Trazado_139464" data-name="Trazado 139464" d="M248.126,123.255a1.215,1.215,0,1,1-1.215-1.217A1.216,1.216,0,0,1,248.126,123.255Z" transform="translate(-245.696 -122.038)"/>
            <path id="Trazado_139465" data-name="Trazado 139465" d="M248.126,125.007a1.215,1.215,0,1,1-1.215-1.215A1.215,1.215,0,0,1,248.126,125.007Z" transform="translate(-245.696 -120.185)"/>
            <path id="Trazado_139466" data-name="Trazado 139466" d="M248.126,126.761a1.215,1.215,0,1,1-1.215-1.215A1.216,1.216,0,0,1,248.126,126.761Z" transform="translate(-245.696 -118.333)"/>
            <path id="Trazado_139467" data-name="Trazado 139467" d="M248.126,128.515a1.215,1.215,0,1,1-1.215-1.215A1.216,1.216,0,0,1,248.126,128.515Z" transform="translate(-245.696 -116.48)"/>
            <path id="Trazado_139468" data-name="Trazado 139468" d="M248.126,130.268a1.215,1.215,0,1,1-1.215-1.215A1.215,1.215,0,0,1,248.126,130.268Z" transform="translate(-245.696 -114.628)"/>
            <path id="Trazado_139469" data-name="Trazado 139469" d="M248.126,132.022a1.215,1.215,0,1,1-1.215-1.215A1.216,1.216,0,0,1,248.126,132.022Z" transform="translate(-245.696 -112.776)"/>
            <path id="Trazado_139470" data-name="Trazado 139470" d="M248.126,133.776a1.215,1.215,0,1,1-1.215-1.215A1.216,1.216,0,0,1,248.126,133.776Z" transform="translate(-245.696 -110.923)"/>
            <path id="Trazado_139471" data-name="Trazado 139471" d="M248.126,135.529a1.215,1.215,0,1,1-1.215-1.215A1.215,1.215,0,0,1,248.126,135.529Z" transform="translate(-245.696 -109.071)"/>
            <path id="Trazado_139472" data-name="Trazado 139472" d="M248.126,137.283a1.215,1.215,0,1,1-1.215-1.215A1.215,1.215,0,0,1,248.126,137.283Z" transform="translate(-245.696 -107.219)"/>
          </g>
          <g id="Grupo_91231" data-name="Grupo 91231" transform="translate(23.822 15.288)">
            <path id="Trazado_139473" data-name="Trazado 139473" d="M249.648,124.435a1.215,1.215,0,1,1-1.215-1.215A1.215,1.215,0,0,1,249.648,124.435Z" transform="translate(-247.218 -123.22)"/>
            <path id="Trazado_139474" data-name="Trazado 139474" d="M249.648,126.192a1.215,1.215,0,1,1-1.215-1.215A1.215,1.215,0,0,1,249.648,126.192Z" transform="translate(-247.218 -121.364)"/>
            <path id="Trazado_139475" data-name="Trazado 139475" d="M249.648,127.948a1.215,1.215,0,1,1-1.215-1.215A1.214,1.214,0,0,1,249.648,127.948Z" transform="translate(-247.218 -119.509)"/>
            <path id="Trazado_139476" data-name="Trazado 139476" d="M249.648,129.705a1.215,1.215,0,1,1-1.215-1.215A1.214,1.214,0,0,1,249.648,129.705Z" transform="translate(-247.218 -117.653)"/>
            <path id="Trazado_139477" data-name="Trazado 139477" d="M249.648,131.462a1.215,1.215,0,1,1-1.215-1.215A1.215,1.215,0,0,1,249.648,131.462Z" transform="translate(-247.218 -115.798)"/>
            <path id="Trazado_139478" data-name="Trazado 139478" d="M249.648,133.219A1.215,1.215,0,1,1,248.433,132,1.215,1.215,0,0,1,249.648,133.219Z" transform="translate(-247.218 -113.942)"/>
            <path id="Trazado_139479" data-name="Trazado 139479" d="M249.648,134.975a1.215,1.215,0,1,1-1.215-1.215A1.215,1.215,0,0,1,249.648,134.975Z" transform="translate(-247.218 -112.087)"/>
            <path id="Trazado_139480" data-name="Trazado 139480" d="M249.648,136.732a1.215,1.215,0,1,1-1.215-1.215A1.214,1.214,0,0,1,249.648,136.732Z" transform="translate(-247.218 -110.231)"/>
          </g>
          <g id="Grupo_91232" data-name="Grupo 91232" transform="translate(26.951 13.532)">
            <path id="Trazado_139481" data-name="Trazado 139481" d="M251.17,123.581a1.215,1.215,0,1,1-1.215-1.215A1.214,1.214,0,0,1,251.17,123.581Z" transform="translate(-248.74 -122.366)"/>
            <path id="Trazado_139482" data-name="Trazado 139482" d="M251.17,125.335a1.215,1.215,0,1,1-1.215-1.215A1.215,1.215,0,0,1,251.17,125.335Z" transform="translate(-248.74 -120.513)"/>
            <path id="Trazado_139483" data-name="Trazado 139483" d="M251.17,127.089a1.215,1.215,0,1,1-1.215-1.215A1.215,1.215,0,0,1,251.17,127.089Z" transform="translate(-248.74 -118.661)"/>
            <path id="Trazado_139484" data-name="Trazado 139484" d="M251.17,128.842a1.215,1.215,0,1,1-1.215-1.215A1.214,1.214,0,0,1,251.17,128.842Z" transform="translate(-248.74 -116.809)"/>
            <path id="Trazado_139485" data-name="Trazado 139485" d="M251.17,130.6a1.215,1.215,0,1,1-1.215-1.215A1.214,1.214,0,0,1,251.17,130.6Z" transform="translate(-248.74 -114.956)"/>
            <path id="Trazado_139486" data-name="Trazado 139486" d="M251.17,132.35a1.215,1.215,0,1,1-1.215-1.215A1.215,1.215,0,0,1,251.17,132.35Z" transform="translate(-248.74 -113.104)"/>
            <path id="Trazado_139487" data-name="Trazado 139487" d="M251.17,134.105a1.215,1.215,0,1,1-1.215-1.217A1.215,1.215,0,0,1,251.17,134.105Z" transform="translate(-248.74 -111.252)"/>
            <path id="Trazado_139488" data-name="Trazado 139488" d="M251.17,135.857a1.215,1.215,0,1,1-1.215-1.215A1.214,1.214,0,0,1,251.17,135.857Z" transform="translate(-248.74 -109.399)"/>
            <path id="Trazado_139489" data-name="Trazado 139489" d="M251.17,137.611a1.215,1.215,0,1,1-1.215-1.215A1.215,1.215,0,0,1,251.17,137.611Z" transform="translate(-248.74 -107.547)"/>
          </g>
          <g id="Grupo_91233" data-name="Grupo 91233" transform="translate(30.082 15.288)">
            <circle id="Elipse_4406" data-name="Elipse 4406" cx="1.215" cy="1.215" r="1.215"/>
            <path id="Trazado_139490" data-name="Trazado 139490" d="M252.694,126.192a1.215,1.215,0,1,1-1.215-1.215A1.216,1.216,0,0,1,252.694,126.192Z" transform="translate(-250.262 -121.364)"/>
            <path id="Trazado_139491" data-name="Trazado 139491" d="M252.694,127.948a1.215,1.215,0,1,1-1.215-1.215A1.215,1.215,0,0,1,252.694,127.948Z" transform="translate(-250.262 -119.509)"/>
            <path id="Trazado_139492" data-name="Trazado 139492" d="M252.694,129.705a1.215,1.215,0,1,1-1.215-1.215A1.215,1.215,0,0,1,252.694,129.705Z" transform="translate(-250.262 -117.653)"/>
            <path id="Trazado_139493" data-name="Trazado 139493" d="M252.694,131.462a1.215,1.215,0,1,1-1.215-1.215A1.216,1.216,0,0,1,252.694,131.462Z" transform="translate(-250.262 -115.797)"/>
            <path id="Trazado_139494" data-name="Trazado 139494" d="M252.694,133.219A1.215,1.215,0,1,1,251.478,132,1.216,1.216,0,0,1,252.694,133.219Z" transform="translate(-250.262 -113.941)"/>
            <path id="Trazado_139495" data-name="Trazado 139495" d="M252.694,134.975a1.215,1.215,0,1,1-1.215-1.215A1.217,1.217,0,0,1,252.694,134.975Z" transform="translate(-250.262 -112.087)"/>
            <path id="Trazado_139496" data-name="Trazado 139496" d="M252.694,136.732a1.215,1.215,0,1,1-1.215-1.215A1.215,1.215,0,0,1,252.694,136.732Z" transform="translate(-250.262 -110.231)"/>
          </g>
          <g id="Grupo_91234" data-name="Grupo 91234" transform="translate(33.213 12.858)">
            <path id="Trazado_139497" data-name="Trazado 139497" d="M254.216,123.255A1.215,1.215,0,1,1,253,122.038,1.216,1.216,0,0,1,254.216,123.255Z" transform="translate(-251.785 -122.038)"/>
            <path id="Trazado_139498" data-name="Trazado 139498" d="M254.216,125.007A1.215,1.215,0,1,1,253,123.792,1.215,1.215,0,0,1,254.216,125.007Z" transform="translate(-251.785 -120.185)"/>
            <path id="Trazado_139499" data-name="Trazado 139499" d="M254.216,126.761A1.215,1.215,0,1,1,253,125.546,1.216,1.216,0,0,1,254.216,126.761Z" transform="translate(-251.785 -118.333)"/>
            <path id="Trazado_139500" data-name="Trazado 139500" d="M254.216,128.515A1.215,1.215,0,1,1,253,127.3,1.216,1.216,0,0,1,254.216,128.515Z" transform="translate(-251.785 -116.48)"/>
            <path id="Trazado_139501" data-name="Trazado 139501" d="M254.216,130.268A1.215,1.215,0,1,1,253,129.053,1.215,1.215,0,0,1,254.216,130.268Z" transform="translate(-251.785 -114.628)"/>
            <path id="Trazado_139502" data-name="Trazado 139502" d="M254.216,132.022A1.215,1.215,0,1,1,253,130.807,1.216,1.216,0,0,1,254.216,132.022Z" transform="translate(-251.785 -112.776)"/>
            <path id="Trazado_139503" data-name="Trazado 139503" d="M254.216,133.776A1.215,1.215,0,1,1,253,132.561,1.216,1.216,0,0,1,254.216,133.776Z" transform="translate(-251.785 -110.923)"/>
            <path id="Trazado_139504" data-name="Trazado 139504" d="M254.216,135.529A1.215,1.215,0,1,1,253,134.314,1.215,1.215,0,0,1,254.216,135.529Z" transform="translate(-251.785 -109.071)"/>
            <path id="Trazado_139505" data-name="Trazado 139505" d="M254.216,137.283A1.215,1.215,0,1,1,253,136.068,1.215,1.215,0,0,1,254.216,137.283Z" transform="translate(-251.785 -107.219)"/>
          </g>
          <g id="Grupo_91235" data-name="Grupo 91235" transform="translate(36.342 14.614)">
            <path id="Trazado_139506" data-name="Trazado 139506" d="M255.559,124.107a1.129,1.129,0,1,1-1.125-1.215A1.173,1.173,0,0,1,255.559,124.107Z" transform="translate(-253.307 -122.892)"/>
            <path id="Trazado_139507" data-name="Trazado 139507" d="M255.559,125.864a1.129,1.129,0,1,1-1.125-1.215A1.173,1.173,0,0,1,255.559,125.864Z" transform="translate(-253.307 -121.036)"/>
            <path id="Trazado_139508" data-name="Trazado 139508" d="M255.559,127.621a1.129,1.129,0,1,1-1.125-1.215A1.173,1.173,0,0,1,255.559,127.621Z" transform="translate(-253.307 -119.18)"/>
            <path id="Trazado_139509" data-name="Trazado 139509" d="M255.559,129.377a1.129,1.129,0,1,1-1.125-1.215A1.172,1.172,0,0,1,255.559,129.377Z" transform="translate(-253.307 -117.325)"/>
            <path id="Trazado_139510" data-name="Trazado 139510" d="M255.559,131.134a1.129,1.129,0,1,1-1.125-1.215A1.172,1.172,0,0,1,255.559,131.134Z" transform="translate(-253.307 -115.47)"/>
            <path id="Trazado_139511" data-name="Trazado 139511" d="M255.559,132.891a1.129,1.129,0,1,1-1.125-1.215A1.173,1.173,0,0,1,255.559,132.891Z" transform="translate(-253.307 -113.614)"/>
            <path id="Trazado_139512" data-name="Trazado 139512" d="M255.559,134.648a1.129,1.129,0,1,1-1.125-1.215A1.173,1.173,0,0,1,255.559,134.648Z" transform="translate(-253.307 -111.758)"/>
            <path id="Trazado_139513" data-name="Trazado 139513" d="M255.559,136.4a1.129,1.129,0,1,1-1.125-1.215A1.172,1.172,0,0,1,255.559,136.4Z" transform="translate(-253.307 -109.903)"/>
          </g>
          <g id="Grupo_91236" data-name="Grupo 91236" transform="translate(39.242 11.645)">
            <path id="Trazado_139514" data-name="Trazado 139514" d="M256.615,122.661a.978.978,0,1,1-.95-1.213A1.109,1.109,0,0,1,256.615,122.661Z" transform="translate(-254.717 -121.448)"/>
            <path id="Trazado_139515" data-name="Trazado 139515" d="M256.615,124.416a.978.978,0,1,1-.95-1.215A1.107,1.107,0,0,1,256.615,124.416Z" transform="translate(-254.717 -119.596)"/>
            <path id="Trazado_139516" data-name="Trazado 139516" d="M256.615,126.17a.978.978,0,1,1-.95-1.215A1.108,1.108,0,0,1,256.615,126.17Z" transform="translate(-254.717 -117.744)"/>
            <path id="Trazado_139517" data-name="Trazado 139517" d="M256.615,127.924a.978.978,0,1,1-.95-1.215A1.108,1.108,0,0,1,256.615,127.924Z" transform="translate(-254.717 -115.891)"/>
            <path id="Trazado_139518" data-name="Trazado 139518" d="M256.615,129.677a.978.978,0,1,1-.95-1.215A1.107,1.107,0,0,1,256.615,129.677Z" transform="translate(-254.717 -114.039)"/>
            <path id="Trazado_139519" data-name="Trazado 139519" d="M256.615,131.431a.978.978,0,1,1-.95-1.215A1.108,1.108,0,0,1,256.615,131.431Z" transform="translate(-254.717 -112.187)"/>
            <path id="Trazado_139520" data-name="Trazado 139520" d="M256.615,133.185a.978.978,0,1,1-.95-1.215A1.108,1.108,0,0,1,256.615,133.185Z" transform="translate(-254.717 -110.334)"/>
            <path id="Trazado_139521" data-name="Trazado 139521" d="M256.615,134.938a.978.978,0,1,1-.95-1.215A1.107,1.107,0,0,1,256.615,134.938Z" transform="translate(-254.717 -108.482)"/>
            <path id="Trazado_139522" data-name="Trazado 139522" d="M256.615,136.692a.978.978,0,1,1-.95-1.215A1.108,1.108,0,0,1,256.615,136.692Z" transform="translate(-254.717 -106.63)"/>
          </g>
          <g id="Grupo_91237" data-name="Grupo 91237" transform="translate(41.685 12.539)">
            <path id="Trazado_139523" data-name="Trazado 139523" d="M257.8,123.1a.977.977,0,1,1-.948-1.215A1.107,1.107,0,0,1,257.8,123.1Z" transform="translate(-255.905 -121.883)"/>
            <path id="Trazado_139524" data-name="Trazado 139524" d="M257.8,124.855a.977.977,0,1,1-.948-1.215A1.107,1.107,0,0,1,257.8,124.855Z" transform="translate(-255.905 -120.027)"/>
            <path id="Trazado_139525" data-name="Trazado 139525" d="M257.8,126.611a.977.977,0,1,1-.948-1.215A1.108,1.108,0,0,1,257.8,126.611Z" transform="translate(-255.905 -118.172)"/>
            <path id="Trazado_139526" data-name="Trazado 139526" d="M257.8,128.368a.977.977,0,1,1-.948-1.215A1.105,1.105,0,0,1,257.8,128.368Z" transform="translate(-255.905 -116.316)"/>
            <path id="Trazado_139527" data-name="Trazado 139527" d="M257.8,130.125a.977.977,0,1,1-.948-1.215A1.107,1.107,0,0,1,257.8,130.125Z" transform="translate(-255.905 -114.461)"/>
            <path id="Trazado_139528" data-name="Trazado 139528" d="M257.8,131.882a.977.977,0,1,1-.948-1.215A1.107,1.107,0,0,1,257.8,131.882Z" transform="translate(-255.905 -112.605)"/>
            <path id="Trazado_139529" data-name="Trazado 139529" d="M257.8,133.639a.977.977,0,1,1-.948-1.215A1.107,1.107,0,0,1,257.8,133.639Z" transform="translate(-255.905 -110.749)"/>
            <path id="Trazado_139530" data-name="Trazado 139530" d="M257.8,135.4a.977.977,0,1,1-.948-1.215A1.105,1.105,0,0,1,257.8,135.4Z" transform="translate(-255.905 -108.894)"/>
          </g>
          <g id="Grupo_91238" data-name="Grupo 91238" transform="translate(44.125 9.568)">
            <path id="Trazado_139531" data-name="Trazado 139531" d="M258.99,121.653a.978.978,0,1,1-.95-1.215A1.107,1.107,0,0,1,258.99,121.653Z" transform="translate(-257.092 -120.438)"/>
            <path id="Trazado_139532" data-name="Trazado 139532" d="M258.99,123.407a.978.978,0,1,1-.95-1.215A1.108,1.108,0,0,1,258.99,123.407Z" transform="translate(-257.092 -118.585)"/>
            <path id="Trazado_139533" data-name="Trazado 139533" d="M258.99,125.161a.978.978,0,1,1-.95-1.215A1.108,1.108,0,0,1,258.99,125.161Z" transform="translate(-257.092 -116.733)"/>
            <path id="Trazado_139534" data-name="Trazado 139534" d="M258.99,126.916a.979.979,0,1,1-.95-1.217A1.106,1.106,0,0,1,258.99,126.916Z" transform="translate(-257.092 -114.881)"/>
            <ellipse id="Elipse_4407" data-name="Elipse 4407" cx="0.948" cy="1.215" rx="0.948" ry="1.215" transform="translate(0.001 14.425)"/>
            <path id="Trazado_139535" data-name="Trazado 139535" d="M258.99,130.422a.978.978,0,1,1-.95-1.215A1.108,1.108,0,0,1,258.99,130.422Z" transform="translate(-257.092 -111.176)"/>
            <path id="Trazado_139536" data-name="Trazado 139536" d="M258.99,132.176a.978.978,0,1,1-.95-1.215A1.108,1.108,0,0,1,258.99,132.176Z" transform="translate(-257.092 -109.323)"/>
            <path id="Trazado_139537" data-name="Trazado 139537" d="M258.99,133.929a.978.978,0,1,1-.95-1.215A1.107,1.107,0,0,1,258.99,133.929Z" transform="translate(-257.092 -107.471)"/>
            <path id="Trazado_139538" data-name="Trazado 139538" d="M258.99,135.683a.978.978,0,1,1-.95-1.215A1.108,1.108,0,0,1,258.99,135.683Z" transform="translate(-257.092 -105.619)"/>
          </g>
          <g id="Grupo_91239" data-name="Grupo 91239" transform="translate(46.568 10.878)">
            <path id="Trazado_139539" data-name="Trazado 139539" d="M259.791,122.29c0,.67-.339,1.215-.757,1.215s-.755-.545-.755-1.215.337-1.215.755-1.215S259.791,121.618,259.791,122.29Z" transform="translate(-258.28 -121.075)"/>
            <path id="Trazado_139540" data-name="Trazado 139540" d="M259.791,124.047c0,.67-.339,1.215-.757,1.215s-.755-.545-.755-1.215.337-1.215.755-1.215S259.791,123.375,259.791,124.047Z" transform="translate(-258.28 -119.219)"/>
            <path id="Trazado_139541" data-name="Trazado 139541" d="M259.791,125.8c0,.672-.339,1.217-.757,1.217s-.755-.545-.755-1.217.337-1.215.755-1.215S259.791,125.133,259.791,125.8Z" transform="translate(-258.28 -117.364)"/>
            <path id="Trazado_139542" data-name="Trazado 139542" d="M259.791,127.56c0,.672-.339,1.215-.757,1.215s-.755-.543-.755-1.215.337-1.215.755-1.215S259.791,126.89,259.791,127.56Z" transform="translate(-258.28 -115.508)"/>
            <path id="Trazado_139543" data-name="Trazado 139543" d="M259.791,129.317c0,.67-.339,1.215-.757,1.215s-.755-.545-.755-1.215.337-1.215.755-1.215S259.791,128.647,259.791,129.317Z" transform="translate(-258.28 -113.653)"/>
            <path id="Trazado_139544" data-name="Trazado 139544" d="M259.791,131.074c0,.67-.339,1.215-.757,1.215s-.755-.545-.755-1.215.337-1.215.755-1.215S259.791,130.4,259.791,131.074Z" transform="translate(-258.28 -111.797)"/>
            <path id="Trazado_139545" data-name="Trazado 139545" d="M259.791,132.831c0,.67-.339,1.215-.757,1.215s-.755-.545-.755-1.215.337-1.215.755-1.215S259.791,132.159,259.791,132.831Z" transform="translate(-258.28 -109.941)"/>
            <path id="Trazado_139546" data-name="Trazado 139546" d="M259.791,134.587c0,.672-.339,1.215-.757,1.215s-.755-.543-.755-1.215.337-1.215.755-1.215S259.791,133.917,259.791,134.587Z" transform="translate(-258.28 -108.086)"/>
          </g>
          <g id="Grupo_91240" data-name="Grupo 91240" transform="translate(48.513 7.368)">
            <path id="Trazado_139547" data-name="Trazado 139547" d="M260.737,120.583c0,.67-.337,1.215-.755,1.215s-.757-.545-.757-1.215.339-1.215.757-1.215S260.737,119.913,260.737,120.583Z" transform="translate(-259.226 -119.368)"/>
            <path id="Trazado_139548" data-name="Trazado 139548" d="M260.737,122.337c0,.67-.337,1.215-.755,1.215s-.757-.545-.757-1.215.339-1.215.757-1.215S260.737,121.665,260.737,122.337Z" transform="translate(-259.226 -117.515)"/>
            <path id="Trazado_139549" data-name="Trazado 139549" d="M260.737,124.09c0,.672-.337,1.215-.755,1.215s-.757-.543-.757-1.215.339-1.215.757-1.215S260.737,123.42,260.737,124.09Z" transform="translate(-259.226 -115.664)"/>
            <path id="Trazado_139550" data-name="Trazado 139550" d="M260.737,125.844c0,.672-.337,1.215-.755,1.215s-.757-.543-.757-1.215.339-1.215.757-1.215S260.737,125.174,260.737,125.844Z" transform="translate(-259.226 -113.811)"/>
            <path id="Trazado_139551" data-name="Trazado 139551" d="M260.737,127.6c0,.67-.337,1.215-.755,1.215s-.757-.545-.757-1.215.339-1.215.757-1.215S260.737,126.926,260.737,127.6Z" transform="translate(-259.226 -111.958)"/>
            <path id="Trazado_139552" data-name="Trazado 139552" d="M260.737,129.351c0,.672-.337,1.215-.755,1.215s-.757-.543-.757-1.215.339-1.215.757-1.215S260.737,128.681,260.737,129.351Z" transform="translate(-259.226 -110.107)"/>
            <path id="Trazado_139553" data-name="Trazado 139553" d="M260.737,131.105c0,.672-.337,1.215-.755,1.215s-.757-.543-.757-1.215.339-1.215.757-1.215S260.737,130.435,260.737,131.105Z" transform="translate(-259.226 -108.254)"/>
            <path id="Trazado_139554" data-name="Trazado 139554" d="M260.737,132.859c0,.67-.337,1.215-.755,1.215s-.757-.545-.757-1.215.339-1.215.757-1.215S260.737,132.187,260.737,132.859Z" transform="translate(-259.226 -106.401)"/>
            <path id="Trazado_139555" data-name="Trazado 139555" d="M260.737,134.614c0,.67-.337,1.213-.755,1.213s-.757-.543-.757-1.213.339-1.217.757-1.217S260.737,133.942,260.737,134.614Z" transform="translate(-259.226 -104.55)"/>
          </g>
          <g id="Grupo_91241" data-name="Grupo 91241" transform="translate(50.461 7.906)">
            <path id="Trazado_139556" data-name="Trazado 139556" d="M261.283,120.845c0,.672-.249,1.215-.555,1.215s-.555-.543-.555-1.215.249-1.215.555-1.215S261.283,120.175,261.283,120.845Z" transform="translate(-260.173 -119.63)"/>
            <path id="Trazado_139557" data-name="Trazado 139557" d="M261.283,122.6c0,.672-.249,1.215-.555,1.215s-.555-.543-.555-1.215.249-1.215.555-1.215S261.283,121.932,261.283,122.6Z" transform="translate(-260.173 -117.774)"/>
            <path id="Trazado_139558" data-name="Trazado 139558" d="M261.283,124.359c0,.67-.249,1.215-.555,1.215s-.555-.545-.555-1.215.249-1.215.555-1.215S261.283,123.689,261.283,124.359Z" transform="translate(-260.173 -115.918)"/>
            <path id="Trazado_139559" data-name="Trazado 139559" d="M261.283,126.116c0,.67-.249,1.215-.555,1.215s-.555-.545-.555-1.215.249-1.215.555-1.215S261.283,125.444,261.283,126.116Z" transform="translate(-260.173 -114.062)"/>
            <path id="Trazado_139560" data-name="Trazado 139560" d="M261.283,127.874c0,.67-.249,1.215-.555,1.215s-.555-.545-.555-1.215.249-1.217.555-1.217S261.283,127.2,261.283,127.874Z" transform="translate(-260.173 -112.208)"/>
            <path id="Trazado_139561" data-name="Trazado 139561" d="M261.283,129.629c0,.672-.249,1.215-.555,1.215s-.555-.543-.555-1.215.249-1.215.555-1.215S261.283,128.959,261.283,129.629Z" transform="translate(-260.173 -110.352)"/>
            <path id="Trazado_139562" data-name="Trazado 139562" d="M261.283,131.386c0,.672-.249,1.215-.555,1.215s-.555-.543-.555-1.215.249-1.215.555-1.215S261.283,130.716,261.283,131.386Z" transform="translate(-260.173 -108.496)"/>
            <path id="Trazado_139563" data-name="Trazado 139563" d="M261.283,133.143c0,.67-.249,1.215-.555,1.215s-.555-.545-.555-1.215.249-1.215.555-1.215S261.283,132.471,261.283,133.143Z" transform="translate(-260.173 -106.64)"/>
          </g>
          <g id="Grupo_91242" data-name="Grupo 91242" transform="translate(51.892 5.081)">
            <path id="Trazado_139564" data-name="Trazado 139564" d="M261.979,119.471c0,.67-.249,1.215-.555,1.215s-.555-.545-.555-1.215.249-1.215.555-1.215S261.979,118.8,261.979,119.471Z" transform="translate(-260.869 -118.256)"/>
            <path id="Trazado_139565" data-name="Trazado 139565" d="M261.979,121.225c0,.67-.249,1.215-.555,1.215s-.555-.545-.555-1.215.249-1.215.555-1.215S261.979,120.553,261.979,121.225Z" transform="translate(-260.869 -116.403)"/>
            <path id="Trazado_139566" data-name="Trazado 139566" d="M261.979,122.978c0,.672-.249,1.215-.555,1.215s-.555-.543-.555-1.215.249-1.215.555-1.215S261.979,122.308,261.979,122.978Z" transform="translate(-260.869 -114.552)"/>
            <path id="Trazado_139567" data-name="Trazado 139567" d="M261.979,124.732c0,.67-.249,1.215-.555,1.215s-.555-.545-.555-1.215.249-1.215.555-1.215S261.979,124.062,261.979,124.732Z" transform="translate(-260.869 -112.699)"/>
            <path id="Trazado_139568" data-name="Trazado 139568" d="M261.979,126.486c0,.67-.249,1.215-.555,1.215s-.555-.545-.555-1.215.249-1.215.555-1.215S261.979,125.814,261.979,126.486Z" transform="translate(-260.869 -110.846)"/>
            <path id="Trazado_139569" data-name="Trazado 139569" d="M261.979,128.239c0,.672-.249,1.215-.555,1.215s-.555-.543-.555-1.215.249-1.215.555-1.215S261.979,127.569,261.979,128.239Z" transform="translate(-260.869 -108.995)"/>
            <path id="Trazado_139570" data-name="Trazado 139570" d="M261.979,129.993c0,.672-.249,1.215-.555,1.215s-.555-.543-.555-1.215.249-1.215.555-1.215S261.979,129.323,261.979,129.993Z" transform="translate(-260.869 -107.142)"/>
            <path id="Trazado_139571" data-name="Trazado 139571" d="M261.979,131.747c0,.67-.249,1.215-.555,1.215s-.555-.545-.555-1.215.249-1.215.555-1.215S261.979,131.075,261.979,131.747Z" transform="translate(-260.869 -105.289)"/>
            <path id="Trazado_139572" data-name="Trazado 139572" d="M261.979,133.5c0,.672-.249,1.215-.555,1.215s-.555-.543-.555-1.215.249-1.215.555-1.215S261.979,132.83,261.979,133.5Z" transform="translate(-260.869 -103.438)"/>
          </g>
          <g id="Grupo_91243" data-name="Grupo 91243" transform="translate(53.323 6.152)">
            <path id="Trazado_139573" data-name="Trazado 139573" d="M262.675,119.992c0,.67-.249,1.215-.555,1.215s-.555-.545-.555-1.215.249-1.215.555-1.215S262.675,119.322,262.675,119.992Z" transform="translate(-261.565 -118.777)"/>
            <path id="Trazado_139574" data-name="Trazado 139574" d="M262.675,121.749c0,.67-.249,1.215-.555,1.215s-.555-.545-.555-1.215.249-1.215.555-1.215S262.675,121.077,262.675,121.749Z" transform="translate(-261.565 -116.921)"/>
            <path id="Trazado_139575" data-name="Trazado 139575" d="M262.675,123.507c0,.67-.249,1.215-.555,1.215s-.555-.545-.555-1.215.249-1.217.555-1.217S262.675,122.835,262.675,123.507Z" transform="translate(-261.565 -115.066)"/>
            <path id="Trazado_139576" data-name="Trazado 139576" d="M262.675,125.262c0,.672-.249,1.215-.555,1.215s-.555-.543-.555-1.215.249-1.215.555-1.215S262.675,124.592,262.675,125.262Z" transform="translate(-261.565 -113.21)"/>
            <path id="Trazado_139577" data-name="Trazado 139577" d="M262.675,127.019c0,.67-.249,1.215-.555,1.215s-.555-.545-.555-1.215.249-1.215.555-1.215S262.675,126.349,262.675,127.019Z" transform="translate(-261.565 -111.355)"/>
            <path id="Trazado_139578" data-name="Trazado 139578" d="M262.675,128.776c0,.67-.249,1.215-.555,1.215s-.555-.545-.555-1.215.249-1.215.555-1.215S262.675,128.1,262.675,128.776Z" transform="translate(-261.565 -109.499)"/>
            <path id="Trazado_139579" data-name="Trazado 139579" d="M262.675,130.533c0,.67-.249,1.215-.555,1.215s-.555-.545-.555-1.215.249-1.215.555-1.215S262.675,129.861,262.675,130.533Z" transform="translate(-261.565 -107.643)"/>
            <ellipse id="Elipse_4408" data-name="Elipse 4408" cx="0.556" cy="1.215" rx="0.556" ry="1.215" transform="translate(0 25.287)"/>
          </g>
          <g id="Grupo_91244" data-name="Grupo 91244" transform="translate(54.754)">
            <path id="Trazado_139580" data-name="Trazado 139580" d="M263.371,117c0,.67-.249,1.215-.555,1.215s-.555-.545-.555-1.215.249-1.215.555-1.215S263.371,116.328,263.371,117Z" transform="translate(-262.261 -115.785)"/>
            <path id="Trazado_139581" data-name="Trazado 139581" d="M263.371,118.753c0,.672-.249,1.215-.555,1.215s-.555-.543-.555-1.215.249-1.215.555-1.215S263.371,118.083,263.371,118.753Z" transform="translate(-262.261 -113.933)"/>
            <path id="Trazado_139582" data-name="Trazado 139582" d="M263.371,120.507c0,.67-.249,1.215-.555,1.215s-.555-.545-.555-1.215.249-1.215.555-1.215S263.371,119.837,263.371,120.507Z" transform="translate(-262.261 -112.081)"/>
            <path id="Trazado_139583" data-name="Trazado 139583" d="M263.371,122.261c0,.67-.249,1.215-.555,1.215s-.555-.545-.555-1.215.249-1.215.555-1.215S263.371,121.589,263.371,122.261Z" transform="translate(-262.261 -110.228)"/>
            <ellipse id="Elipse_4409" data-name="Elipse 4409" cx="0.556" cy="1.215" rx="0.556" ry="1.215" transform="translate(0 14.423)"/>
            <path id="Trazado_139584" data-name="Trazado 139584" d="M263.371,125.768c0,.67-.249,1.215-.555,1.215s-.555-.545-.555-1.215.249-1.215.555-1.215S263.371,125.1,263.371,125.768Z" transform="translate(-262.261 -106.524)"/>
            <path id="Trazado_139585" data-name="Trazado 139585" d="M263.371,127.522c0,.67-.249,1.215-.555,1.215s-.555-.545-.555-1.215.249-1.215.555-1.215S263.371,126.85,263.371,127.522Z" transform="translate(-262.261 -104.671)"/>
            <path id="Trazado_139586" data-name="Trazado 139586" d="M263.371,129.275c0,.672-.249,1.217-.555,1.217s-.555-.545-.555-1.217.249-1.215.555-1.215S263.371,128.6,263.371,129.275Z" transform="translate(-262.261 -102.819)"/>
            <path id="Trazado_139587" data-name="Trazado 139587" d="M263.371,131.029c0,.672-.249,1.215-.555,1.215s-.555-.543-.555-1.215.249-1.215.555-1.215S263.371,130.359,263.371,131.029Z" transform="translate(-262.261 -100.967)"/>
          </g>
        </g>
      </g>
      <g id="Grupo_91249" data-name="Grupo 91249" transform="translate(288.966 139.402)">
        <path id="Trazado_139588" data-name="Trazado 139588" d="M259.95,113.427v.909l-2.661,1.62v-.911a3.31,3.31,0,0,1,1.33-2.591.822.822,0,0,1,.942-.051A1.23,1.23,0,0,1,259.95,113.427Z" transform="translate(-256.109 -112.278)" fill="#474749"/>
        <path id="Trazado_139589" data-name="Trazado 139589" d="M257.289,115.062l2.661-1.62v.732a3.3,3.3,0,0,1-1.33,2.589c-.736.448-1.33.014-1.33-.971Z" transform="translate(-256.109 -111.049)" fill="#474749"/>
        <path id="Trazado_139590" data-name="Trazado 139590" d="M257.429,114.589a.894.894,0,0,1-.358.7c-.2.119-.356,0-.356-.267a.9.9,0,0,1,.356-.7C257.268,114.2,257.429,114.32,257.429,114.589Z" transform="translate(-256.715 -110.171)" fill="#474749"/>
        <path id="Trazado_139591" data-name="Trazado 139591" d="M259.524,113.314a.9.9,0,0,1-.356.7c-.2.121-.358,0-.358-.267a.9.9,0,0,1,.358-.7C259.363,112.925,259.524,113.045,259.524,113.314Z" transform="translate(-254.502 -111.518)" fill="#474749"/>
        <path id="Trazado_139592" data-name="Trazado 139592" d="M258.382,117.245l-.59.359v-2l.59-.359Z" transform="translate(-255.577 -109.145)" fill="#474749"/>
        <path id="Trazado_139593" data-name="Trazado 139593" d="M259.178,115.919v.874l-1.641,1v-.874Z" transform="translate(-255.847 -108.433)" fill="#474749"/>
        <g id="Grupo_91247" data-name="Grupo 91247" transform="translate(0.168 4.541)">
          <path id="Trazado_139594" data-name="Trazado 139594" d="M259.139,116.589c-.751.456-1.337.514-1.744.171-.674-.568-.6-2.025-.594-2.087l.368-.185c0,.014-.068,1.3.5,1.777.335.28.831.224,1.472-.167Z" transform="translate(-256.797 -114.487)" fill="#474749"/>
        </g>
        <g id="Grupo_91248" data-name="Grupo 91248" transform="translate(2.511 1.881)">
          <path id="Trazado_139595" data-name="Trazado 139595" d="M257.936,117.955v-.491a3.845,3.845,0,0,0,1.474-1.629,5.37,5.37,0,0,0,.5-2.379l.366-.263A6.175,6.175,0,0,1,259.68,116,4.563,4.563,0,0,1,257.936,117.955Z" transform="translate(-257.936 -113.193)" fill="#474749"/>
        </g>
      </g>
    </g>
  </g>
</svg>
