<svg xmlns="http://www.w3.org/2000/svg" xmlns:xlink="http://www.w3.org/1999/xlink" width="156.75" height="154.499" viewBox="0 0 156.75 154.499">
  <defs>
    <clipPath id="clip-path">
      <path id="Trazado_140125" data-name="Trazado 140125" d="M222.052,301.912c3.071-2.249,5.195-6.661,4.743-9.854s-3.316-3.961-6.389-1.711-5.2,6.661-4.745,9.851S218.976,304.161,222.052,301.912Z" transform="translate(-215.6 -289.057)" fill="none"/>
    </clipPath>
    <clipPath id="clip-path-2">
      <path id="Trazado_140149" data-name="Trazado 140149" d="M249.453,286.078c3.073-2.249,5.2-6.661,4.741-9.856s-3.313-3.958-6.387-1.709-5.2,6.659-4.745,9.854S246.377,288.325,249.453,286.078Z" transform="translate(-243.001 -273.221)" fill="none"/>
    </clipPath>
    <linearGradient id="linear-gradient" x1="-93.3" y1="1.217" x2="-94.193" y2="-0.007" gradientUnits="objectBoundingBox">
      <stop offset="0.084" stop-color="#597e90"/>
      <stop offset="0.424" stop-color="#4c6875"/>
      <stop offset="0.941" stop-color="#3c4b52"/>
    </linearGradient>
    <linearGradient id="linear-gradient-2" x1="-34.736" y1="0.837" x2="-35.062" y2="0.055" xlink:href="#linear-gradient"/>
    <linearGradient id="linear-gradient-3" x1="-66.909" y1="1.039" x2="-66.901" y2="0.024" gradientUnits="objectBoundingBox">
      <stop offset="0" stop-color="#92c6b9"/>
      <stop offset="0.941" stop-color="#6f797b"/>
    </linearGradient>
    <linearGradient id="linear-gradient-4" x1="-28.756" y1="0.649" x2="-28.577" y2="0.316" gradientUnits="objectBoundingBox">
      <stop offset="0.084" stop-color="#305f76"/>
      <stop offset="0.439" stop-color="#284859"/>
      <stop offset="0.941" stop-color="#1f2b36"/>
    </linearGradient>
    <linearGradient id="linear-gradient-5" x1="-32.763" y1="-0.409" x2="-32.616" y2="1.183" gradientUnits="objectBoundingBox">
      <stop offset="0.084" stop-color="#5aa6c9"/>
      <stop offset="0.338" stop-color="#3d748e"/>
      <stop offset="0.753" stop-color="#112733"/>
      <stop offset="0.941" stop-color="#00090f"/>
    </linearGradient>
    <linearGradient id="linear-gradient-6" x1="-45.063" y1="-0.257" x2="-44.66" y2="0.892" gradientUnits="objectBoundingBox">
      <stop offset="0.059" stop-color="#5aa4c7"/>
      <stop offset="0.584" stop-color="#578aa3"/>
      <stop offset="0.916" stop-color="#55788a"/>
    </linearGradient>
  </defs>
  <g id="_5" data-name="5" transform="translate(-458 -2773.75)">
    <path id="Trazado_140094" data-name="Trazado 140094" d="M428.7,0h77.251V77.25A77.25,77.25,0,0,1,428.7,154.5h0a77.25,77.25,0,0,1-77.25-77.25h0A77.25,77.25,0,0,1,428.7,0Z" transform="translate(108.801 2773.75)" fill="#8cf8fe"/>
    <g id="Grupo_91379" data-name="Grupo 91379" transform="translate(264.486 2550.261)">
      <path id="Trazado_140096" data-name="Trazado 140096" d="M290.4,266.162l-94.764,53.981a4.206,4.206,0,0,0-.028,7.292l29.156,16.9a12.553,12.553,0,0,0,12.55.028l94.45-54.221Z" transform="translate(0 16.008)" fill="#c7c7c7" style="mix-blend-mode: multiply;isolation: isolate"/>
      <g id="Grupo_91378" data-name="Grupo 91378" transform="translate(194.935 254.111)">
        <path id="Trazado_140097" data-name="Trazado 140097" d="M241.538,309.213l-34.156-22.272-.275-9.472,34.157,22.272,2.13,5.691Z" transform="translate(-176.879 -223.083)" fill="#4d5166"/>
        <path id="Trazado_140098" data-name="Trazado 140098" d="M268.833,293.415l-34.121-22.242-.275-9.472,34.157,22.27,2.128,5.693Z" transform="translate(-140.574 -244.029)" fill="#4d5166"/>
        <path id="Trazado_140099" data-name="Trazado 140099" d="M210.943,275.493s1.877-2.3-.5-5.812c-2.028-3-3.558-2.014-3.558-2.014a3.319,3.319,0,0,0-.815,4.438c.959,1.8,1.9,4.235,2.556,4.233s1.015,2.193,1.015,2.193l1.912-1.986Z" transform="translate(-178.937 -236.309)" fill="#acb3b9"/>
        <path id="Trazado_140100" data-name="Trazado 140100" d="M194.265,307.557c.314.214,1.791-.133,3.6-.685,2.13-.638,32.865,7.232,34.534,6.622,1.008-.368-7.292-19.928-7.912-20.124l16.671-9.625L222.585,273.02l.244-.414-8.4,4.966c-6.284,3.637-16.233,13.09-18.739,14.576l-.009.009c-.03.112-.314.868-.652,1.814-.214.643-.456,1.364-.673,2.037l.126,4.2.009.063v.009l.04,1.567Z" transform="translate(-193.937 -229.543)" fill="#fff"/>
        <path id="Trazado_140101" data-name="Trazado 140101" d="M206.673,297.174l24.064-14.25L256,254.665l1.737-.554,16.992,1.786,2.282-.368,1.292.114a19.361,19.361,0,0,1,2.27.324,1.053,1.053,0,0,0,.393.449c6.037,3.874,12.892,5.8,19.069,9.316a108.516,108.516,0,0,1,14.368,10.156l-1.066.631h-.012s-2.1,1.956-7.3,1.5c-9.2-.813-24.143-4.012-26.038-2-1.618,1.721-8.168,5.234-8.168,5.234a14.665,14.665,0,0,0,.338-2.994c0-5.986-4.268-8.38-9.544-5.346s-9.542,10.345-9.542,16.333a9.592,9.592,0,0,0,.345,2.638l-3.574,2.068L225,308.313l-18.576-10.724Z" transform="translate(-177.78 -254.111)" fill="#c2c8cd"/>
        <path id="Trazado_140102" data-name="Trazado 140102" d="M236.254,255.225s11.6,5.153,17.994,8.841c11.174,6.426,15.623,12.333,15.623,12.333l3.839-.938h.012l2.065-1.222-.722-.468-.549-.317s-10.664-8.219-14.278-10.212c-10.4-5.735-15.062-6.731-15.062-6.731a13.313,13.313,0,0,0-1.343-.685l-1.183.1-4.5-1.02Z" transform="translate(-138.16 -253.052)" fill="#f9fbff"/>
        <path id="Trazado_140103" data-name="Trazado 140103" d="M231.166,312.877l-16.882-.712L196.143,300.3l-1.271-8.382,26.9-19.139,36.073,20.83Z" transform="translate(-193.131 -229.307)" fill="#eff1f7"/>
        <path id="Trazado_140104" data-name="Trazado 140104" d="M204.8,299.169l39.866-17.439L218.5,299.772Z" transform="translate(-179.946 -217.423)" fill="#f9fbff"/>
        <path id="Trazado_140105" data-name="Trazado 140105" d="M194.877,291.913l26.892-19.13,0,0h0l-24.792,25.485Z" transform="translate(-193.124 -229.307)" fill="#f9fbff"/>
        <path id="Trazado_140106" data-name="Trazado 140106" d="M194.151,285.894a8.237,8.237,0,0,0,.48,2.131.675.675,0,0,0,.04.114,26.586,26.586,0,0,0,3.348,6.545,24.811,24.811,0,0,0,6.063,6.124c6.526,4.552,24.653,7.362,24.653,7.362l.163-4.419-.335-1.295c-3.555-1.171-19.023-6.375-23.842-9.7-.109-.072-.212-.154-.324-.235a29.62,29.62,0,0,1-5.074-4.531,28.082,28.082,0,0,1-3.2-4.361l-.061-.028-.887-1.814c-.214.643-.456,1.364-.673,2.037-.121.4-.233.773-.314,1.1Z" transform="translate(-194.088 -217.354)" fill="#c2c8cd"/>
        <path id="Trazado_140107" data-name="Trazado 140107" d="M213.972,263.32c1.118-.957,2.293-1.9,3.5-2.85C216.265,261.4,215.09,262.363,213.972,263.32Z" transform="translate(-167.759 -245.664)" fill="#ffb900"/>
        <g id="Grupo_91359" data-name="Grupo 91359" transform="translate(40.408 73.515)">
          <path id="Trazado_140108" data-name="Trazado 140108" d="M220.446,311.26l12.662-21.237-6.62-3.821-.012.019c-1.59-.866-3.772-.712-6.184.675-4.866,2.806-8.813,9.56-8.813,15.09,0,2.652.915,4.529,2.394,5.467l0,.012.133.072a.993.993,0,0,0,.107.063Z" transform="translate(-211.479 -285.685)"/>
          <path id="Trazado_140109" data-name="Trazado 140109" d="M230.823,291.076l-8.978-5.183a10.143,10.143,0,0,0-1.553.726c-4.866,2.806-8.813,9.56-8.813,15.09a8.847,8.847,0,0,0,.387,2.7l6.911,3.991a10.8,10.8,0,0,0,2.356-1.018,15.467,15.467,0,0,0,2.6-1.907l6.652-11.153A15.769,15.769,0,0,0,230.823,291.076Z" transform="translate(-211.479 -285.408)" fill="#1f1f1f"/>
          <path id="Trazado_140110" data-name="Trazado 140110" d="M231.861,293.423c0,5.53-3.947,12.284-8.813,15.088s-8.815.6-8.815-4.936,3.947-12.282,8.815-15.088S231.861,287.9,231.861,293.423Z" transform="translate(-207.821 -283.576)" fill="#2a2a2a"/>
          <path id="Trazado_140111" data-name="Trazado 140111" d="M231.323,293.373c0,5.316-3.793,11.807-8.471,14.5s-8.473.57-8.473-4.745,3.8-11.809,8.473-14.5S231.323,288.055,231.323,293.373Z" transform="translate(-207.625 -283.328)" fill="#1d1d1d"/>
          <path id="Trazado_140112" data-name="Trazado 140112" d="M228.349,293.086a14.4,14.4,0,0,1-6.578,11.262c-3.635,2.093-6.578.442-6.578-3.686a14.391,14.391,0,0,1,6.578-11.26C225.4,287.31,228.349,288.96,228.349,293.086Z" transform="translate(-206.544 -281.951)" fill="#181818"/>
          <path id="Trazado_140113" data-name="Trazado 140113" d="M218.665,299.99c3.073-2.252,5.2-6.661,4.745-9.856a4.709,4.709,0,0,0-.268-1.05c1.788-.2,3.16.843,3.465,2.971.452,3.192-1.672,7.6-4.743,9.854-2.7,1.977-5.239,1.623-6.124-.661A6.24,6.24,0,0,0,218.665,299.99Z" transform="translate(-205.818 -281.202)" fill="#5c6363"/>
          <g id="Grupo_91358" data-name="Grupo 91358" transform="translate(8.658 6.676)">
            <g id="Grupo_91357" data-name="Grupo 91357" transform="translate(0.937 1.176)">
              <g id="Grupo_91356" data-name="Grupo 91356" clip-path="url(#clip-path)">
                <g id="Grupo_91355" data-name="Grupo 91355" transform="translate(-1.338 -0.055)">
                  <path id="Trazado_140114" data-name="Trazado 140114" d="M217.034,302.375l1.8-5.383-3.786,2.151a8.447,8.447,0,0,1,.34-2.9L219,294.188l-.477-3.344a10.648,10.648,0,0,1,1.283-1.134,8.33,8.33,0,0,1,1.094-.678l.487,3.409,3.69-3.327a3.481,3.481,0,0,1,1.036,1.893l-3.867,3.488,2.959,2.068a13.239,13.239,0,0,1-1.788,2.824L220.8,297.56l-1.625,4.857A3.51,3.51,0,0,1,217.034,302.375Z" transform="translate(-215.025 -289.033)" fill="#5c6363"/>
                  <path id="Trazado_140115" data-name="Trazado 140115" d="M220.9,297.6l2.678,1.867a13.194,13.194,0,0,0,1.751-2.773l-3.018-2.1,3.965-3.576a3.524,3.524,0,0,0-1.006-1.865l-3.8,3.423-.505-3.539a8.865,8.865,0,0,0-1.08.673,10.764,10.764,0,0,0-1.248,1.1l.5,3.478-3.746,2.13a8.543,8.543,0,0,0-.326,2.838l3.912-2.224-1.842,5.518a3.556,3.556,0,0,0,2.1.028Z" transform="translate(-214.988 -289.033)" fill="#676e6e"/>
                  <path id="Trazado_140116" data-name="Trazado 140116" d="M221.012,297.639l2.736,1.907a13.493,13.493,0,0,0,1.718-2.715l-3.076-2.149,4.056-3.658a3.555,3.555,0,0,0-.973-1.842l-3.9,3.518-.522-3.667a8.145,8.145,0,0,0-1.069.668,10.363,10.363,0,0,0-1.218,1.062l.515,3.614-3.877,2.2a8.449,8.449,0,0,0-.307,2.775l4.035-2.293-1.886,5.649a3.625,3.625,0,0,0,2.065.019Z" transform="translate(-214.952 -289.033)" fill="#72797a"/>
                  <path id="Trazado_140117" data-name="Trazado 140117" d="M221.119,297.678l2.792,1.947a13.387,13.387,0,0,0,1.686-2.661l-3.136-2.189,4.154-3.744a3.61,3.61,0,0,0-.941-1.811l-4,3.609-.538-3.8a8.68,8.68,0,0,0-1.059.661,10.742,10.742,0,0,0-1.18,1.029l.533,3.746-4.009,2.279a8.431,8.431,0,0,0-.289,2.715l4.156-2.363-1.93,5.777a3.614,3.614,0,0,0,2.03.007Z" transform="translate(-214.914 -289.033)" fill="#7e8585"/>
                  <path id="Trazado_140118" data-name="Trazado 140118" d="M221.23,297.718l2.845,1.988a13.553,13.553,0,0,0,1.653-2.608l-3.192-2.231,4.245-3.83a3.627,3.627,0,0,0-.908-1.784l-4.107,3.7-.556-3.921a8.616,8.616,0,0,0-1.046.654,10.573,10.573,0,0,0-1.15,1l.552,3.879-4.142,2.356a8.478,8.478,0,0,0-.27,2.652l4.282-2.435-1.972,5.912a3.69,3.69,0,0,0,1.988,0Z" transform="translate(-214.878 -289.033)" fill="#899091"/>
                  <path id="Trazado_140119" data-name="Trazado 140119" d="M221.335,297.755l2.906,2.028a13.709,13.709,0,0,0,1.618-2.552l-3.253-2.268,4.342-3.916a3.741,3.741,0,0,0-.878-1.76l-4.21,3.8-.575-4.049a8.575,8.575,0,0,0-1.036.65,10.752,10.752,0,0,0-1.115.959l.573,4.016-4.275,2.428a8.481,8.481,0,0,0-.254,2.589l4.408-2.505-2.019,6.042a3.725,3.725,0,0,0,1.951-.016Z" transform="translate(-214.842 -289.033)" fill="#949b9c"/>
                  <path id="Trazado_140120" data-name="Trazado 140120" d="M221.445,297.795l2.962,2.068a13.9,13.9,0,0,0,1.583-2.5l-3.311-2.31,4.438-4a3.83,3.83,0,0,0-.845-1.732l-4.314,3.888-.6-4.177a9.1,9.1,0,0,0-1.02.645,10.282,10.282,0,0,0-1.083.924l.591,4.149-4.408,2.5a8.51,8.51,0,0,0-.235,2.529l4.529-2.575-2.061,6.173a3.792,3.792,0,0,0,1.914-.026Z" transform="translate(-214.805 -289.033)" fill="#9fa6a7"/>
                  <path id="Trazado_140121" data-name="Trazado 140121" d="M221.553,297.837l3.018,2.1a13.889,13.889,0,0,0,1.551-2.44l-3.367-2.349,4.531-4.086a3.931,3.931,0,0,0-.815-1.707l-4.419,3.981-.61-4.305a9.176,9.176,0,0,0-1.01.638,11.259,11.259,0,0,0-1.05.889l.61,4.284-4.538,2.582a8.647,8.647,0,0,0-.219,2.461l4.654-2.645-2.107,6.305a3.926,3.926,0,0,0,1.877-.035Z" transform="translate(-214.769 -289.033)" fill="#aab1b3"/>
                  <path id="Trazado_140122" data-name="Trazado 140122" d="M221.663,297.874l3.073,2.147a14.383,14.383,0,0,0,1.516-2.387l-3.425-2.391,4.624-4.17a3.977,3.977,0,0,0-.785-1.683l-4.517,4.077-.633-4.433a9.7,9.7,0,0,0-1,.633,10.746,10.746,0,0,0-1.015.855l.626,4.419-4.668,2.657a8.613,8.613,0,0,0-.2,2.4l4.778-2.72-2.149,6.438a3.95,3.95,0,0,0,1.837-.049Z" transform="translate(-214.732 -289.033)" fill="#b6bdbe"/>
                  <path id="Trazado_140123" data-name="Trazado 140123" d="M221.771,297.913,224.9,300.1a14.232,14.232,0,0,0,1.479-2.333l-3.481-2.431,4.72-4.254a4.084,4.084,0,0,0-.754-1.655l-4.622,4.17-.647-4.561a9.187,9.187,0,0,0-.987.629,11.1,11.1,0,0,0-.983.82l.647,4.552-4.8,2.729a8.887,8.887,0,0,0-.182,2.34l4.9-2.785L218,303.883a4.124,4.124,0,0,0,1.8-.058Z" transform="translate(-214.696 -289.033)" fill="#c1c8ca"/>
                  <path id="Trazado_140124" data-name="Trazado 140124" d="M221.881,297.953l3.188,2.224a14.838,14.838,0,0,0,1.446-2.275l-3.541-2.473,4.813-4.34a4.268,4.268,0,0,0-.719-1.63l-4.727,4.261-.668-4.687a9.843,9.843,0,0,0-.971.622,11.082,11.082,0,0,0-.952.785l.666,4.687-4.934,2.806a8.966,8.966,0,0,0-.163,2.275l5.025-2.855-2.235,6.7a4.2,4.2,0,0,0,1.758-.07Z" transform="translate(-214.659 -289.033)" fill="#ccd3d5"/>
                </g>
              </g>
            </g>
            <path id="Trazado_140126" data-name="Trazado 140126" d="M215.269,301.549c.531,3.725,3.867,4.617,7.455,1.993s6.061-7.767,5.53-11.49-3.865-4.617-7.453-2S214.74,297.824,215.269,301.549Zm.927-.68c-.454-3.19,1.669-7.6,4.745-9.851s5.935-1.483,6.389,1.711-1.672,7.6-4.743,9.854S216.649,304.064,216.2,300.869Z" transform="translate(-215.197 -288.552)" fill="#91a0a5"/>
            <path id="Trazado_140127" data-name="Trazado 140127" d="M216.772,296.373c.242,1.688,1.753,2.093,3.376.906a6.214,6.214,0,0,0,2.5-5.2c-.237-1.686-1.751-2.091-3.374-.9A6.206,6.206,0,0,0,216.772,296.373Z" transform="translate(-213.148 -285.977)" fill="#91a0a5"/>
            <path id="Trazado_140128" data-name="Trazado 140128" d="M217.358,294.362c.13.892.929,1.106,1.788.475a3.287,3.287,0,0,0,1.325-2.752c-.128-.892-.927-1.108-1.786-.48A3.3,3.3,0,0,0,217.358,294.362Z" transform="translate(-212.35 -284.974)" fill="#4d4d4d"/>
            <path id="Trazado_140129" data-name="Trazado 140129" d="M217.78,292.914c.044.324.333.4.643.172a1.189,1.189,0,0,0,.482-.994c-.047-.324-.335-.4-.647-.175A1.185,1.185,0,0,0,217.78,292.914Z" transform="translate(-211.776 -284.254)" fill="#ccd3d5"/>
          </g>
          <path id="Trazado_140130" data-name="Trazado 140130" d="M219.294,310.587l-3.879-2.24c-.035-.016-.07-.04-.107-.061l-.13-.075,0-.009c-1.481-.941-2.394-2.817-2.394-5.467,0-5.532,3.944-12.287,8.811-15.088,2.412-1.392,4.6-1.546,6.186-.68l.007-.014-.433-.249-.012.016c-1.59-.866-3.772-.71-6.184.68-4.869,2.8-8.815,9.556-8.815,15.088,0,2.652.915,4.529,2.4,5.465l0,.009.128.077c.035.019.074.042.109.063l4.312,2.489Z" transform="translate(-210.325 -285.019)"/>
          <path id="Trazado_140131" data-name="Trazado 140131" d="M218.167,309.939l-1.9-1.1c-.037-.019-.074-.042-.112-.065l-.13-.074.007-.009c-1.483-.936-2.4-2.813-2.4-5.465,0-5.532,3.947-12.287,8.813-15.09,2.412-1.388,4.594-1.544,6.186-.678l.007-.014-.435-.251-.012.019c-1.59-.866-3.774-.71-6.184.677-4.869,2.8-8.815,9.558-8.815,15.088,0,2.652.917,4.531,2.4,5.467l-.007.009.133.077.107.063,2.338,1.348Z" transform="translate(-209.198 -284.368)"/>
        </g>
        <g id="Grupo_91364" data-name="Grupo 91364" transform="translate(104.208 36.645)">
          <path id="Trazado_140132" data-name="Trazado 140132" d="M247.844,295.423l12.662-21.237-6.615-3.821-.012.019c-1.59-.864-3.774-.71-6.186.68-4.866,2.8-8.813,9.558-8.813,15.088,0,2.65.915,4.529,2.4,5.467l0,.009.13.074.107.063Z" transform="translate(-238.88 -269.85)"/>
          <path id="Trazado_140133" data-name="Trazado 140133" d="M258.224,275.24l-8.976-5.183a10.43,10.43,0,0,0-1.555.731c-4.866,2.8-8.813,9.558-8.813,15.088a8.8,8.8,0,0,0,.389,2.7l6.906,3.986a10.791,10.791,0,0,0,2.359-1.013,16.111,16.111,0,0,0,2.6-1.907l6.647-11.157A15.6,15.6,0,0,0,258.224,275.24Z" transform="translate(-238.88 -269.574)" fill="#1f1f1f"/>
          <path id="Trazado_140134" data-name="Trazado 140134" d="M259.258,277.589c0,5.53-3.944,12.284-8.811,15.09s-8.813.591-8.813-4.938,3.947-12.284,8.813-15.088S259.258,272.059,259.258,277.589Z" transform="translate(-235.22 -267.741)" fill="#2a2a2a"/>
          <path id="Trazado_140135" data-name="Trazado 140135" d="M258.727,277.536c0,5.316-3.8,11.809-8.473,14.506s-8.473.57-8.473-4.745,3.793-11.809,8.473-14.5S258.727,272.223,258.727,277.536Z" transform="translate(-235.026 -267.493)" fill="#1d1d1d"/>
          <path id="Trazado_140136" data-name="Trazado 140136" d="M255.752,277.249a14.394,14.394,0,0,1-6.578,11.262c-3.635,2.093-6.58.445-6.58-3.681a14.394,14.394,0,0,1,6.58-11.262C252.806,271.475,255.752,273.123,255.752,277.249Z" transform="translate(-233.946 -266.116)" fill="#181818"/>
          <path id="Trazado_140137" data-name="Trazado 140137" d="M246.069,284.152c3.073-2.249,5.2-6.659,4.745-9.854a4.939,4.939,0,0,0-.27-1.05c1.788-.2,3.162.841,3.462,2.969.456,3.194-1.667,7.607-4.741,9.856-2.7,1.974-5.239,1.62-6.124-.664A6.233,6.233,0,0,0,246.069,284.152Z" transform="translate(-233.219 -265.366)" fill="#5c6363"/>
          <g id="Grupo_91363" data-name="Grupo 91363" transform="translate(8.66 6.674)">
            <g id="Grupo_91362" data-name="Grupo 91362" transform="translate(0.935 1.177)">
              <g id="Grupo_91361" data-name="Grupo 91361" clip-path="url(#clip-path-2)">
                <g id="Grupo_91360" data-name="Grupo 91360" transform="translate(-1.337 -0.054)">
                  <path id="Trazado_140138" data-name="Trazado 140138" d="M244.432,286.542l1.8-5.385-3.788,2.154a8.5,8.5,0,0,1,.342-2.9l3.616-2.056-.477-3.344a10.083,10.083,0,0,1,1.283-1.132,7.624,7.624,0,0,1,1.094-.68l.482,3.411,3.693-3.33a3.48,3.48,0,0,1,1.036,1.891l-3.867,3.488,2.962,2.068a13.2,13.2,0,0,1-1.79,2.827l-2.622-1.828-1.621,4.857A3.525,3.525,0,0,1,244.432,286.542Z" transform="translate(-242.427 -273.198)" fill="#5c6363"/>
                  <path id="Trazado_140139" data-name="Trazado 140139" d="M248.305,281.764l2.678,1.867a13.175,13.175,0,0,0,1.753-2.773l-3.018-2.1,3.963-3.574a3.53,3.53,0,0,0-1-1.867l-3.8,3.425-.5-3.539a8.5,8.5,0,0,0-1.083.671,11.029,11.029,0,0,0-1.25,1.1l.5,3.476-3.744,2.13a8.482,8.482,0,0,0-.326,2.838l3.914-2.224-1.844,5.516a3.574,3.574,0,0,0,2.1.03Z" transform="translate(-242.391 -273.198)" fill="#676e6e"/>
                  <path id="Trazado_140140" data-name="Trazado 140140" d="M248.413,281.8l2.736,1.909a13.382,13.382,0,0,0,1.718-2.717l-3.078-2.147,4.061-3.66a3.548,3.548,0,0,0-.973-1.837l-3.9,3.516-.522-3.667a8.018,8.018,0,0,0-1.069.666,10.588,10.588,0,0,0-1.218,1.064l.515,3.614-3.877,2.2a8.439,8.439,0,0,0-.307,2.773l4.035-2.291-1.886,5.649a3.586,3.586,0,0,0,2.065.016Z" transform="translate(-242.354 -273.198)" fill="#72797a"/>
                  <path id="Trazado_140141" data-name="Trazado 140141" d="M248.52,281.841l2.792,1.947A13.325,13.325,0,0,0,253,281.126l-3.136-2.189,4.152-3.744a3.6,3.6,0,0,0-.941-1.809l-4,3.607-.54-3.793a8.088,8.088,0,0,0-1.057.664,10.063,10.063,0,0,0-1.183,1.025l.533,3.749-4.009,2.28a8.364,8.364,0,0,0-.289,2.715l4.158-2.366-1.93,5.779a3.639,3.639,0,0,0,2.026.007Z" transform="translate(-242.317 -273.198)" fill="#7e8585"/>
                  <path id="Trazado_140142" data-name="Trazado 140142" d="M248.63,281.88l2.848,1.988a13.818,13.818,0,0,0,1.651-2.608l-3.194-2.228,4.249-3.83a3.716,3.716,0,0,0-.908-1.786l-4.11,3.7-.556-3.923a8.7,8.7,0,0,0-1.048.654,11.268,11.268,0,0,0-1.148.994l.552,3.884-4.14,2.352a8.559,8.559,0,0,0-.272,2.652l4.284-2.435-1.977,5.912a3.675,3.675,0,0,0,1.991,0Z" transform="translate(-242.28 -273.198)" fill="#899091"/>
                  <path id="Trazado_140143" data-name="Trazado 140143" d="M248.738,281.92l2.906,2.028a13.717,13.717,0,0,0,1.616-2.554l-3.25-2.268,4.34-3.914a3.739,3.739,0,0,0-.875-1.76l-4.21,3.8-.577-4.049a8.556,8.556,0,0,0-1.034.65,10.263,10.263,0,0,0-1.115.959l.57,4.016-4.275,2.428a8.475,8.475,0,0,0-.251,2.589l4.4-2.505-2.016,6.042a3.774,3.774,0,0,0,1.951-.014Z" transform="translate(-242.243 -273.198)" fill="#949b9c"/>
                  <path id="Trazado_140144" data-name="Trazado 140144" d="M248.848,281.962l2.962,2.063a13.873,13.873,0,0,0,1.581-2.5l-3.309-2.31,4.436-4a3.785,3.785,0,0,0-.848-1.735l-4.312,3.888-.594-4.177a8.492,8.492,0,0,0-1.022.645,10.515,10.515,0,0,0-1.083.924l.591,4.149-4.408,2.505a8.55,8.55,0,0,0-.235,2.526l4.529-2.577-2.061,6.172a3.763,3.763,0,0,0,1.914-.023Z" transform="translate(-242.207 -273.198)" fill="#9fa6a7"/>
                  <path id="Trazado_140145" data-name="Trazado 140145" d="M248.956,282l3.018,2.1a13.943,13.943,0,0,0,1.548-2.442l-3.369-2.349,4.531-4.082a3.849,3.849,0,0,0-.815-1.711l-4.415,3.984-.612-4.305a8.827,8.827,0,0,0-1.01.638,10.587,10.587,0,0,0-1.05.892l.61,4.284-4.538,2.578a8.583,8.583,0,0,0-.217,2.463l4.652-2.645-2.1,6.305a3.914,3.914,0,0,0,1.874-.035Z" transform="translate(-242.17 -273.198)" fill="#aab1b3"/>
                  <path id="Trazado_140146" data-name="Trazado 140146" d="M249.066,282.039l3.073,2.144a14.323,14.323,0,0,0,1.513-2.387l-3.425-2.391,4.624-4.168a3.993,3.993,0,0,0-.785-1.683l-4.519,4.075-.629-4.431a9.324,9.324,0,0,0-1,.631,11.019,11.019,0,0,0-1.015.857l.629,4.419-4.668,2.654a8.625,8.625,0,0,0-.2,2.4l4.778-2.715-2.149,6.433a3.907,3.907,0,0,0,1.835-.047Z" transform="translate(-242.134 -273.198)" fill="#b6bdbe"/>
                  <path id="Trazado_140147" data-name="Trazado 140147" d="M249.172,282.078l3.132,2.184a14.455,14.455,0,0,0,1.481-2.333L250.3,279.5l4.72-4.252a4.086,4.086,0,0,0-.752-1.655l-4.624,4.165-.65-4.559a9.607,9.607,0,0,0-.985.626,11.572,11.572,0,0,0-.983.82l.65,4.554-4.8,2.729a8.881,8.881,0,0,0-.184,2.338l4.9-2.785-2.191,6.568a4.089,4.089,0,0,0,1.8-.058Z" transform="translate(-242.097 -273.198)" fill="#c1c8ca"/>
                  <path id="Trazado_140148" data-name="Trazado 140148" d="M249.282,282.116l3.185,2.224a14.734,14.734,0,0,0,1.448-2.275l-3.541-2.47,4.815-4.34a4.274,4.274,0,0,0-.722-1.63l-4.729,4.261-.666-4.687a9.562,9.562,0,0,0-.973.622,11.4,11.4,0,0,0-.948.785l.666,4.689-4.934,2.8a8.865,8.865,0,0,0-.165,2.275l5.025-2.857-2.235,6.7a4.169,4.169,0,0,0,1.76-.07Z" transform="translate(-242.061 -273.198)" fill="#ccd3d5"/>
                </g>
              </g>
            </g>
            <path id="Trazado_140150" data-name="Trazado 140150" d="M242.671,285.713c.531,3.725,3.865,4.619,7.451,2s6.063-7.765,5.535-11.49-3.867-4.62-7.453-2S242.14,281.99,242.671,285.713Zm.924-.675c-.454-3.195,1.669-7.607,4.745-9.854s5.935-1.486,6.387,1.709-1.667,7.607-4.741,9.856S244.052,288.23,243.6,285.038Z" transform="translate(-242.599 -272.716)" fill="#91a0a5"/>
            <path id="Trazado_140151" data-name="Trazado 140151" d="M244.174,280.539c.24,1.688,1.749,2.091,3.371.9a6.213,6.213,0,0,0,2.508-5.2c-.24-1.686-1.751-2.089-3.374-.9A6.21,6.21,0,0,0,244.174,280.539Z" transform="translate(-240.55 -270.14)" fill="#91a0a5"/>
            <path id="Trazado_140152" data-name="Trazado 140152" d="M244.76,278.525c.126.892.927,1.106,1.786.477a3.282,3.282,0,0,0,1.325-2.755c-.128-.892-.927-1.106-1.784-.477A3.284,3.284,0,0,0,244.76,278.525Z" transform="translate(-239.752 -269.137)" fill="#4d4d4d"/>
            <path id="Trazado_140153" data-name="Trazado 140153" d="M245.181,277.079c.044.321.335.4.645.172a1.188,1.188,0,0,0,.48-1c-.047-.321-.335-.4-.647-.175A1.189,1.189,0,0,0,245.181,277.079Z" transform="translate(-239.179 -268.417)" fill="#ccd3d5"/>
          </g>
          <path id="Trazado_140154" data-name="Trazado 140154" d="M246.7,294.753l-3.879-2.238-.107-.065-.133-.075,0-.009c-1.479-.936-2.394-2.815-2.394-5.465,0-5.532,3.947-12.287,8.813-15.09,2.41-1.388,4.594-1.544,6.186-.678l.007-.014-.438-.251-.009.016c-1.588-.866-3.774-.708-6.184.68-4.869,2.8-8.813,9.558-8.813,15.088,0,2.652.913,4.531,2.4,5.467l0,.009.13.074a1.236,1.236,0,0,0,.109.065l4.312,2.489Z" transform="translate(-237.724 -269.184)"/>
          <path id="Trazado_140155" data-name="Trazado 140155" d="M245.569,294.1l-1.9-1.1-.107-.063-.13-.077,0-.009c-1.481-.936-2.4-2.815-2.4-5.467,0-5.528,3.944-12.284,8.813-15.088,2.41-1.39,4.594-1.544,6.184-.677l.009-.014-.435-.249-.009.016c-1.593-.869-3.774-.71-6.186.678-4.866,2.8-8.813,9.56-8.813,15.088,0,2.652.913,4.531,2.4,5.467l-.007.009.13.077.112.063,2.338,1.348Z" transform="translate(-236.598 -268.533)"/>
        </g>
        <path id="Trazado_140156" data-name="Trazado 140156" d="M209.2,336.607l-.272-9.481s13.037-10.673,20.173-14.8l80.915-47.9,2.035-1.2.03-.021a5.965,5.965,0,0,1,.459.447,8.718,8.718,0,0,1,2.494,5.991v.212l-.058,7.416a25.94,25.94,0,0,1-1.316,4.184,15.441,15.441,0,0,1-2.838,4.745c-1.388,1.472-6.689,4.429-8.11,5.2a21.89,21.89,0,0,0,.387-3.15,6.871,6.871,0,0,0-.438-3.434.944.944,0,0,0-.6-.5c-1.534-2.773-4.808-3.42-8.613-1.227-5.032,2.9-9.155,9.693-9.511,15.519-.021.275-.03.552-.03.815a9.977,9.977,0,0,0,.335,2.638l-1.753.652-3.849,1.243-2.659.855L240.358,327.44l-1.243.715a14.611,14.611,0,0,0,.307-2.843,8.6,8.6,0,0,0-.044-.966c-.231-2.831-1.525-4.706-3.43-5.4-1.648-.6-3.758-.307-6.07,1.018-4.978,2.873-9.085,9.574-9.5,15.358-.03.328-.04.652-.04.978a11.347,11.347,0,0,0,.079,1.325,10.466,10.466,0,0,0,.226,1.19s-.694.265-1.753.652c-3.094,1.132-9.255,3.29-9.949,2.841l.021-.4Z" transform="translate(-174.457 -242.024)" fill="#c2c8cd"/>
        <path id="Trazado_140157" data-name="Trazado 140157" d="M314.321,266.3,208.93,327.144v-.021s13.037-10.669,20.173-14.792l82.98-49.119A8.79,8.79,0,0,1,314.321,266.3Z" transform="translate(-174.457 -242.022)" fill="#dbdce1"/>
        <path id="Trazado_140158" data-name="Trazado 140158" d="M249.839,281.625a8.365,8.365,0,0,0-.165-3.309.961.961,0,0,0-.088-.184c11.348-5,11.216-8.552,11.379-8.873a25.9,25.9,0,0,1-1.306,4.165,15.441,15.441,0,0,1-2.838,4.745c-1.222,1.3-5.239,3.609-7.146,4.673C249.736,282.435,249.806,282.021,249.839,281.625Z" transform="translate(-120.452 -233.989)" fill="#9ca4a8"/>
        <path id="Trazado_140159" data-name="Trazado 140159" d="M196.188,288.572l.054.03a29.129,29.129,0,0,0,8.6,9.129c4.815,3.327,25.079,6.822,28.641,8l3.134,5.223s-6.075,2.24-8.2,2.191c-6.354-.144-18.126-5.744-23.579-9.516-6.047-4.179-10.573-11.2-10.573-12.755l.261-5.709Z" transform="translate(-193.934 -212.859)" fill="#979fa3"/>
        <path id="Trazado_140160" data-name="Trazado 140160" d="M222.2,305.11a14.612,14.612,0,0,1-.307,2.843l1.243-.715,35.622-22.618,2.659-.855,3.849-1.243,1.753-.652a9.976,9.976,0,0,1-.335-2.638c0-.263.009-.54.03-.815l-44.558,25.726A8.6,8.6,0,0,1,222.2,305.11Z" transform="translate(-157.236 -221.822)" fill="#9ca4a8"/>
        <path id="Trazado_140161" data-name="Trazado 140161" d="M237.727,295.654l6.508-2.1,1.753-.652a9.975,9.975,0,0,1-.335-2.638c0-5.986,4.277-13.3,9.542-16.334,4.207-2.424,7.77-1.388,9.043,2.17-.547-2.9-2.068-4.838-4.2-5.614-2.1-.764-4.787-.386-7.721,1.3a19.028,19.028,0,0,0-2.859,2.037l-.4,1.6s-5.958,7.549-6.61,10.969a34.514,34.514,0,0,0-.652,4.023l-1.567.875c-.033.428-.054.845-.054,1.264C240.181,293.149,237.727,295.654,237.727,295.654Z" transform="translate(-136.204 -232.856)" fill="#d8dde1"/>
        <g id="Grupo_91365" data-name="Grupo 91365" transform="translate(89.639 28.846)">
          <path id="Trazado_140162" data-name="Trazado 140162" d="M236.2,288.789l-1.544-2.624-1.981-8.575-.054-.186,19.193-10.769.217-.135,4.026,6.866.806,3.646.014.053-.794,3.229-.042.1c-.065.068-5.921,7.525-6.552,10.848a35.14,35.14,0,0,0-.65,3.986v.147l-12.259,6.813-.38.2Zm12.776,2.356c.645-3.353,6.1-10.352,6.633-11.036l.754-3.043-.768-3.474-3.753-6.391-18.629,10.473,1.9,8.261,1.6,2.72v12.869l11.628-6.461C248.372,294.727,248.493,293.742,248.977,291.146Z" transform="translate(-232.623 -266.5)" fill="#d8dde1"/>
        </g>
        <g id="Grupo_91366" data-name="Grupo 91366" transform="translate(66.328 39.897)">
          <path id="Trazado_140163" data-name="Trazado 140163" d="M224,297.182l-1.32-3.216-.068-.147,21.887-22.3.268-.27,3.621,8.345,1.628,2.759V295.8l-25.221,14.631-.366.214Zm25.5-14.7-1.56-2.652-3.337-7.7-21.4,21.793,1.278,3.108.428,12.748L249.5,295.5Z" transform="translate(-222.611 -271.246)" fill="#d8dde1"/>
        </g>
        <path id="Trazado_140164" data-name="Trazado 140164" d="M240.449,290.823a12.49,12.49,0,0,0,.17,2.086c1.059-.386,1.753-.652,1.753-.652a10.022,10.022,0,0,1-.223-1.192,10.789,10.789,0,0,1-.082-1.323c0-5.989,4.277-13.3,9.542-16.336,2.312-1.325,4.422-1.618,6.07-1.017,2.119.764,3.474,2.992,3.474,6.363a14.589,14.589,0,0,1-.307,2.841l1.243-.71a16.725,16.725,0,0,0,.224-2.65c0-6.864-4.9-9.6-10.939-6.131S240.449,283.969,240.449,290.823Z" transform="translate(-132.588 -232.209)" fill="#979fa3"/>
        <path id="Trazado_140165" data-name="Trazado 140165" d="M202.1,295.244c5.153,3.975,13.188,8.7,26.054,9.63a17.2,17.2,0,0,0,6.482-.957c2.494-5.621,7.043-11.085,11.553-13.677,2.934-1.69,9.316-2.771,11.185-.529a11.1,11.1,0,0,1,2.668,5.951c-3.076-7.344-8.138-4.813-12.343-2.389a18.68,18.68,0,0,0-6.633,7.132c1.18-.81-1.495,6.568-1.495,6.568l-.9.191a15.473,15.473,0,0,0-.2,2.419,11.075,11.075,0,0,0,.026,2.664l-1.751.652-1.295-1.707c-1.483-1.961-7.183-2.538-7.514-2.566-6.14-.536-18.9-6.147-22.965-8.946a29.079,29.079,0,0,1-8.6-9.137l-.061-.03-1.66-3.4-.48-3.411A21.081,21.081,0,0,0,202.1,295.244Z" transform="translate(-194.061 -214.803)" fill="#d8dde1"/>
        <path id="Trazado_140166" data-name="Trazado 140166" d="M213.133,306.6a12.468,12.468,0,0,0,.172,2.086c1.059-.387,1.753-.652,1.753-.652a10.463,10.463,0,0,1-.226-1.19,11.346,11.346,0,0,1-.079-1.325c0-5.986,4.277-13.3,9.542-16.336,2.312-1.325,4.422-1.62,6.07-1.018,2.119.761,3.474,2.994,3.474,6.363a14.61,14.61,0,0,1-.307,2.843l1.243-.715a16.652,16.652,0,0,0,.223-2.647c0-6.862-4.9-9.6-10.939-6.131S213.133,299.752,213.133,306.6Z" transform="translate(-168.873 -211.246)" fill="#979fa3"/>
        <g id="Grupo_91367" data-name="Grupo 91367" transform="translate(2.755 69.888)">
          <path id="Trazado_140167" data-name="Trazado 140167" d="M212.143,299.913a2.2,2.2,0,0,1-2.715.617,76.32,76.32,0,0,1-8.8-4.876,52.653,52.653,0,0,1-4.752-4.81,2.194,2.194,0,0,1-.487-2.056l1.765-4.661,6.468,6.354,11.872,4.845Z" transform="translate(-195.307 -284.127)" fill="#d1d1d1"/>
          <path id="Trazado_140168" data-name="Trazado 140168" d="M210.111,299.693a1.713,1.713,0,0,0,1.343-.65l2.927-4.056-11.293-4.775-5.968-5.667-1.534,3.821a1.687,1.687,0,0,0,.373,1.583,52.836,52.836,0,0,0,4.687,4.748,76.186,76.186,0,0,0,8.717,4.824,1.714,1.714,0,0,0,.747.172Z" transform="translate(-195.017 -283.572)" fill="#424242"/>
        </g>
        <path id="Trazado_140169" data-name="Trazado 140169" d="M198.262,297.7l3.523,2.17a3.687,3.687,0,0,0,3.271-.636l31.992-20.4V278.2l-38.912,17.358C197.836,295.969,197.759,297.406,198.262,297.7Z" transform="translate(-189.112 -222.107)" fill="#c2c8cd"/>
        <path id="Trazado_140170" data-name="Trazado 140170" d="M198.246,300.562l3.25,1.953a3.512,3.512,0,0,0,2.889-.207l32.63-20.75-10.208-5.879-28.5,22.881A1.591,1.591,0,0,0,198.246,300.562Z" transform="translate(-189.079 -225.461)" fill="#f9fbff"/>
        <path id="Trazado_140171" data-name="Trazado 140171" d="M206.458,285.065l12.424-21.526,36.288,20.946h.009l-12.436,21.53h0v0c-.754,1.306-9.49-2.321-19.509-8.107S205.7,286.373,206.458,285.065Z" transform="translate(-177.81 -241.587)"/>
        <g id="Grupo_91368" data-name="Grupo 91368" transform="translate(29.668 23.347)">
          <path id="Trazado_140172" data-name="Trazado 140172" d="M209.369,280.206l9.276-16.068,2.48,1.425-1.988,1.139L211.9,279.23l.063.836.03.529-.123-.049-.405.019-4.319,4.4a2.722,2.722,0,0,1-.284-.417Z" transform="translate(-206.866 -264.138)" fill="url(#linear-gradient)"/>
          <path id="Trazado_140173" data-name="Trazado 140173" d="M213.8,278.468l-1.122-.438-1.19-.459-.277-.1,16.755-10,.223.121,15.349,8.871c0,.009.009.009.019.009l.389.224,5.1,2.943-9.621,16.673-2.151,3.714-.009.012H237.2a2.232,2.232,0,0,1-.324-.03,2.889,2.889,0,0,1-.3-.042,15.812,15.812,0,0,1-1.672-.456c-.2-.072-.426-.142-.65-.223-.449-.154-.938-.347-1.467-.55-.03-.009-.061-.033-.091-.044-.214-.079-.431-.17-.645-.263l-.028-.009c-.377-.154-.757-.317-1.153-.487a1.362,1.362,0,0,0-.2-.093c-.48-.217-.987-.449-1.506-.691-.917-.431-1.893-.9-2.934-1.43-.214-.1-.428-.212-.643-.324l4.512-4.605-6.927-4.091-.976-.552-4.706,4.778c-2.913-1.723-5.427-3.332-7.516-4.778l6.235-6.345Z" transform="translate(-202.736 -259.711)" fill="url(#linear-gradient-2)"/>
        </g>
        <path id="Trazado_140174" data-name="Trazado 140174" d="M224.834,271.5a4.2,4.2,0,0,1-.438-.165l.389.224Z" transform="translate(-153.912 -231.229)" fill="#e5e4e8"/>
        <path id="Trazado_140175" data-name="Trazado 140175" d="M217.6,267.414l.226.133.224.121.061-.061A4.6,4.6,0,0,1,217.6,267.414Z" transform="translate(-162.936 -236.44)" fill="#e5e4e8"/>
        <path id="Trazado_140176" data-name="Trazado 140176" d="M208.843,271.477l.406-.019.122.049-.031-.528Z" transform="translate(-174.572 -231.704)" fill="#e5e4e8"/>
        <g id="Grupo_91371" data-name="Grupo 91371" transform="translate(29.668 20.866)">
          <g id="Grupo_91369" data-name="Grupo 91369" transform="translate(0 3.906)">
            <path id="Trazado_140177" data-name="Trazado 140177" d="M209.369,271.039l1.141.407.959-.049.405-.019.123.049,3.339,1.3.277.1,1.19.459,1.122.438,2.415,1.334,3.816,2.107.875,1.744,1.255,2.475.04.019.976.552,6.927,4.091,9.32,5.523-2.151,3.714c-.028,0-.04.012-.061.012h-.012a2.232,2.232,0,0,1-.324-.03,2.9,2.9,0,0,1-.3-.042,15.812,15.812,0,0,1-1.672-.456c-.2-.072-.426-.142-.65-.224-.449-.154-.938-.347-1.467-.549a.242.242,0,0,0-.072-.044h-.019c-.214-.079-.431-.17-.645-.263l-.028-.009c-.377-.154-.757-.317-1.153-.487a1.363,1.363,0,0,0-.2-.093c-.48-.217-.987-.449-1.506-.691-.917-.431-1.893-.9-2.934-1.43-.214-.1-.428-.212-.643-.324h-.009c-2.016-1.029-4.226-2.23-6.578-3.586-.519-.293-1.02-.589-1.509-.885-2.913-1.723-5.427-3.332-7.516-4.778a38.147,38.147,0,0,1-6.955-5.611,2.722,2.722,0,0,1-.284-.417Z" transform="translate(-206.866 -256.396)" fill="#6f94a3"/>
            <path id="Trazado_140178" data-name="Trazado 140178" d="M216.262,265.889l1.987-1.139,10.712,6.191.021.012.235.132-16.755,10-3.34-1.3-.031-.528-.061-.836Z" transform="translate(-203.991 -264.75)" fill="url(#linear-gradient-3)"/>
          </g>
          <path id="Trazado_140179" data-name="Trazado 140179" d="M226.15,275.489c10.019,5.786,21.079,10.766,21.833,9.453L211.7,263.992C210.941,265.3,216.126,269.706,226.15,275.489Z" transform="translate(-200.547 -261.851)"/>
          <path id="Trazado_140180" data-name="Trazado 140180" d="M272.654,263.073l11.079,2.25,3.9,2.248-65.617,39.068,12.424-21.532Z" transform="translate(-186.746 -263.073)"/>
          <g id="Grupo_91370" data-name="Grupo 91370" transform="translate(40.838 1.287)">
            <path id="Trazado_140181" data-name="Trazado 140181" d="M224.405,297.275l.305,4.533,5.977-3.574,14.339-8.556,11.4-6.792,10.092-6.029,6.182-3.685,1.792-6.5-4.878-2.4-1.3-.644-8.453,4.869L249.1,274.685l-.448.256-14.381,8.291-2.638,1.517Z" transform="translate(-224.405 -263.625)" fill="url(#linear-gradient-4)"/>
          </g>
        </g>
        <path id="Trazado_140182" data-name="Trazado 140182" d="M244.521,256.757l-7.018-1.6-.759-.438,1.781.151a14.523,14.523,0,0,1,6,1.886Z" transform="translate(-137.509 -253.302)" fill="#9ea5d0"/>
        <path id="Trazado_140183" data-name="Trazado 140183" d="M225.947,280.657s.868-3.541,5.681-2.671c4.713.852,4.144,2.671,4.144,2.671s.172,3-3.406,2.955c-2.275-.03-5.113.284-5.567-.342s-2.671.114-2.671.114h0a1.574,1.574,0,0,1,0-2.4l.454-.387Z" transform="translate(-155.002 -222.579)" fill="#acb3b9"/>
        <path id="Trazado_140184" data-name="Trazado 140184" d="M194.951,287.04v3.4A19.607,19.607,0,0,0,201,297.254a62.729,62.729,0,0,0,14.368,7.9l3.649-1.763a64.785,64.785,0,0,1-17.314-8.343A22.534,22.534,0,0,1,194.951,287.04Z" transform="translate(-193.026 -210.369)" fill="#dbdce1"/>
        <path id="Trazado_140185" data-name="Trazado 140185" d="M203.469,295.6a39.037,39.037,0,0,0,13.337,2.885s3.7-1.833.764-2.221a57.8,57.8,0,0,1-9.868-2.2Z" transform="translate(-181.711 -201.039)" fill="#c2c8cd"/>
        <path id="Trazado_140186" data-name="Trazado 140186" d="M194.3,288.154a16.726,16.726,0,0,0,1.509,3.981v-3.4c-.624-1.174-1.069-2.212-1.395-2.973Z" transform="translate(-193.887 -212.066)" fill="#c2c8cd"/>
        <path id="Trazado_140187" data-name="Trazado 140187" d="M233.5,269.595l2.675,11.879-1.686,1.167-2.393-12.236Z" transform="translate(-143.69 -233.543)"/>
        <path id="Trazado_140188" data-name="Trazado 140188" d="M241.594,264.747l5.277,10.118-1.686,1.17-4.993-10.477Z" transform="translate(-132.93 -239.982)"/>
        <path id="Trazado_140189" data-name="Trazado 140189" d="M243.235,263.464l.367.249,8.6,3.18-1.069,5.787,13.317-7.922-3.847.932-16.5-2.724Z" transform="translate(-128.887 -242.349)" fill="#c2c8cd"/>
        <g id="Grupo_91372" data-name="Grupo 91372" transform="translate(135.55 20.424)">
          <path id="Trazado_140190" data-name="Trazado 140190" d="M252.341,264.9l1.059,3.749,1.192,6.671,2.71.724.068-5.746v-.212a8.718,8.718,0,0,0-2.494-5.991l-.459-.405-.03-.021-1.253-.782-.782,1.984Z" transform="translate(-252.341 -262.883)" fill="#d03100"/>
          <path id="Trazado_140191" data-name="Trazado 140191" d="M252.528,264.082l1.329-.8,2.281,3.157-2.377,1.332Z" transform="translate(-252.092 -262.348)" fill="#b10000"/>
          <path id="Trazado_140192" data-name="Trazado 140192" d="M254.25,265.179l.143,2.053,1.4-.822v5.627l-1.656-.395-1-5.78Z" transform="translate(-251.275 -259.833)" fill="#b10000"/>
          <path id="Trazado_140193" data-name="Trazado 140193" d="M253.619,265.588l.142,2.051,1.4-1.155a5.5,5.5,0,0,0-.114-.9,6.237,6.237,0,0,0-.2-.717Z" transform="translate(-250.643 -260.242)" fill="#ef8800"/>
        </g>
        <path id="Trazado_140194" data-name="Trazado 140194" d="M235.632,278.044l-3.541,2.079h0c0-.68-.116-1.078.587-1.49a21.494,21.494,0,0,1,2.086-1.26C235.7,276.9,235.632,278.044,235.632,278.044Z" transform="translate(-143.704 -223.363)" fill="#a9a9a9"/>
        <path id="Trazado_140195" data-name="Trazado 140195" d="M243.854,273.254l-3.541,2.077h0c0-.678-.116-1.078.584-1.488a21.994,21.994,0,0,1,2.088-1.262C243.922,272.106,243.854,273.254,243.854,273.254Z" transform="translate(-132.78 -229.729)" fill="#a9a9a9"/>
        <g id="Grupo_91373" data-name="Grupo 91373" transform="translate(130.234 29.351)">
          <path id="Trazado_140196" data-name="Trazado 140196" d="M250.717,272.04a.6.6,0,0,0,.335-.1l2.41-1.411a1.676,1.676,0,0,0,.82-1.413v-1.765a.624.624,0,0,0-.335-.564.715.715,0,0,0-.659.012l-2.408,1.416a1.629,1.629,0,0,0-.822,1.413v1.76a.651.651,0,0,0,.659.647Z" transform="translate(-250.058 -266.717)" fill="#d8dde1"/>
        </g>
        <g id="Grupo_91374" data-name="Grupo 91374" transform="translate(22.108 81.311)">
          <path id="Trazado_140197" data-name="Trazado 140197" d="M206.364,289.466l16-.433s-2.675,6.024-3.979,6.883-8.117-1.781-8.117-1.781l-6.65-1.5Z" transform="translate(-203.619 -289.033)" fill="#cddae7"/>
          <path id="Trazado_140198" data-name="Trazado 140198" d="M222.362,289.033a34.4,34.4,0,0,1-1.507,3.136l-3.593,1.683-2.079-2.561-4.242,1.681-1.572-1.753-5.751,1.418,2.745-3.171Z" transform="translate(-203.619 -289.033)" fill="#a3bed6"/>
          <path id="Trazado_140199" data-name="Trazado 140199" d="M208.561,290.654a2.7,2.7,0,0,0,1.239,2.114c.68.4,1.234.086,1.234-.689a2.713,2.713,0,0,0-1.234-2.119C209.115,289.569,208.561,289.879,208.561,290.654Z" transform="translate(-197.054 -288.026)" fill="#dce4e8"/>
          <path id="Trazado_140200" data-name="Trazado 140200" d="M205.845,290.277a2.7,2.7,0,0,0,1.234,2.116c.685.4,1.236.086,1.236-.691a2.7,2.7,0,0,0-1.236-2.114C206.4,289.192,205.845,289.5,205.845,290.277Z" transform="translate(-200.662 -288.524)" fill="#dce4e8"/>
        </g>
        <g id="Grupo_91375" data-name="Grupo 91375" transform="translate(0 62.605)">
          <path id="Trazado_140201" data-name="Trazado 140201" d="M194.338,287.7l1.621.787,1.2,1.52.824-2.652-2.1-6.359-.009.009c-.03.112-.314.868-.652,1.814-.214.643-.456,1.364-.673,2.037-.121.4-.233.773-.314,1.1A2.551,2.551,0,0,0,194.338,287.7Z" transform="translate(-194.124 -280.999)" fill="#cddae7"/>
          <path id="Trazado_140202" data-name="Trazado 140202" d="M196.948,287.951l-.62.063-1.125-2.3.829-.869-.615-.031-.655-1.853.258-1.959,2.114,6.349Z" transform="translate(-193.278 -280.993)" fill="#a3bed6"/>
          <path id="Trazado_140203" data-name="Trazado 140203" d="M194.909,283.64a2.5,2.5,0,0,0,.717,1.732c.4.321.719.068.719-.566a2.487,2.487,0,0,0-.719-1.732C195.23,282.751,194.909,283,194.909,283.64Z" transform="translate(-193.081 -278.429)" fill="#dce4e8"/>
          <path id="Trazado_140204" data-name="Trazado 140204" d="M194.673,282.361a1.825,1.825,0,0,0,.524,1.264c.289.237.524.053.524-.412a1.835,1.835,0,0,0-.524-1.267C194.908,281.711,194.673,281.9,194.673,282.361Z" transform="translate(-193.395 -279.876)" fill="#dce4e8"/>
        </g>
        <g id="Grupo_91376" data-name="Grupo 91376" transform="translate(84.976 1.288)">
          <path id="Trazado_140205" data-name="Trazado 140205" d="M230.62,254.664l6.01,2.85,9.234,4.38,1.569.743,3.9,2.638,8.412,5.672,1.211.824,14.443,3.558s-2.435-1.8-5.46-3.984c-2.626-1.893-5.7-4.063-8.026-5.6-.845-.559-1.579-1.029-2.168-1.364-1.071-.619-2.436-1.353-3.914-2.107-3.064-1.548-6.608-3.208-8.981-4.3-1.618-.743-2.689-1.22-2.689-1.22Z" transform="translate(-230.62 -254.664)" fill="url(#linear-gradient-5)"/>
        </g>
        <path id="Trazado_140206" data-name="Trazado 140206" d="M211.8,275.747l.033.012-.021-.012,37.14-21.4,21.011,8.34,15.479,12.468-37.345,21.535-.044-.023.035.023c-.754,1.316-9.991-3.86-20.012-9.646S211.041,277.048,211.8,275.747Z" transform="translate(-170.724 -253.795)" fill="#eff1f7"/>
        <g id="Grupo_91377" data-name="Grupo 91377" transform="translate(62.006 8.915)">
          <path id="Trazado_140207" data-name="Trazado 140207" d="M241.4,277.99a4.117,4.117,0,0,0,2.037-.543l10.063-5.812a1.669,1.669,0,0,0,0-2.887l-17.777-10.263a4.077,4.077,0,0,0-4.072,0L221.589,264.3a1.665,1.665,0,0,0,0,2.885l17.775,10.266A4.115,4.115,0,0,0,241.4,277.99Z" transform="translate(-220.755 -257.94)"/>
          <path id="Trazado_140208" data-name="Trazado 140208" d="M221.513,264.6l10.061-5.816a3.093,3.093,0,0,1,3.055,0l6.592,3.811,11.19,6.457a.649.649,0,0,1,0,1.12l-10.061,5.814a3.082,3.082,0,0,1-3.055,0L229,270.048l-7.483-4.328A.651.651,0,0,1,221.513,264.6Z" transform="translate(-220.174 -257.359)" fill="url(#linear-gradient-6)"/>
        </g>
      </g>
    </g>
  </g>
</svg>
