<svg xmlns="http://www.w3.org/2000/svg" xmlns:xlink="http://www.w3.org/1999/xlink" width="154.5" height="154.499" viewBox="0 0 154.5 154.499">
  <defs>
    <linearGradient id="linear-gradient" x1="0.29" y1="0.908" x2="0.692" y2="0.08" gradientUnits="objectBoundingBox">
      <stop offset="0" stop-color="#7fbcd4"/>
      <stop offset="0.333" stop-color="#7fbcd4"/>
      <stop offset="0.337" stop-color="#9acde1"/>
      <stop offset="0.737" stop-color="#9dcfe2"/>
      <stop offset="0.741" stop-color="#bfe5f3"/>
      <stop offset="1" stop-color="#d8f5ff"/>
    </linearGradient>
    <linearGradient id="linear-gradient-2" x1="0.288" y1="1.037" x2="0.707" y2="-0.005" xlink:href="#linear-gradient"/>
    <linearGradient id="linear-gradient-3" x1="0.291" y1="0.958" x2="0.672" y2="0.082" xlink:href="#linear-gradient"/>
    <linearGradient id="linear-gradient-4" x1="0.307" y1="1.058" x2="0.502" y2="0.486" gradientUnits="objectBoundingBox">
      <stop offset="0" stop-color="#7fbcd4"/>
      <stop offset="0.349" stop-color="#9acde1"/>
      <stop offset="1" stop-color="#d8f5ff"/>
    </linearGradient>
    <linearGradient id="linear-gradient-5" x1="0.183" y1="0.848" x2="0.997" y2="0.139" xlink:href="#linear-gradient"/>
    <linearGradient id="linear-gradient-6" x1="0.757" y1="0.01" x2="0.599" y2="0.322" xlink:href="#linear-gradient"/>
    <clipPath id="clip-path">
      <path id="Trazado_140282" data-name="Trazado 140282" d="M276.721,164.813c0,9.893-6.737,22.153-14.707,26.756L182.06,237.705a14.2,14.2,0,0,1-6.848,2.135c-5.17,0-8.376-4.786-8.376-12.494,0-9.4,4.835-20.716,12.037-28.182l.466-.485.223-.627c2.165-6.21,6.26-11.653,10.7-14.222a10.063,10.063,0,0,1,3.318-1.264l1.6-.262.668-1.477c4.723-10.378,12.118-19.22,19.8-23.651a21.209,21.209,0,0,1,8.153-2.914c.506-.051,1-.081,1.5-.081,4.663,0,8.223,2.519,10.307,7.264l2.62,5.977,2.884-5.856c2.831-5.736,6.888-10.44,11.136-12.887a11.083,11.083,0,0,1,5.331-1.68c4.187,0,5.554,3.964,6,6.331l.646,3.449,3.328-1.142a8.849,8.849,0,0,1,2.854-.526C274.354,155.111,276.721,158.744,276.721,164.813Z" transform="translate(-166.836 -146.999)" fill="none"/>
    </clipPath>
  </defs>
  <g id="_6" data-name="6" transform="translate(-970.5 -2773.75)">
    <path id="Trazado_140095" data-name="Trazado 140095" d="M428.7,0h77.251V77.25A77.25,77.25,0,0,1,428.7,154.5h0a77.25,77.25,0,0,1-77.25-77.25h0A77.25,77.25,0,0,1,428.7,0Z" transform="translate(619.051 2773.75)" fill="#8cf8fe"/>
    <g id="Grupo_91395" data-name="Grupo 91395" transform="translate(827.331 2657.609)">
      <g id="Grupo_91394" data-name="Grupo 91394" transform="translate(156.715 139.628)">
        <g id="Grupo_91382" data-name="Grupo 91382">
          <g id="Grupo_91381" data-name="Grupo 91381">
            <path id="Trazado_140209" data-name="Trazado 140209" d="M156.8,226.645l0-.033c.4,5.249,2.285,9.108,5.137,11.291l-.032.016.207.12a9.7,9.7,0,0,0,1.879,1.1l11.432,6.376-1.463-4.976a19.843,19.843,0,0,0,4.892-2.041h0v0l40.407-23.32L250.939,196.9l7.87-4.543v0c8.344-4.816,15.211-16.553,16.117-27.073l0,.017c0-.021,0-.041,0-.06.065-.763.1-1.52.1-2.266a22.148,22.148,0,0,0-.177-2.7l5.589-2.854-3.738-1.8-5.66-3.464c-2.343-1.974.1,1-3.547,2.258-.025-.131-.063-.248-.09-.378l-.009-4.593-12-6.842,8.027,4.589c-2.95-2.158-11.4-7.251-11.4-7.251-11.351-2.414-16.348,9.751-19.215,14.6-2.021-1.152-5.8-3.37-7.486-4.361-.248-.152-.493-.308-.751-.442l-.093-.055-.011.008c-4.652-2.367-10.749-1.921-17.435,1.937-8.588,4.955-16.215,14.415-21.04,25.028a13,13,0,0,0-4.333,1.632c-5.214,3.01-9.746,9.223-12.058,15.85-7.523,7.795-12.893,19.806-12.893,30.292C156.716,225.2,156.749,225.931,156.8,226.645Z" transform="translate(-156.714 -139.628)" fill="#d8f5ff"/>
            <path id="Trazado_140210" data-name="Trazado 140210" d="M194.222,170.254a13.036,13.036,0,0,0-4.339,1.639c-.284.163-.567.333-.841.517-.191.12-.374.253-.556.384-.232.161-.465.324-.687.5-.284.221-.567.444-.841.678s-.556.485-.83.738c-.12.1-.242.223-.354.333s-.242.232-.354.354c-.363.354-.717.728-1.071,1.123a1.368,1.368,0,0,0-.122.141c-.193.213-.384.446-.567.678-.3.365-.607.74-.89,1.123-.262.344-.515.7-.758,1.052s-.5.717-.728,1.092c-.4.627-.779,1.266-1.133,1.923-.122.212-.232.423-.344.637-.191.363-.363.717-.536,1.082-.092.172-.172.344-.243.515s-.152.344-.232.517c-.131.3-.262.607-.384.91-.081.193-.163.384-.223.577q-.2.486-.363.972l-12.949-7.183c2.307-6.625,6.839-12.846,12.058-15.851a13.1,13.1,0,0,1,4.329-1.639Z" transform="translate(-151.98 -126.034)" fill="url(#linear-gradient)"/>
            <path id="Trazado_140211" data-name="Trazado 140211" d="M226.372,153.553c-4.612-2.195-10.59-1.669-17.125,2.1-8.588,4.957-16.215,14.414-21.04,25.025l-12.958-7.193c4.826-10.61,12.453-20.069,21.04-25.025,6.687-3.854,12.786-4.3,17.439-1.932l.009-.009s.041.021.092.051c.253.141.506.292.749.444,1.689.992,5.472,3.208,7.485,4.361Z" transform="translate(-145.964 -136.464)" fill="url(#linear-gradient-2)"/>
            <path id="Trazado_140212" data-name="Trazado 140212" d="M237.934,148.573a.807.807,0,0,0-.172-.041h-.011a4.141,4.141,0,0,0-.6-.142c-.152-.03-.314-.06-.476-.081l-.333-.03c-.133-.021-.273-.021-.416-.03s-.283-.011-.425-.011a13.829,13.829,0,0,0-6.848,2.084c-4.946,2.852-9.378,8.153-12.34,14.183a14.891,14.891,0,0,0-7.121-7.78l-.011-.009-4.309-2.174c2.873-4.856,7.87-17.014,19.22-14.6,0,0,8.395,5.058,11.369,7.223Z" transform="translate(-128.778 -139.626)" fill="url(#linear-gradient-3)"/>
            <path id="Trazado_140213" data-name="Trazado 140213" d="M237.86,152.6a9.977,9.977,0,0,0-7.06.081c-.051-.294-.122-.586-.182-.86a1.3,1.3,0,0,1-.041-.182.573.573,0,0,0-.039-.122q-.107-.424-.243-.82c-.1-.313-.2-.616-.324-.91-.1-.253-.212-.5-.324-.738-.152-.314-.313-.607-.485-.891-.131-.221-.264-.435-.4-.637-.021-.021-.03-.051-.051-.071a.819.819,0,0,0-.112-.152l-.12-.152h.009a3.3,3.3,0,0,1,.94.648l5.655,3.47Z" transform="translate(-115.089 -135.266)" fill="url(#linear-gradient-4)"/>
            <path id="Trazado_140214" data-name="Trazado 140214" d="M175.428,225.487v.009L164,219.124a10.165,10.165,0,0,1-1.882-1.1l-.2-.122.03-.009c-2.852-2.185-4.734-6.039-5.138-11.29-.06-.708-.09-1.425-.09-2.185,0-10.479,5.371-22.5,12.9-30.285l12.949,7.183c-7.516,7.8-12.887,19.816-12.887,30.295C169.673,218.325,171.868,223.13,175.428,225.487Z" transform="translate(-156.715 -119.613)" fill="url(#linear-gradient-5)"/>
            <g id="Grupo_91380" data-name="Grupo 91380" transform="translate(12.955 8.616)">
              <path id="Trazado_140215" data-name="Trazado 140215" d="M247.705,150.011c-4.947,2.855-9.373,8.153-12.34,14.181-4.053-9.24-13.388-11.96-24.261-5.685-8.588,4.957-16.215,14.415-21.04,25.03a12.962,12.962,0,0,0-4.333,1.632c-7.172,4.14-13.053,14.338-13.639,23.339-.032-.452-.052-.915-.052-1.4,0-9.33,6.129-20.43,13.691-24.795a12.962,12.962,0,0,1,4.333-1.632c4.826-10.613,12.453-20.073,21.04-25.03,10.873-6.275,20.208-3.555,24.261,5.685,2.967-6.03,7.393-11.326,12.34-14.181,8.935-5.156,16.178-.4,16.178,10.623,0,.48-.019.965-.047,1.452C263.244,149.221,256.25,145.08,247.705,150.011Z" transform="translate(-160.78 -145.08)" fill="#daf2f0"/>
              <path id="Trazado_140216" data-name="Trazado 140216" d="M267.671,153.882c-1.534-8.171-8.038-11.22-15.832-6.722-4.947,2.855-9.373,8.152-12.34,14.181-4.053-9.24-13.388-11.96-24.261-5.685-8.588,4.957-16.215,14.417-21.04,25.03a12.962,12.962,0,0,0-4.333,1.632c-5.214,3.008-9.746,9.223-12.058,15.848-7.524,7.8-12.893,19.808-12.893,30.292,0,13.477,8.855,19.291,19.778,12.987h0L225.1,218.127l31.673-18.278,7.87-4.543v0c8.961-5.172,16.224-18.326,16.224-29.382C280.867,156.145,275.183,151.3,267.671,153.882Z" transform="translate(-164.914 -145.08)" fill="#addced"/>
              <path id="Trazado_140217" data-name="Trazado 140217" d="M276.721,164.813c0,9.893-6.737,22.153-14.707,26.756L182.06,237.705a14.2,14.2,0,0,1-6.848,2.135c-5.17,0-8.376-4.786-8.376-12.494,0-9.4,4.835-20.716,12.037-28.182l.466-.485.223-.627c2.165-6.21,6.26-11.653,10.7-14.222a10.063,10.063,0,0,1,3.318-1.264l1.6-.262.668-1.477c4.723-10.378,12.118-19.22,19.8-23.651a21.209,21.209,0,0,1,8.153-2.914c.506-.051,1-.081,1.5-.081,4.663,0,8.223,2.519,10.307,7.264l2.62,5.977,2.884-5.856c2.831-5.736,6.888-10.44,11.136-12.887a11.083,11.083,0,0,1,5.331-1.68c4.187,0,5.554,3.964,6,6.331l.646,3.449,3.328-1.142a8.849,8.849,0,0,1,2.854-.526C274.354,155.111,276.721,158.744,276.721,164.813Z" transform="translate(-163.799 -143.967)" fill="url(#linear-gradient-6)"/>
            </g>
          </g>
          <path id="Trazado_140218" data-name="Trazado 140218" d="M263.574,152.757a11.651,11.651,0,0,0-.953-2.961,5.225,5.225,0,0,0-3.561-1.316,8.839,8.839,0,0,0-2.854.521l-3.323,1.142-.4-2.16c-.079.044-.158.076-.237.122-4.25,2.452-8.308,7.153-11.135,12.892l-2.88,5.854-2.621-5.974a11.839,11.839,0,0,0-5.663-6.271c-.055.111-.118.215-.174.327l-2.88,5.854-2.621-5.976c-.168-.382-.348-.746-.536-1.1a21.139,21.139,0,0,0-8.09,2.89c-7.673,4.427-15.072,13.271-19.794,23.657l-.67,1.473-1.6.264a10.032,10.032,0,0,0-3.312,1.267c-4.438,2.563-8.544,8.013-10.71,14.221l-.22.629-.461.479c-7.2,7.463-12.042,18.789-12.042,28.184a20.845,20.845,0,0,0,.738,5.744,18.137,18.137,0,0,0,3.151-1.449l79.949-46.143c7.971-4.6,14.707-16.853,14.707-26.752a20.224,20.224,0,0,0-.131-2.318l-1.027.352Z" transform="translate(-150.845 -134.78)" fill="#7db5c9"/>
          <path id="Trazado_140219" data-name="Trazado 140219" d="M217.336,164.785l-11.329-6.058-3.166-7.082.071-.021c.506-.051,1-.081,1.5-.081,4.663,0,8.223,2.519,10.307,7.264Z" transform="translate(-129.959 -132.715)" fill="#6a97ba"/>
          <path id="Trazado_140220" data-name="Trazado 140220" d="M232.864,156.78l-11.339-6.069-.638-2.032a11.083,11.083,0,0,1,5.331-1.68c4.187,0,5.554,3.964,6,6.331Z" transform="translate(-119.49 -135.351)" fill="#6a97ba"/>
        </g>
        <g id="Grupo_91393" data-name="Grupo 91393" transform="translate(15.992 11.648)">
          <g id="Grupo_91392" data-name="Grupo 91392" clip-path="url(#clip-path)">
            <g id="Grupo_91391" data-name="Grupo 91391" transform="translate(12.753 15.813)">
              <path id="Trazado_140221" data-name="Trazado 140221" d="M215.679,165.358v5.32a.129.129,0,0,0-.033.082,1.964,1.964,0,0,1-.885,1.281c-.7.4-1.392.8-2.089,1.2a.254.254,0,0,0-.137.21,25.811,25.811,0,0,1-1.275,4.429c-.043.111-.033.153.024.188q.747.462,1.488.934c.365.234.362.886-.006,1.541q-1.4,2.5-2.809,5c-.387.69-.92,1-1.307.755-.493-.311-.989-.619-1.481-.934-.051-.032-.085-.016-.144.062-.239.313-.487.611-.738.9a23.571,23.571,0,0,1-2.339,2.372c-.106.093-.1.093-.106.226v.089c0,.807,0,1.613,0,2.422a2,2,0,0,1-.634,1.436c-.019.021-.046.033-.051.071l-4.413,2.544c-.008-.032-.038-.013-.058-.008-.4.07-.634-.182-.634-.69v-2.509c0-.03,0-.058,0-.089s-.016-.057-.049-.047l-.077.021a7.714,7.714,0,0,1-3.056.264c-.063-.009-.1.024-.148.112q-.749,1.339-1.5,2.678c-.357.632-.9.946-1.253.724-.954-.6-1.9-1.2-2.857-1.795a.478.478,0,0,1-.2-.256,1.53,1.53,0,0,1,.2-1.245q.744-1.339,1.5-2.669c.058-.106.066-.158.022-.221a8.81,8.81,0,0,1-1.277-2.967c-.019-.082-.054-.087-.131-.041q-1.036.6-2.073,1.2c-.406.234-.727.142-.86-.243-.009-.024,0-.066-.041-.052v-5.339c.036-.033.032-.074.041-.111a2.084,2.084,0,0,1,.564-1.008,1.67,1.67,0,0,1,.37-.27l2.008-1.157c.153-.088.13-.065.164-.248a25.882,25.882,0,0,1,1.239-4.389c.039-.1.033-.141-.019-.174q-.758-.469-1.509-.948c-.343-.218-.343-.879,0-1.492.063-.115.13-.229.193-.343q1.325-2.358,2.647-4.718a2.047,2.047,0,0,1,.425-.547c.327-.281.613-.352.852-.205.5.308.989.621,1.484.931.1.062.073.07.188-.077a24.347,24.347,0,0,1,3.067-3.3.231.231,0,0,0,.093-.205c0-.852,0-1.706,0-2.561a2.03,2.03,0,0,1,.626-1.386c.024-.022.055-.036.066-.084q2.207-1.27,4.413-2.544c.014.041.052.011.081.008a.476.476,0,0,1,.575.4,1.52,1.52,0,0,1,.03.378c0,.815,0,1.631,0,2.448,0,.088.019.12.095.1a7.765,7.765,0,0,1,3.086-.232c.062.009.1-.017.15-.109q.735-1.318,1.477-2.632c.389-.692.918-1,1.307-.755l2.8,1.763c.379.24.376.886,0,1.566q-.737,1.315-1.477,2.632c-.052.092-.063.142-.024.2a8.984,8.984,0,0,1,1.286,2.986c.016.07.046.077.111.039.292-.172.583-.338.875-.506.435-.25.869-.507,1.3-.744.389-.212.69-.1.811.275C215.648,165.326,215.645,165.369,215.679,165.358Zm-14.8,17.879c3.081-1.716,5.628-6.126,5.661-9.9.032-3.742-2.424-5.328-5.511-3.59a12.46,12.46,0,0,0-5.633,9.86C195.364,183.385,197.834,184.937,200.877,183.237Z" transform="translate(-168.326 -157.007)" fill="#447296"/>
              <path id="Trazado_140222" data-name="Trazado 140222" d="M196.211,173.722a1.336,1.336,0,0,1-.081.468c-.256.879-.5,1.757-.758,2.636-.2.691-.457.969-.935,1.018-.569.055-1.133.095-1.692.125-.3.016-.5.16-.722.627a23.17,23.17,0,0,1-1.5,2.666.828.828,0,0,0-.156.866c.243.536.474,1.086.7,1.64.213.523.112.866-.42,1.443-.591.643-1.184,1.285-1.781,1.915-.482.51-.736.533-.935.084-.242-.539-.472-1.087-.7-1.64-.12-.291-.292-.371-.643-.087a7.05,7.05,0,0,1-2.06,1.185.994.994,0,0,0-.616.773c-.226.815-.465,1.631-.7,2.446-.216.736-.457,1-.958,1.049q-.917.085-1.825.142c-.466.03-.577-.224-.389-.909q.353-1.285.733-2.571c.1-.34.073-.517-.139-.6a5.328,5.328,0,0,1-1.6-1c-.175-.16-.341-.073-.569.174q-.865.941-1.74,1.861c-.533.561-.768.572-.992.058-.25-.572-.5-1.141-.736-1.724-.193-.472-.089-.831.384-1.348q.865-.943,1.737-1.871a1.107,1.107,0,0,0,.348-.894c-.03-.831-.033-1.684,0-2.553.016-.4-.093-.542-.374-.517-.566.051-1.131.095-1.694.13-.495.032-.6-.21-.393-.937q.36-1.285.738-2.572c.213-.725.466-1,.965-1.054.6-.06,1.193-.112,1.782-.144.245-.014.4-.171.561-.51a26.788,26.788,0,0,1,1.563-2.784.788.788,0,0,0,.147-.817q-.37-.827-.716-1.683c-.2-.5-.092-.86.406-1.4q.886-.965,1.781-1.915c.509-.54.757-.564.969-.09.239.54.471,1.089.7,1.639.112.27.275.354.607.085a6.977,6.977,0,0,1,2.06-1.188,1.1,1.1,0,0,0,.673-.877c.213-.773.439-1.547.665-2.32s.457-1.038.986-1.087q.917-.085,1.825-.142c.435-.028.55.234.374.88-.229.834-.472,1.672-.721,2.508-.12.408-.1.627.171.724a4.27,4.27,0,0,1,1.466.913c.234.221.446.126.758-.22.515-.574,1.041-1.125,1.563-1.683.6-.638.825-.662,1.068-.107s.487,1.112.719,1.68c.2.5.1.847-.4,1.392-.577.629-1.153,1.256-1.735,1.874a1.051,1.051,0,0,0-.327.839c.025.855.028,1.725,0,2.612-.013.378.09.51.354.487.6-.052,1.187-.09,1.781-.136C196.041,173.258,196.221,173.342,196.211,173.722Zm-10.618-3.557a11.457,11.457,0,0,0-5.108,9.108c0,3.3,2.3,4.737,5.048,3.155a11.449,11.449,0,0,0,5.1-9.048C190.637,170.016,188.368,168.57,185.593,170.166Z" transform="translate(-174.907 -154.393)" fill="#447296"/>
              <path id="Trazado_140223" data-name="Trazado 140223" d="M221.929,172.29a1,1,0,0,1-.06.344c-.186.645-.367,1.288-.556,1.932-.149.507-.335.711-.686.746-.417.041-.83.07-1.242.092-.215.013-.365.117-.529.461a16.9,16.9,0,0,1-1.1,1.955c-.179.275-.2.447-.114.634.177.393.346.8.512,1.2.156.384.082.635-.308,1.059-.435.471-.869.942-1.307,1.4-.354.374-.54.39-.687.062q-.263-.595-.512-1.2c-.089-.213-.215-.272-.472-.063a5.138,5.138,0,0,1-1.511.869.723.723,0,0,0-.452.567c-.166.6-.341,1.195-.517,1.793-.158.54-.335.735-.7.77q-.673.062-1.338.1c-.341.021-.423-.164-.286-.667q.258-.941.539-1.885c.073-.25.052-.379-.1-.442a3.86,3.86,0,0,1-1.169-.735c-.13-.117-.251-.054-.419.128q-.635.69-1.275,1.365c-.39.411-.564.419-.728.043-.183-.419-.367-.836-.54-1.264-.141-.348-.065-.61.283-.988q.633-.694,1.274-1.373a.811.811,0,0,0,.254-.656c-.022-.61-.024-1.236,0-1.872.011-.3-.07-.4-.275-.381-.416.038-.83.071-1.242.1-.363.022-.439-.155-.289-.687q.265-.943.542-1.887c.155-.532.341-.736.708-.773.438-.044.875-.082,1.307-.106.18-.009.291-.126.412-.374a19.517,19.517,0,0,1,1.146-2.041.576.576,0,0,0,.107-.6c-.182-.4-.355-.817-.525-1.236-.147-.363-.068-.63.3-1.025q.652-.706,1.307-1.4c.373-.4.555-.414.709-.065.175.4.346.8.515,1.2.082.2.2.259.446.063a5.067,5.067,0,0,1,1.511-.872.811.811,0,0,0,.495-.643c.155-.567.321-1.134.487-1.7s.337-.76.724-.8q.673-.064,1.338-.106c.319-.019.4.174.275.646-.167.611-.346,1.226-.528,1.839-.088.3-.071.46.125.531a3.13,3.13,0,0,1,1.074.67c.172.163.327.093.556-.161.378-.42.765-.825,1.147-1.234.439-.468.6-.487.782-.079s.357.815.528,1.232c.15.363.074.621-.292,1.021-.422.461-.845.921-1.272,1.375a.78.78,0,0,0-.24.616c.019.626.022,1.264,0,1.915-.009.277.065.374.259.357.438-.039.871-.066,1.307-.1C221.8,171.95,221.935,172.012,221.929,172.29Zm-7.788-2.607a8.4,8.4,0,0,0-3.746,6.679c0,2.422,1.684,3.475,3.7,2.315a8.4,8.4,0,0,0,3.743-6.636C217.839,169.572,216.175,168.512,214.14,169.683Z" transform="translate(-156.695 -153.336)" fill="#447296"/>
              <path id="Trazado_140224" data-name="Trazado 140224" d="M192.958,184.645a.717.717,0,0,1-.043.248c-.136.468-.265.932-.4,1.4-.107.367-.242.514-.5.539-.3.03-.6.051-.9.066-.155.009-.264.085-.382.333a12.243,12.243,0,0,1-.793,1.414.44.44,0,0,0-.084.46c.128.284.251.577.371.871.112.278.058.46-.224.766q-.469.512-.945,1.018c-.256.27-.39.281-.5.043-.128-.286-.251-.577-.371-.869-.063-.155-.156-.2-.341-.047a3.706,3.706,0,0,1-1.093.629.529.529,0,0,0-.329.411q-.18.649-.373,1.3c-.114.39-.242.531-.507.556q-.488.045-.969.076c-.248.016-.307-.118-.207-.482q.187-.683.389-1.365c.054-.182.04-.275-.073-.319a2.828,2.828,0,0,1-.847-.533c-.093-.084-.182-.039-.3.093q-.457.5-.923.988c-.283.3-.408.3-.526.03-.133-.3-.265-.605-.392-.915-.1-.251-.046-.441.205-.714q.457-.5.921-.994a.6.6,0,0,0,.185-.474c-.017-.441-.019-.894,0-1.356.008-.213-.051-.288-.2-.275-.3.027-.6.051-.9.07-.262.017-.316-.111-.209-.5q.192-.683.392-1.365c.114-.384.248-.533.512-.559.318-.032.634-.06.946-.076.13-.008.21-.092.3-.272a14.511,14.511,0,0,1,.83-1.477.418.418,0,0,0,.079-.433c-.131-.294-.258-.591-.381-.894-.106-.262-.047-.455.215-.741q.472-.512.946-1.018c.27-.286.4-.3.514-.047.128.288.251.578.373.869.06.144.145.188.322.046a3.679,3.679,0,0,1,1.093-.63.587.587,0,0,0,.357-.465c.112-.411.232-.822.352-1.232s.243-.55.525-.577q.486-.045.969-.076c.231-.014.292.125.2.468-.12.442-.25.886-.381,1.33-.065.216-.052.333.09.384a2.285,2.285,0,0,1,.777.485c.125.117.237.068.4-.117.273-.3.553-.6.83-.893.318-.338.438-.352.567-.057s.258.589.381.891c.109.264.054.45-.21.739-.307.333-.613.667-.921.994a.557.557,0,0,0-.174.446c.014.453.016.916,0,1.387-.008.2.047.27.188.258.316-.027.63-.047.945-.073C192.868,184.4,192.963,184.445,192.958,184.645Zm-5.636-1.887a6.078,6.078,0,0,0-2.711,4.833c0,1.752,1.22,2.514,2.68,1.675a6.078,6.078,0,0,0,2.708-4.8C190,182.678,188.795,181.91,187.322,182.759Z" transform="translate(-170.995 -144.734)" fill="#447296"/>
              <path id="Trazado_140225" data-name="Trazado 140225" d="M223.537,159.837v1.6a.039.039,0,0,0-.009.025.59.59,0,0,1-.267.384c-.209.122-.419.243-.627.362a.075.075,0,0,0-.043.063,7.838,7.838,0,0,1-.382,1.332c-.013.033-.011.046.006.057.15.093.3.186.447.281.111.07.109.265,0,.463l-.844,1.506c-.117.207-.277.3-.393.226-.149-.093-.3-.186-.446-.281-.016-.009-.025,0-.043.019-.073.095-.147.185-.223.272a7.162,7.162,0,0,1-.7.714c-.032.027-.032.027-.032.068v.754a.607.607,0,0,1-.191.433c-.006.006-.014.009-.014.022q-.664.382-1.329.765c0-.009-.011,0-.017,0-.12.021-.19-.054-.19-.207v-.755a.152.152,0,0,1,0-.027c0-.013,0-.017-.016-.014l-.022.006a2.334,2.334,0,0,1-.92.081c-.019,0-.03.006-.044.033q-.225.4-.452.8c-.107.191-.27.286-.378.218-.286-.179-.572-.36-.86-.539a.156.156,0,0,1-.058-.077.458.458,0,0,1,.06-.374c.149-.269.3-.536.45-.8.019-.032.021-.047.008-.066a2.624,2.624,0,0,1-.384-.893c-.006-.025-.017-.025-.039-.013-.209.122-.416.24-.624.36-.122.069-.218.043-.259-.074,0-.006,0-.019-.011-.016v-1.605c.011-.009.009-.022.011-.033a.646.646,0,0,1,.171-.3.564.564,0,0,1,.111-.081l.605-.348c.046-.027.038-.019.049-.074a7.679,7.679,0,0,1,.373-1.321c.011-.03.009-.043-.006-.052l-.455-.284c-.1-.066-.1-.265,0-.449l.058-.1q.4-.709.795-1.417a.619.619,0,0,1,.128-.166c.1-.084.185-.106.256-.062.15.093.3.186.447.281.028.017.021.021.055-.024a7.339,7.339,0,0,1,.923-.992.07.07,0,0,0,.028-.062v-.771a.606.606,0,0,1,.188-.417c.006-.006.016-.011.019-.025q.664-.382,1.329-.765c0,.013.014,0,.024,0a.142.142,0,0,1,.172.122.432.432,0,0,1,.009.114v.736c0,.025,0,.035.028.028a2.358,2.358,0,0,1,.928-.069c.019,0,.03,0,.046-.032q.22-.4.444-.793c.117-.207.277-.3.392-.226q.424.263.844.529c.115.073.114.267,0,.471l-.446.792c-.016.028-.019.044-.006.062a2.717,2.717,0,0,1,.387.9c0,.021.013.024.033.011l.262-.152c.131-.074.261-.152.392-.223s.207-.03.245.082C223.528,159.829,223.526,159.84,223.537,159.837Zm-4.451,5.377a3.758,3.758,0,0,0,1.7-2.975c.009-1.125-.728-1.6-1.658-1.081a3.75,3.75,0,0,0-1.694,2.966C217.427,165.26,218.169,165.726,219.086,165.214Z" transform="translate(-151.831 -156.821)" fill="#447296"/>
              <path id="Trazado_140226" data-name="Trazado 140226" d="M183.778,182.712v1.6a.034.034,0,0,0-.011.025.588.588,0,0,1-.265.384c-.21.122-.419.243-.629.362a.077.077,0,0,0-.041.063,7.707,7.707,0,0,1-.384,1.332c-.013.033-.009.046.008.057.15.092.3.186.447.281.111.07.109.265,0,.463l-.845,1.5c-.117.209-.277.3-.392.228-.15-.093-.3-.186-.447-.281-.014-.009-.025,0-.043.019-.071.093-.145.185-.221.272a7.148,7.148,0,0,1-.7.713c-.032.028-.032.028-.032.07v.027c0,.242,0,.484,0,.727a.6.6,0,0,1-.19.433c-.006.006-.014.009-.016.021l-1.327.766c0-.011-.011,0-.017,0-.122.021-.191-.055-.191-.207v-.782c0-.013,0-.017-.014-.014l-.024.006a2.322,2.322,0,0,1-.918.079c-.021,0-.03.008-.046.033q-.225.405-.452.806c-.107.191-.269.284-.376.218-.288-.179-.574-.36-.86-.54a.148.148,0,0,1-.06-.076.46.46,0,0,1,.062-.375q.223-.4.45-.8c.017-.032.021-.047.006-.066a2.656,2.656,0,0,1-.384-.893c0-.025-.016-.025-.039-.013l-.623.36c-.123.07-.22.043-.259-.074,0-.006,0-.019-.013-.016v-1.605a.046.046,0,0,0,.013-.033.642.642,0,0,1,.169-.3.511.511,0,0,1,.112-.081l.6-.348c.046-.027.039-.019.049-.074a7.828,7.828,0,0,1,.373-1.321c.013-.03.011-.043-.006-.052l-.453-.284c-.1-.066-.1-.265,0-.449l.057-.1.8-1.417a.573.573,0,0,1,.128-.166c.1-.084.185-.106.256-.062l.446.28c.03.019.022.021.057-.024a7.315,7.315,0,0,1,.923-.991.074.074,0,0,0,.028-.062c0-.258,0-.514,0-.771a.62.62,0,0,1,.188-.417c.008-.006.017-.011.021-.025q.664-.382,1.327-.765c0,.013.016,0,.024,0a.143.143,0,0,1,.174.122.43.43,0,0,1,.009.114c0,.245,0,.49,0,.736,0,.025.006.035.028.028a2.337,2.337,0,0,1,.929-.07c.017,0,.03,0,.044-.033l.444-.792c.117-.207.277-.3.393-.228l.844.531c.114.073.114.267,0,.471l-.444.792c-.016.028-.019.043-.008.06a2.676,2.676,0,0,1,.387.9c0,.021.014.024.033.011l.264-.152c.131-.074.261-.152.392-.224s.207-.028.243.084C183.768,182.7,183.767,182.715,183.778,182.712Zm-4.453,5.377a3.76,3.76,0,0,0,1.7-2.975c.009-1.127-.73-1.6-1.658-1.081a3.751,3.751,0,0,0-1.7,2.966C177.667,188.133,178.41,188.6,179.325,188.089Z" transform="translate(-174.896 -143.552)" fill="#447296"/>
              <g id="Grupo_91383" data-name="Grupo 91383" transform="translate(20.904 1.358)">
                <path id="Trazado_140227" data-name="Trazado 140227" d="M217.372,165.9l-.006.006a.521.521,0,0,0-.648-.019c-.436.237-.872.5-1.3.744-.294.172-.583.333-.879.506-.063.039-.09.033-.109-.038a9.069,9.069,0,0,0-1.283-2.988c-.044-.058-.032-.109.021-.2.493-.879.988-1.751,1.481-2.631a3.171,3.171,0,0,0,.155-.34l.128,1.027,3.317-.18-3.6-2.071c-.929-.591-1.866-1.18-2.8-1.763-.384-.245-.916.063-1.308.757-.493.872-.988,1.751-1.476,2.629-.051.09-.089.115-.147.109-.193-.025-.39-.038-.583-.046l.77-.9-.193-.109-3.342-1.891a.447.447,0,0,0-.442-.155c-.025.006-.063.033-.077-.006-1.468.847-2.944,1.694-4.412,2.547-.014.044-.046.057-.065.082a2.1,2.1,0,0,0-.495.725,1.9,1.9,0,0,0-.134.66v2.56a.228.228,0,0,1-.09.205,24.111,24.111,0,0,0-3.065,3.3c-.025.033-.044.052-.058.071l-.006.006-1.609-.931c-.239-.147-.526-.076-.853.205a2.045,2.045,0,0,0-.423.553q-1.318,2.356-2.65,4.713c-.063.115-.128.231-.193.34-.34.616-.34,1.277.006,1.495.251.16.495.314.744.468s.507.321.763.482c.052.032.058.071.021.174a26.29,26.29,0,0,0-1.239,4.386c-.032.186-.013.16-.166.25-.668.386-1.335.77-2.008,1.155a2.076,2.076,0,0,0-.365.269,1.86,1.86,0,0,0-.232.277,2,2,0,0,0-.333.738c-.013.032-.006.077-.044.109v5.336c.038-.013.032.033.044.052a.516.516,0,0,0,.327.359l3.528,2.071.141-.923c.071.122.149.243.224.365.039.065.077.128.117.186s.038.115-.021.218c-.5.891-1,1.776-1.5,2.667a1.553,1.553,0,0,0-.2,1.251.437.437,0,0,0,.2.25q1.424.905,2.855,1.8l3.8,2.149-.564-4.478-1.816,1.308c.442-.795.891-1.583,1.334-2.378.052-.09.084-.123.149-.111a7.641,7.641,0,0,0,3.053-.269l.077-.019c.038-.006.051.006.051.051v2.591c0,.36.122.578.321.66l-.006.006,3.912,2.1.417-4.348c.155-.084.308-.174.461-.264.006-.038.033-.051.052-.07a2.017,2.017,0,0,0,.635-1.438v-2.514c0-.128,0-.128.1-.224a23.607,23.607,0,0,0,2.34-2.373c.251-.289.5-.589.738-.9.058-.077.1-.09.142-.058.493.314.988.623,1.481.931.392.243.924-.065,1.308-.751q1.405-2.5,2.809-5c.367-.662.373-1.31.006-1.547-.493-.314-.988-.623-1.488-.929-.057-.04-.063-.077-.025-.193a25.329,25.329,0,0,0,1.277-4.426.265.265,0,0,1,.134-.212c.7-.4,1.4-.8,2.092-1.2a1.943,1.943,0,0,0,.885-1.283.153.153,0,0,1,.032-.084V169.7l.891.924,2.451-2.7Zm-14.6,18.2c-3.046,1.7-5.516.149-5.483-3.623a12.443,12.443,0,0,1,5.631-9.858c3.084-1.738,5.541-.155,5.51,3.585C208.392,177.968,205.847,182.381,202.767,184.092Z" transform="translate(-188.137 -157.866)" fill="#80690d"/>
                <path id="Trazado_140228" data-name="Trazado 140228" d="M204.524,160.219l-2.771,4.8-6.061-3.5a2.094,2.094,0,0,1,.495-.725c.019-.025.051-.038.065-.082,1.468-.853,2.944-1.7,4.412-2.547.014.039.052.013.077.006a.447.447,0,0,1,.442.155Z" transform="translate(-183.755 -157.692)" fill="#ffd118"/>
                <path id="Trazado_140229" data-name="Trazado 140229" d="M197.875,166.173l-4.208,7.294-2.88-1.662c-.25-.153-.493-.308-.744-.468-.346-.218-.346-.879-.006-1.495.065-.109.13-.224.193-.34q1.327-2.356,2.65-4.713a2.045,2.045,0,0,1,.423-.553c.327-.281.615-.352.853-.205l1.609.931.006-.006Z" transform="translate(-187.183 -154.334)" fill="#e1b815"/>
                <path id="Trazado_140230" data-name="Trazado 140230" d="M194.942,177.061l-2.541,4.394c-.076-.122-.153-.243-.224-.365l-.141.923-3.528-2.071a.516.516,0,0,1-.327-.359c-.013-.019-.006-.065-.044-.052v-5.336c.038-.032.032-.077.044-.109a2,2,0,0,1,.333-.738Z" transform="translate(-188.137 -148.886)" fill="#987c0e"/>
                <path id="Trazado_140231" data-name="Trazado 140231" d="M219.841,167.529v5.322c-.027.024-.025.054-.033.081a1.961,1.961,0,0,1-.885,1.281c-.7.4-1.392.8-2.089,1.2a.257.257,0,0,0-.137.21,25.81,25.81,0,0,1-1.275,4.429c-.043.112-.032.153.024.188q.747.462,1.488.935c.367.232.362.885-.006,1.541q-1.4,2.5-2.808,5c-.389.69-.921,1-1.308.754-.493-.311-.989-.619-1.481-.934-.051-.032-.085-.016-.144.062-.239.313-.485.613-.736.905a23.9,23.9,0,0,1-2.34,2.37c-.1.093-.1.093-.1.228v.089c0,.807,0,1.613,0,2.421a2,2,0,0,1-.635,1.438c-.019.019-.046.033-.049.071l-4.415,2.544c-.008-.033-.036-.013-.058-.009-.4.071-.632-.18-.634-.69v-2.509c0-.028,0-.057,0-.088s-.016-.055-.049-.046l-.077.019a7.707,7.707,0,0,1-3.054.264c-.065-.008-.1.024-.149.112q-.749,1.342-1.5,2.678c-.359.634-.9.946-1.255.724q-1.429-.894-2.855-1.795a.473.473,0,0,1-.2-.256,1.532,1.532,0,0,1,.2-1.245q.742-1.337,1.5-2.669c.06-.1.066-.156.022-.22a8.809,8.809,0,0,1-1.277-2.967c-.019-.084-.054-.087-.13-.043-.692.4-1.383.8-2.075,1.2-.406.234-.727.141-.86-.245-.008-.022,0-.066-.041-.052V184.49c.038-.035.033-.074.041-.111a2.1,2.1,0,0,1,.564-1.01,1.7,1.7,0,0,1,.37-.269q1-.578,2.008-1.158c.155-.089.13-.063.164-.248a25.873,25.873,0,0,1,1.24-4.388c.038-.1.033-.142-.021-.175q-.758-.469-1.509-.948c-.343-.216-.343-.879,0-1.492l.191-.343q1.325-2.358,2.648-4.717a1.993,1.993,0,0,1,.425-.548c.326-.28.613-.352.85-.205.5.308.989.621,1.484.932.1.06.073.068.188-.079a24.441,24.441,0,0,1,3.067-3.3.227.227,0,0,0,.093-.2q0-1.28,0-2.561a2.018,2.018,0,0,1,.624-1.386c.024-.024.057-.038.066-.084l4.415-2.544c.013.04.051.011.079.006a.477.477,0,0,1,.575.406,1.442,1.442,0,0,1,.03.378q0,1.223,0,2.448c0,.087.017.118.093.1a7.763,7.763,0,0,1,3.086-.231c.063.008.1-.019.15-.109q.735-1.318,1.477-2.632c.389-.694.92-1,1.307-.755q1.4.879,2.8,1.763c.381.24.378.886,0,1.564q-.739,1.318-1.479,2.632c-.052.093-.062.144-.024.2a8.993,8.993,0,0,1,1.286,2.988c.017.068.046.077.111.038.292-.171.585-.338.875-.506.435-.248.869-.506,1.3-.743.389-.213.69-.1.812.275C219.811,167.5,219.807,167.54,219.841,167.529Zm-14.8,17.879c3.081-1.716,5.628-6.124,5.661-9.9.032-3.742-2.424-5.326-5.511-3.59a12.473,12.473,0,0,0-5.633,9.86C199.526,185.557,202,187.108,205.039,185.408Z" transform="translate(-186.816 -157.105)" fill="#d2ac14"/>
              </g>
              <g id="Grupo_91384" data-name="Grupo 91384" transform="translate(2.688 7.974)">
                <path id="Trazado_140232" data-name="Trazado 140232" d="M197.743,173.864a4.8,4.8,0,0,0-.788.013.623.623,0,0,1-.507-.191,3.531,3.531,0,0,1-1.059-1.323,6.228,6.228,0,0,1-.032-1.507,1.072,1.072,0,0,1,.327-.839c.212-.224.417-.449.623-.667l.981,1.59,3.149-4.149-3.617-2.1c-.167-.07-.379.065-.719.411a.792.792,0,0,1-.071.077c-.153.166-.314.333-.468.5-.367.384-.732.776-1.09,1.179-.231.251-.4.367-.572.327l1.379-1.667,1.078-1.3s-3.617-2.09-3.629-2.09a.44.44,0,0,0-.308-.071c-.6.032-1.214.084-1.822.141a.893.893,0,0,0-.61.27,2.014,2.014,0,0,0-.378.814c-.224.777-.449,1.553-.667,2.323a1.085,1.085,0,0,1-.675.879,6.247,6.247,0,0,0-1.166.564l-2.457-1.417c-.168-.071-.386.058-.713.4-.6.635-1.187,1.277-1.782,1.917-.392.43-.545.751-.482,1.111a.9.9,0,0,0,.077.289c.231.57.468,1.128.719,1.68a.8.8,0,0,1-.149.822,26.175,26.175,0,0,0-1.564,2.783c-.161.333-.314.495-.558.507-.591.032-1.187.084-1.784.147a.941.941,0,0,0-.365.1c-.27.136-.442.43-.6.95-.256.86-.5,1.713-.744,2.572-.122.442-.128.706-.006.834a.241.241,0,0,0,.136.076l2.315,1.348v.006q-.009.818.019,1.616a1.116,1.116,0,0,1-.346.891c-.583.616-1.161,1.245-1.738,1.872a1.578,1.578,0,0,0-.461.79.966.966,0,0,0,.076.558c.239.583.488,1.147.738,1.719a.644.644,0,0,0,.27.359l3.566,2.059.013.006L181.3,191l.48-1.675.514-1.8a.068.068,0,0,1,.038.013c.212.089.245.262.142.6-.134.455-.264.905-.392,1.36-.032.1-.057.193-.084.288-.089.308-.172.616-.256.924-.147.52-.115.788.115.879l3.541,2.046c.333-.923.66-1.847.994-2.771.231-.654.468-1.308.7-1.962.076-.205.141-.635.294-.776a3.391,3.391,0,0,1,2-.262,4.654,4.654,0,0,1,1.52.776c.179.1,2.508,1.43,2.508,1.449l.807-1.52-2.642-1.975c.256-.283.52-.558.776-.841a28.142,28.142,0,0,0,2.271-3.252,14.938,14.938,0,0,0,1.457-2.463,7.083,7.083,0,0,0,.423-1.378c.082-.457.359-.66.512-1.1l2.617,1.669,1.662-3.31S197.762,173.864,197.743,173.864Zm-10.512,9.1a4.987,4.987,0,0,1-1.239.526c-.493.13-.634.13-.942-.288a5.9,5.9,0,0,1-.989-2.124,6.063,6.063,0,0,1,.61-4.491c.289-.487.648-.929.956-1.4a9.632,9.632,0,0,1,.847-1.225,6.093,6.093,0,0,1,1.147-.91c.675-.457,1.348-.905,2.021-1.354a2.569,2.569,0,0,1,1.841-.629c.327.065.52.834.616,1.13a5.835,5.835,0,0,1,.237,1.725A11.444,11.444,0,0,1,187.231,182.965Z" transform="translate(-176.608 -162.053)" fill="#4a4a4a"/>
                <path id="Trazado_140233" data-name="Trazado 140233" d="M182.6,173.125l-2.233,3.86-1.218-.7v-.006l-2.315-1.348a.241.241,0,0,1-.136-.076c-.122-.128-.115-.392.006-.834.245-.86.488-1.713.744-2.572.155-.52.327-.814.6-.95Z" transform="translate(-176.608 -157.157)" fill="#cfcfcf"/>
                <path id="Trazado_140234" data-name="Trazado 140234" d="M182.144,180.615l-.149.25-.7,1.214-.025.044-3.566-2.059a.644.644,0,0,1-.27-.359c-.25-.572-.5-1.136-.738-1.719a.966.966,0,0,1-.076-.558l5.156,2.975.3.174Z" transform="translate(-176.608 -153.135)" fill="#818181"/>
                <path id="Trazado_140235" data-name="Trazado 140235" d="M186.43,166.421l-2.233,3.866-4.382-2.533c-.063-.36.09-.681.482-1.111.6-.64,1.187-1.281,1.782-1.917.327-.346.545-.476.713-.4l2.457,1.417Z" transform="translate(-174.755 -160.748)" fill="#cfcfcf"/>
                <path id="Trazado_140236" data-name="Trazado 140236" d="M191.445,164.218l-1.078,1.3-5.292-3.053a.893.893,0,0,1,.61-.27c.608-.057,1.218-.109,1.822-.141a.44.44,0,0,1,.308.071C187.828,162.127,191.445,164.218,191.445,164.218Z" transform="translate(-171.696 -162.053)" fill="#cfcfcf"/>
                <path id="Trazado_140237" data-name="Trazado 140237" d="M200.188,175.577a1.385,1.385,0,0,1-.082.468c-.254.879-.5,1.757-.758,2.636-.2.69-.457.969-.935,1.016-.567.057-1.131.1-1.692.126-.294.016-.5.16-.722.627a23,23,0,0,1-1.495,2.664c-.243.376-.272.613-.156.866.242.537.472,1.087.7,1.642.213.521.112.866-.42,1.443-.593.643-1.185,1.285-1.781,1.915-.482.51-.736.532-.937.084-.24-.539-.472-1.087-.7-1.64-.118-.291-.292-.371-.642-.087a7.048,7.048,0,0,1-2.06,1.185.993.993,0,0,0-.618.773c-.226.815-.463,1.631-.7,2.446-.215.736-.455,1-.956,1.049q-.917.085-1.825.142c-.466.028-.577-.224-.389-.909.234-.856.48-1.713.733-2.571.1-.341.073-.518-.139-.6a5.34,5.34,0,0,1-1.6-1c-.175-.16-.341-.074-.569.174-.578.626-1.157,1.248-1.74,1.861-.532.561-.77.57-.994.057-.248-.57-.5-1.139-.736-1.722-.191-.474-.087-.831.386-1.348q.863-.943,1.737-1.871a1.117,1.117,0,0,0,.348-.894c-.032-.831-.033-1.684,0-2.553.016-.4-.095-.542-.374-.518-.567.052-1.131.095-1.694.131-.5.032-.6-.21-.393-.937q.36-1.287.738-2.572c.213-.725.466-1,.965-1.054.6-.06,1.193-.112,1.782-.145.245-.013.4-.171.561-.509a27.074,27.074,0,0,1,1.561-2.784.785.785,0,0,0,.149-.817c-.248-.551-.487-1.114-.716-1.683-.2-.5-.092-.86.4-1.4q.889-.965,1.782-1.917c.507-.54.757-.563.967-.089.24.54.472,1.087.7,1.637.114.272.277.356.608.087a6.888,6.888,0,0,1,2.06-1.188,1.106,1.106,0,0,0,.673-.877c.212-.773.438-1.547.664-2.321s.458-1.037.988-1.086c.61-.057,1.22-.106,1.825-.144.435-.027.55.235.373.88-.228.836-.471,1.672-.719,2.509-.12.408-.1.627.171.724a4.226,4.226,0,0,1,1.465.913c.235.221.447.126.758-.221.517-.572,1.041-1.123,1.564-1.681.6-.638.823-.664,1.067-.109s.487,1.112.721,1.681c.2.495.1.847-.4,1.392q-.863.943-1.733,1.874a1.058,1.058,0,0,0-.329.839c.027.853.03,1.725,0,2.612-.014.378.088.51.354.487.6-.052,1.187-.09,1.781-.136C200.018,175.112,200.2,175.2,200.188,175.577Zm-10.62-3.557a11.466,11.466,0,0,0-5.108,9.108c0,3.3,2.3,4.736,5.05,3.155a11.454,11.454,0,0,0,5.1-9.048C194.612,171.87,192.343,170.424,189.569,172.02Z" transform="translate(-175.288 -161.292)" fill="#9c9c9c"/>
                <path id="Trazado_140238" data-name="Trazado 140238" d="M194.352,166.757c.248-.837.491-1.673.719-2.509.177-.645.062-.907-.373-.88-.605.038-1.215.087-1.825.144-.529.049-.76.3-.988,1.086s-.452,1.548-.664,2.321a1.106,1.106,0,0,1-.673.877,6.888,6.888,0,0,0-2.06,1.188c-.332.269-.495.185-.608-.087-.229-.55-.461-1.1-.7-1.637-.21-.474-.46-.452-.967.089q-.894.95-1.781,1.917c-.5.539-.607.9-.406,1.4.229.569.468,1.131.716,1.683a.785.785,0,0,1-.149.817,27.074,27.074,0,0,0-1.561,2.784c-.166.338-.316.5-.561.509-.589.033-1.185.085-1.782.145-.5.049-.752.329-.965,1.054q-.377,1.287-.738,2.572c-.2.727-.1.969.393.937.563-.036,1.127-.079,1.694-.131.28-.025.39.117.374.518-.035.869-.033,1.722,0,2.553a1.117,1.117,0,0,1-.348.894q-.872.927-1.737,1.871c-.472.517-.577.874-.386,1.348.237.583.488,1.152.736,1.722.224.514.461.5.994-.057.583-.613,1.161-1.236,1.74-1.861.228-.248.393-.333.569-.174a5.48,5.48,0,0,0,.792.594l2.181-3.89a3.794,3.794,0,0,1-1.525-3.424,11.466,11.466,0,0,1,5.108-9.108,3.371,3.371,0,0,1,3.574-.245l2.182-3.9a4.086,4.086,0,0,0-.8-.4C194.255,167.384,194.231,167.165,194.352,166.757Z" transform="translate(-175.288 -161.292)" fill="#b5b5b5"/>
              </g>
              <path id="Trazado_140239" data-name="Trazado 140239" d="M227.705,169.2a.7.7,0,0,1-.04.232c-.128.438-.248.872-.378,1.31-.1.343-.228.48-.465.5-.283.028-.562.047-.841.063-.147.008-.248.079-.359.311a11.419,11.419,0,0,1-.743,1.324.408.408,0,0,0-.077.43c.12.267.234.54.346.815.106.259.055.43-.209.717-.294.319-.588.637-.885.951-.239.253-.365.264-.465.041q-.18-.4-.348-.815c-.06-.144-.145-.183-.319-.043a3.519,3.519,0,0,1-1.024.589.491.491,0,0,0-.307.384c-.112.4-.231.809-.349,1.215-.107.365-.226.5-.476.52q-.455.043-.907.071c-.231.014-.286-.112-.193-.45.117-.427.239-.852.365-1.278.049-.169.036-.256-.07-.3a2.642,2.642,0,0,1-.793-.5c-.087-.079-.169-.036-.283.085-.286.311-.574.621-.864.926-.264.278-.381.283-.493.028-.123-.284-.248-.567-.365-.856-.1-.235-.044-.412.191-.67.286-.311.574-.623.863-.929a.556.556,0,0,0,.172-.444c-.016-.412-.017-.836,0-1.269.006-.2-.047-.269-.186-.256-.281.025-.562.047-.842.065-.246.014-.3-.106-.2-.466q.18-.638.368-1.278c.106-.36.231-.5.479-.523.3-.03.593-.055.885-.073.122-.006.2-.084.28-.253a13.29,13.29,0,0,1,.776-1.383.391.391,0,0,0,.073-.406c-.123-.273-.242-.553-.355-.836-.1-.247-.046-.427.2-.7.294-.319.588-.637.885-.951.251-.269.376-.28.48-.044.118.269.234.54.349.814.055.134.136.175.3.043a3.468,3.468,0,0,1,1.022-.591.543.543,0,0,0,.335-.435c.106-.384.218-.768.33-1.153s.228-.515.49-.539c.3-.028.607-.052.907-.071.216-.014.273.117.185.436-.112.416-.234.831-.357,1.247-.06.2-.047.311.085.36a2.093,2.093,0,0,1,.727.453c.117.109.223.062.378-.111.256-.284.517-.558.777-.834.3-.318.408-.33.529-.055s.242.553.357.836c.1.246.051.42-.2.69-.286.313-.574.624-.861.931a.521.521,0,0,0-.163.419c.013.423.014.856,0,1.3-.006.186.044.253.175.242.3-.027.589-.046.885-.068C227.622,168.973,227.71,169.016,227.705,169.2Zm-5.274-1.767a5.7,5.7,0,0,0-2.539,4.524c0,1.64,1.142,2.353,2.509,1.567a5.686,5.686,0,0,0,2.534-4.494C224.936,167.363,223.809,166.644,222.431,167.437Z" transform="translate(-150.419 -153.45)" fill="#447296"/>
              <g id="Grupo_91385" data-name="Grupo 91385" transform="translate(68.038 10.113)">
                <path id="Trazado_140240" data-name="Trazado 140240" d="M228.467,169.274a2.375,2.375,0,0,0-.392.006.307.307,0,0,1-.251-.095,1.745,1.745,0,0,1-.526-.657,3.118,3.118,0,0,1-.016-.749.531.531,0,0,1,.163-.417c.1-.111.207-.223.308-.332l.488.792,1.564-2.062-1.8-1.041c-.084-.036-.188.032-.357.2-.009.013-.024.025-.035.038-.077.082-.156.164-.234.248-.182.191-.363.386-.542.586-.114.125-.2.182-.283.163l.686-.828.534-.648s-1.8-1.038-1.8-1.038a.22.22,0,0,0-.153-.035c-.3.016-.6.041-.905.069a.435.435,0,0,0-.3.134,1,1,0,0,0-.188.4c-.112.386-.223.771-.332,1.153a.535.535,0,0,1-.335.436,3.193,3.193,0,0,0-.58.281l-1.22-.7c-.082-.035-.191.028-.354.2-.3.314-.589.634-.885.953-.194.213-.272.373-.24.551a.4.4,0,0,0,.039.142c.114.284.232.561.357.836a.4.4,0,0,1-.074.408,13.145,13.145,0,0,0-.777,1.383c-.079.166-.156.245-.277.251-.294.016-.589.043-.886.074a.454.454,0,0,0-.182.051c-.134.066-.22.213-.3.471-.128.428-.25.852-.37,1.278-.062.22-.065.351,0,.414a.116.116,0,0,0,.066.038l1.15.67v0c0,.27,0,.539.009.8a.557.557,0,0,1-.172.444c-.291.3-.577.618-.863.929a.794.794,0,0,0-.231.392.474.474,0,0,0,.04.278c.117.289.242.57.365.853a.326.326,0,0,0,.134.179l1.771,1.022.006,0,.006-.027.24-.831.254-.9a.034.034,0,0,1,.019.006c.106.046.122.131.069.3-.066.226-.13.449-.194.676-.016.047-.028.095-.041.142-.044.153-.085.307-.126.46-.074.258-.058.392.057.436l1.759,1.016c.166-.458.329-.918.495-1.376.114-.326.232-.649.348-.975.038-.1.07-.316.145-.386a1.685,1.685,0,0,1,.991-.131,2.329,2.329,0,0,1,.755.386c.09.052,1.247.711,1.247.721l.4-.755L225.4,175.6c.128-.141.258-.277.386-.417a14.071,14.071,0,0,0,1.128-1.616,7.458,7.458,0,0,0,.724-1.223,3.477,3.477,0,0,0,.21-.686c.041-.226.179-.327.254-.547l1.3.828.825-1.645S228.476,169.274,228.467,169.274Zm-5.222,4.522a2.5,2.5,0,0,1-.616.261c-.245.063-.314.063-.468-.144a2.912,2.912,0,0,1-.49-1.054,3.01,3.01,0,0,1,.3-2.231c.144-.242.322-.461.476-.7a4.586,4.586,0,0,1,.42-.61,3.043,3.043,0,0,1,.57-.452c.335-.226.668-.449,1-.672a1.278,1.278,0,0,1,.915-.313c.163.032.258.414.3.561a2.854,2.854,0,0,1,.118.856A5.69,5.69,0,0,1,223.245,173.8Z" transform="translate(-217.967 -163.407)" fill="#4a4a4a"/>
                <path id="Trazado_140241" data-name="Trazado 140241" d="M220.943,168.907l-1.109,1.918-.605-.351v0l-1.15-.67a.116.116,0,0,1-.066-.038c-.062-.063-.058-.194,0-.414.12-.427.242-.85.37-1.278.076-.258.161-.4.3-.471Z" transform="translate(-217.966 -160.975)" fill="#cfcfcf"/>
                <path id="Trazado_140242" data-name="Trazado 140242" d="M220.718,172.629l-.074.123-.348.6-.013.022-1.771-1.022a.326.326,0,0,1-.134-.179c-.123-.283-.248-.564-.365-.853a.474.474,0,0,1-.04-.278l2.563,1.479.149.087Z" transform="translate(-217.967 -158.977)" fill="#818181"/>
                <path id="Trazado_140243" data-name="Trazado 140243" d="M222.845,165.576l-1.108,1.921-2.177-1.258c-.032-.179.046-.338.24-.551.3-.319.589-.638.885-.953.163-.172.272-.235.354-.2l1.22.7Z" transform="translate(-217.046 -162.759)" fill="#cfcfcf"/>
                <path id="Trazado_140244" data-name="Trazado 140244" d="M225.337,164.481l-.534.648-2.629-1.517a.435.435,0,0,1,.3-.134c.3-.028.607-.054.905-.069a.22.22,0,0,1,.153.035C223.541,163.443,225.337,164.481,225.337,164.481Z" transform="translate(-215.526 -163.407)" fill="#cfcfcf"/>
                <path id="Trazado_140245" data-name="Trazado 140245" d="M229.68,170.125a.657.657,0,0,1-.04.232c-.126.436-.248.872-.376,1.31-.1.343-.228.48-.465.5-.283.028-.563.047-.842.063-.145.008-.248.079-.359.311a11.436,11.436,0,0,1-.743,1.324.411.411,0,0,0-.077.43q.18.4.348.815c.106.259.055.43-.209.716q-.441.481-.885.953c-.24.253-.367.264-.466.041q-.178-.4-.348-.815c-.058-.144-.145-.185-.319-.043a3.457,3.457,0,0,1-1.024.588.494.494,0,0,0-.3.386c-.112.4-.231.809-.349,1.214-.107.367-.228.5-.476.521q-.457.043-.907.071c-.232.014-.286-.112-.193-.452q.175-.638.363-1.277c.051-.169.036-.258-.068-.3a2.633,2.633,0,0,1-.793-.5c-.087-.081-.169-.036-.283.085-.288.311-.575.621-.864.926-.265.278-.382.283-.493.028-.123-.284-.248-.567-.367-.856-.095-.235-.043-.412.191-.668q.429-.472.863-.931a.546.546,0,0,0,.172-.444c-.014-.412-.016-.837,0-1.269.008-.2-.047-.269-.186-.256-.281.024-.561.046-.841.063-.247.016-.3-.1-.2-.465.12-.427.242-.852.367-1.278.106-.36.231-.5.479-.523.3-.03.593-.055.886-.073.122-.006.2-.084.278-.253a13.592,13.592,0,0,1,.776-1.383.4.4,0,0,0,.074-.406c-.123-.273-.242-.553-.356-.836-.1-.246-.046-.427.2-.7q.441-.479.885-.951c.253-.269.376-.28.48-.044.12.269.235.54.349.814.057.134.137.175.3.043a3.455,3.455,0,0,1,1.024-.591.545.545,0,0,0,.333-.435c.106-.384.218-.77.33-1.153s.228-.515.49-.54c.3-.028.607-.052.907-.07.216-.014.273.115.186.436q-.171.623-.359,1.247c-.058.2-.047.311.085.359a2.1,2.1,0,0,1,.728.455c.117.109.221.063.376-.111.256-.284.518-.558.777-.834.3-.318.409-.33.531-.055s.242.553.357.836c.1.246.049.42-.2.691-.286.313-.572.624-.861.931a.53.53,0,0,0-.163.417c.013.425.014.858,0,1.3-.006.188.044.254.177.243.3-.027.589-.046.883-.068C229.6,169.894,229.685,169.935,229.68,170.125Zm-5.274-1.767a5.691,5.691,0,0,0-2.538,4.524c0,1.64,1.142,2.353,2.508,1.567a5.7,5.7,0,0,0,2.536-4.5C226.912,168.282,225.783,167.565,224.406,168.358Z" transform="translate(-217.311 -163.029)" fill="#9c9c9c"/>
                <path id="Trazado_140246" data-name="Trazado 140246" d="M226.781,165.743q.187-.623.359-1.247c.087-.321.03-.45-.186-.436-.3.017-.6.041-.907.07-.262.025-.376.153-.49.54s-.224.77-.33,1.153a.545.545,0,0,1-.333.435,3.455,3.455,0,0,0-1.024.591c-.164.133-.245.092-.3-.043-.114-.273-.229-.545-.349-.814-.1-.235-.228-.224-.48.044q-.443.472-.885.951c-.246.269-.3.449-.2.7.114.283.232.563.356.836a.392.392,0,0,1-.074.406,13.592,13.592,0,0,0-.776,1.383c-.082.169-.156.246-.278.253-.294.017-.589.043-.886.073-.248.024-.373.163-.479.523-.125.427-.246.852-.367,1.278-.1.36-.051.48.2.465.28-.017.559-.039.841-.063.139-.013.194.057.186.256-.017.431-.016.856,0,1.269a.546.546,0,0,1-.172.444q-.434.46-.863.931c-.234.256-.286.433-.191.668.118.289.243.572.367.856.111.254.228.25.493-.028.289-.3.577-.615.864-.926.114-.122.2-.166.283-.085a2.72,2.72,0,0,0,.393.3l1.082-1.932a1.887,1.887,0,0,1-.757-1.7,5.691,5.691,0,0,1,2.538-4.524,1.671,1.671,0,0,1,1.774-.122l1.086-1.936a2.1,2.1,0,0,0-.4-.2C226.733,166.054,226.722,165.945,226.781,165.743Z" transform="translate(-217.311 -163.029)" fill="#b5b5b5"/>
              </g>
              <path id="Trazado_140247" data-name="Trazado 140247" d="M185.849,192.272a.657.657,0,0,1-.04.232c-.126.436-.248.872-.378,1.308-.1.344-.226.482-.465.506-.281.028-.562.047-.841.063-.145.008-.248.079-.359.311a11.443,11.443,0,0,1-.743,1.324.411.411,0,0,0-.077.43q.18.4.348.815c.106.259.055.43-.209.716-.3.319-.589.638-.885.953-.24.253-.367.264-.466.041q-.178-.4-.348-.815c-.058-.144-.145-.185-.319-.043a3.458,3.458,0,0,1-1.024.588.494.494,0,0,0-.3.384c-.114.4-.231.811-.351,1.215-.106.367-.226.5-.476.521q-.455.043-.905.071c-.232.014-.286-.112-.193-.452.115-.425.239-.85.363-1.277.051-.169.036-.258-.068-.3a2.666,2.666,0,0,1-.793-.5c-.087-.081-.169-.036-.283.085-.288.311-.575.621-.864.926-.265.278-.382.283-.493.027-.125-.283-.248-.566-.367-.855-.095-.235-.043-.412.191-.67q.429-.469.863-.929a.552.552,0,0,0,.174-.444c-.016-.414-.017-.837,0-1.269.008-.2-.047-.27-.186-.258-.281.025-.562.047-.841.065-.246.016-.3-.1-.2-.465.118-.427.242-.852.367-1.278.106-.36.231-.5.479-.525.3-.028.593-.055.886-.071.122-.006.2-.084.278-.253a13.413,13.413,0,0,1,.776-1.383.387.387,0,0,0,.073-.406c-.122-.273-.24-.553-.355-.836-.1-.247-.044-.427.2-.7q.441-.479.885-.951c.253-.269.376-.28.48-.044.12.269.235.54.349.814.057.134.137.175.3.043a3.421,3.421,0,0,1,1.024-.591.545.545,0,0,0,.333-.435c.106-.384.218-.77.33-1.153s.228-.515.49-.54c.3-.028.607-.052.907-.071.216-.013.273.117.186.438-.114.416-.235.831-.359,1.247-.058.2-.047.311.085.359a2.125,2.125,0,0,1,.728.453c.117.111.221.063.376-.109.256-.284.518-.558.777-.836.3-.316.409-.329.531-.054s.242.553.357.834c.1.246.049.422-.2.692-.286.313-.572.624-.861.931a.53.53,0,0,0-.163.417c.013.425.014.856,0,1.3-.006.188.044.254.177.242.3-.025.589-.044.883-.066C185.765,192.042,185.854,192.083,185.849,192.272Zm-5.274-1.767a5.688,5.688,0,0,0-2.538,4.524c0,1.64,1.141,2.353,2.508,1.567a5.7,5.7,0,0,0,2.536-4.5C183.081,190.43,181.953,189.713,180.575,190.506Z" transform="translate(-174.699 -140.069)" fill="#447296"/>
              <g id="Grupo_91386" data-name="Grupo 91386" transform="translate(1.904 46.561)">
                <path id="Trazado_140248" data-name="Trazado 140248" d="M186.61,192.342a2.371,2.371,0,0,0-.392.006.311.311,0,0,1-.251-.095,1.772,1.772,0,0,1-.526-.657,3.116,3.116,0,0,1-.016-.749.531.531,0,0,1,.163-.417c.106-.112.207-.223.31-.332l.487.79,1.564-2.06-1.8-1.043c-.082-.035-.188.032-.357.2a.381.381,0,0,1-.035.038c-.077.084-.156.166-.232.25-.182.191-.363.386-.542.586-.115.123-.2.182-.284.163l.686-.83.536-.646s-1.8-1.038-1.8-1.038a.21.21,0,0,0-.152-.036c-.3.017-.6.043-.905.071a.438.438,0,0,0-.3.134,1.016,1.016,0,0,0-.188.4c-.111.386-.223.771-.33,1.153a.543.543,0,0,1-.335.436,3.132,3.132,0,0,0-.58.28l-1.22-.7c-.084-.035-.193.028-.354.2-.3.314-.589.634-.886.953-.194.213-.27.373-.239.55a.433.433,0,0,0,.038.144c.115.284.232.561.357.836a.4.4,0,0,1-.074.408,13.263,13.263,0,0,0-.777,1.383c-.079.166-.155.245-.277.251-.292.016-.589.041-.886.074a.46.46,0,0,0-.182.051c-.133.066-.22.213-.3.471-.128.427-.248.852-.37,1.278-.06.22-.063.351,0,.414a.116.116,0,0,0,.066.038l1.15.67v0c0,.27,0,.539.009.8a.551.551,0,0,1-.172.442c-.289.307-.577.618-.863.931a.789.789,0,0,0-.229.392.488.488,0,0,0,.038.278c.118.289.242.57.367.853a.318.318,0,0,0,.134.179l1.771,1.022.006,0,.006-.025.239-.831.254-.9a.039.039,0,0,1,.021.006c.1.044.12.131.07.3-.068.226-.131.449-.194.675-.016.047-.028.1-.041.144-.046.153-.087.307-.128.458-.073.259-.057.392.057.438l1.759,1.016c.166-.458.329-.918.495-1.376.115-.325.232-.651.348-.975.038-.1.07-.316.147-.386a1.685,1.685,0,0,1,.991-.131,2.33,2.33,0,0,1,.755.386c.088.051,1.245.711,1.245.721l.4-.755-1.313-.981c.128-.141.259-.278.386-.417a13.875,13.875,0,0,0,1.128-1.616,7.344,7.344,0,0,0,.724-1.223,3.373,3.373,0,0,0,.21-.686c.041-.226.179-.327.254-.548l1.3.83.825-1.645S186.62,192.342,186.61,192.342Zm-5.222,4.521a2.521,2.521,0,0,1-.615.262c-.245.063-.316.063-.468-.144a2.909,2.909,0,0,1-.491-1.055,3.006,3.006,0,0,1,.3-2.229c.142-.242.321-.463.474-.7a4.827,4.827,0,0,1,.42-.608,3.043,3.043,0,0,1,.57-.452c.335-.226.67-.449,1-.673a1.269,1.269,0,0,1,.915-.311c.163.032.258.414.307.561a2.9,2.9,0,0,1,.117.856A5.685,5.685,0,0,1,181.388,196.863Z" transform="translate(-176.112 -186.474)" fill="#4a4a4a"/>
                <path id="Trazado_140249" data-name="Trazado 140249" d="M179.087,191.975l-1.109,1.918-.605-.351v0l-1.15-.67a.116.116,0,0,1-.066-.038c-.06-.063-.057-.194,0-.414.122-.427.242-.852.37-1.278.076-.258.163-.4.3-.471Z" transform="translate(-176.111 -184.041)" fill="#cfcfcf"/>
                <path id="Trazado_140250" data-name="Trazado 140250" d="M178.861,195.7l-.073.125-.348.6-.013.022-1.771-1.022a.318.318,0,0,1-.134-.179c-.125-.283-.248-.564-.367-.853a.488.488,0,0,1-.038-.278l2.561,1.479.15.085Z" transform="translate(-176.112 -182.044)" fill="#818181"/>
                <path id="Trazado_140251" data-name="Trazado 140251" d="M180.991,188.644l-1.109,1.921-2.176-1.259c-.032-.177.044-.337.239-.55.3-.319.589-.638.886-.953.161-.172.27-.235.354-.2l1.22.7Z" transform="translate(-175.191 -185.825)" fill="#cfcfcf"/>
                <path id="Trazado_140252" data-name="Trazado 140252" d="M183.483,187.55l-.536.646-2.629-1.515a.438.438,0,0,1,.3-.134c.3-.028.605-.054.905-.071a.21.21,0,0,1,.152.036C181.685,186.512,183.483,187.55,183.483,187.55Z" transform="translate(-173.672 -186.474)" fill="#cfcfcf"/>
                <path id="Trazado_140253" data-name="Trazado 140253" d="M187.825,193.193a.669.669,0,0,1-.041.232c-.126.436-.248.872-.376,1.308-.1.343-.228.482-.465.506-.283.028-.563.047-.841.062-.147.008-.248.079-.359.313a11.68,11.68,0,0,1-.743,1.324.4.4,0,0,0-.077.43c.12.265.234.539.346.815.106.259.055.43-.209.716-.294.319-.588.638-.885.951-.239.254-.365.265-.465.043q-.18-.4-.348-.815c-.06-.144-.145-.185-.319-.044a3.449,3.449,0,0,1-1.024.589.493.493,0,0,0-.307.384c-.112.4-.231.811-.349,1.215-.107.365-.228.5-.476.521q-.455.043-.907.071c-.231.014-.286-.112-.193-.452.117-.425.239-.852.363-1.277.051-.169.036-.258-.068-.3a2.642,2.642,0,0,1-.793-.5c-.087-.079-.169-.036-.283.087-.286.311-.575.621-.864.924-.264.28-.381.284-.493.03-.123-.284-.248-.567-.365-.856-.1-.235-.044-.412.191-.67q.429-.469.863-.929a.558.558,0,0,0,.172-.444c-.016-.414-.017-.837,0-1.269.008-.2-.046-.27-.185-.258-.283.025-.562.047-.842.065-.247.016-.3-.1-.2-.466.12-.425.242-.85.368-1.277.1-.36.231-.5.479-.523.3-.03.593-.057.885-.073.122-.006.2-.084.28-.253a13.134,13.134,0,0,1,.776-1.383.391.391,0,0,0,.073-.406c-.123-.275-.242-.553-.356-.837-.1-.245-.046-.427.2-.694q.441-.479.883-.951c.253-.269.378-.28.482-.044.118.267.234.54.349.814.055.134.136.175.3.043a3.441,3.441,0,0,1,1.024-.591.546.546,0,0,0,.335-.436c.106-.384.218-.768.33-1.152s.228-.515.49-.54c.3-.028.605-.052.907-.071.215-.013.273.117.185.438-.114.416-.234.831-.357,1.247-.06.2-.047.311.085.359a2.109,2.109,0,0,1,.727.453c.117.111.223.063.378-.109.256-.284.517-.558.776-.836.3-.318.409-.329.531-.054s.242.553.357.836c.1.245.051.42-.2.69-.286.313-.574.624-.861.931a.519.519,0,0,0-.163.417c.013.425.014.858,0,1.3-.006.188.044.254.175.242.3-.025.589-.044.885-.068C187.742,192.963,187.83,193,187.825,193.193Zm-5.276-1.767a5.693,5.693,0,0,0-2.538,4.524c0,1.64,1.142,2.353,2.509,1.567a5.689,5.689,0,0,0,2.534-4.5C185.056,191.351,183.929,190.634,182.55,191.427Z" transform="translate(-175.456 -186.096)" fill="#9c9c9c"/>
                <path id="Trazado_140254" data-name="Trazado 140254" d="M184.926,188.812c.123-.416.243-.831.357-1.247.089-.321.03-.45-.185-.438-.3.019-.6.043-.907.071-.262.025-.378.152-.49.54s-.224.768-.33,1.152a.546.546,0,0,1-.335.436,3.441,3.441,0,0,0-1.024.591c-.164.133-.245.092-.3-.043-.115-.273-.231-.547-.349-.814-.1-.235-.229-.224-.482.044q-.443.472-.883.951c-.248.267-.3.449-.2.694.114.284.232.563.356.837a.391.391,0,0,1-.073.406,13.134,13.134,0,0,0-.776,1.383c-.082.169-.158.246-.28.253-.292.016-.588.043-.885.073-.248.024-.374.163-.479.523-.126.427-.248.852-.368,1.277-.1.362-.051.482.2.466.28-.017.559-.039.842-.065.139-.013.193.058.185.258-.017.431-.016.855,0,1.269a.558.558,0,0,1-.172.444q-.434.46-.863.929c-.235.258-.288.435-.191.67.117.289.242.572.365.856.112.254.229.25.493-.03.289-.3.578-.613.864-.924.114-.123.2-.166.283-.087a2.736,2.736,0,0,0,.393.3l1.084-1.934a1.883,1.883,0,0,1-.758-1.7,5.693,5.693,0,0,1,2.538-4.524,1.678,1.678,0,0,1,1.776-.123l1.084-1.936a2.032,2.032,0,0,0-.4-.2C184.879,189.123,184.866,189.014,184.926,188.812Z" transform="translate(-175.456 -186.096)" fill="#b5b5b5"/>
              </g>
              <g id="Grupo_91387" data-name="Grupo 91387" transform="translate(50.481 10.203)">
                <path id="Trazado_140255" data-name="Trazado 140255" d="M222.357,172.128a3.441,3.441,0,0,0-.578.009.453.453,0,0,1-.371-.142,2.6,2.6,0,0,1-.777-.969,4.533,4.533,0,0,1-.022-1.106.78.78,0,0,1,.239-.616c.155-.164.307-.329.457-.488l.721,1.166,2.309-3.043-2.653-1.539c-.122-.052-.278.047-.526.3a.559.559,0,0,1-.052.055c-.112.123-.231.245-.343.368-.269.281-.537.569-.8.866-.171.183-.3.267-.419.239l1.011-1.223.79-.954s-2.653-1.534-2.662-1.534a.333.333,0,0,0-.226-.052c-.442.024-.89.062-1.337.1a.655.655,0,0,0-.447.2,1.461,1.461,0,0,0-.276.6c-.166.569-.33,1.139-.49,1.7a.8.8,0,0,1-.495.645,4.549,4.549,0,0,0-.855.414l-1.8-1.04c-.122-.052-.281.043-.521.3-.438.466-.871.937-1.308,1.408-.286.314-.4.55-.352.814a.654.654,0,0,0,.057.212c.169.419.343.828.526,1.232a.581.581,0,0,1-.107.6,19.115,19.115,0,0,0-1.149,2.041c-.117.245-.231.362-.409.371-.433.024-.871.062-1.308.109a.678.678,0,0,0-.267.074c-.2.1-.325.316-.438.7-.188.63-.368,1.256-.547,1.887-.089.324-.093.517,0,.612a.174.174,0,0,0,.1.057l1.7.988v0q-.007.6.014,1.185a.82.82,0,0,1-.254.654c-.428.452-.852.913-1.275,1.373a1.158,1.158,0,0,0-.338.58.716.716,0,0,0,.055.409c.174.428.359.842.542,1.261a.467.467,0,0,0,.2.262l2.615,1.511.009,0,.009-.038.352-1.228.378-1.323a.042.042,0,0,1,.027.009c.156.066.18.193.1.442-.1.335-.193.664-.288,1-.024.07-.041.141-.06.212-.066.224-.128.45-.188.676-.109.381-.085.578.084.645l2.6,1.5c.243-.678.483-1.356.728-2.032.169-.48.343-.961.514-1.439.055-.152.1-.466.216-.57a2.49,2.49,0,0,1,1.462-.193,3.4,3.4,0,0,1,1.116.57c.133.074,1.839,1.048,1.839,1.062l.594-1.114-1.939-1.449c.188-.207.381-.409.569-.616a20.571,20.571,0,0,0,1.665-2.386,10.944,10.944,0,0,0,1.068-1.806,5.084,5.084,0,0,0,.31-1.011c.062-.335.264-.485.376-.809l1.92,1.223,1.218-2.429S222.371,172.128,222.357,172.128Zm-7.711,6.674a3.645,3.645,0,0,1-.909.387c-.362.093-.465.093-.69-.212a4.369,4.369,0,0,1-.725-1.558,4.448,4.448,0,0,1,.447-3.293c.212-.357.476-.683.7-1.03a7.031,7.031,0,0,1,.621-.9,4.484,4.484,0,0,1,.842-.667c.493-.335.988-.664,1.482-.994a1.878,1.878,0,0,1,1.349-.46c.24.046.381.611.452.828a4.276,4.276,0,0,1,.174,1.264A8.4,8.4,0,0,1,214.646,178.8Z" transform="translate(-206.856 -163.464)" fill="#005224"/>
                <path id="Trazado_140256" data-name="Trazado 140256" d="M211.25,171.584l-1.639,2.831-.893-.517v0l-1.7-.988a.174.174,0,0,1-.1-.057c-.089-.095-.084-.288,0-.612.179-.63.359-1.256.547-1.887.112-.381.24-.6.438-.7Z" transform="translate(-206.855 -159.873)" fill="#19bd60"/>
                <path id="Trazado_140257" data-name="Trazado 140257" d="M210.915,177.078l-.107.185-.514.888-.019.033-2.615-1.511a.467.467,0,0,1-.2-.262c-.183-.419-.368-.833-.542-1.261a.716.716,0,0,1-.055-.409l3.781,2.182.221.128Z" transform="translate(-206.856 -156.922)" fill="#0f6f39"/>
                <path id="Trazado_140258" data-name="Trazado 140258" d="M214.058,166.666l-1.637,2.838-3.212-1.858c-.047-.264.066-.5.352-.814.438-.471.871-.942,1.308-1.408.24-.253.4-.348.521-.3l1.8,1.04Z" transform="translate(-205.497 -162.506)" fill="#19bd60"/>
                <path id="Trazado_140259" data-name="Trazado 140259" d="M217.738,165.052l-.79.954-3.882-2.239a.655.655,0,0,1,.447-.2c.447-.043.894-.081,1.337-.1a.333.333,0,0,1,.226.052C215.085,163.518,217.738,165.052,217.738,165.052Z" transform="translate(-203.253 -163.464)" fill="#19bd60"/>
                <path id="Trazado_140260" data-name="Trazado 140260" d="M224.149,173.383a.958.958,0,0,1-.058.343c-.186.645-.367,1.289-.556,1.934-.15.506-.335.709-.686.744-.417.043-.831.071-1.242.093-.215.011-.367.117-.529.46a17.137,17.137,0,0,1-1.1,1.955.607.607,0,0,0-.115.635c.179.393.348.8.512,1.2.156.384.082.637-.308,1.059q-.649.709-1.307,1.4c-.352.374-.539.39-.686.062-.177-.4-.346-.8-.514-1.2-.087-.213-.215-.273-.471-.065a5.165,5.165,0,0,1-1.512.869.731.731,0,0,0-.452.567c-.166.6-.34,1.2-.515,1.795-.158.539-.335.735-.7.768-.447.043-.894.077-1.338.1-.341.022-.422-.164-.284-.665q.258-.941.537-1.887c.074-.25.054-.379-.1-.441a3.9,3.9,0,0,1-1.171-.735c-.128-.117-.25-.054-.417.128-.423.458-.848.915-1.277,1.365-.39.411-.564.419-.728.041-.182-.417-.365-.836-.539-1.262-.141-.348-.065-.61.281-.989q.635-.692,1.274-1.372a.819.819,0,0,0,.256-.656c-.024-.611-.025-1.236,0-1.874.013-.294-.068-.4-.273-.379q-.623.057-1.242.1c-.365.022-.439-.155-.289-.689.175-.627.357-1.256.54-1.887.156-.531.343-.736.708-.773.439-.044.875-.082,1.308-.106.179-.009.291-.125.411-.373a19.549,19.549,0,0,1,1.146-2.043.58.58,0,0,0,.109-.6c-.182-.4-.357-.817-.526-1.234-.145-.363-.066-.63.3-1.025q.649-.709,1.305-1.406c.373-.4.556-.412.711-.065q.263.595.514,1.2c.084.2.2.259.446.062a5.087,5.087,0,0,1,1.512-.871.81.81,0,0,0,.493-.643c.156-.567.322-1.134.488-1.7s.335-.762.724-.8c.447-.041.894-.076,1.338-.1.319-.021.4.172.273.645-.167.613-.346,1.228-.528,1.841-.089.3-.07.46.125.531a3.089,3.089,0,0,1,1.076.67c.172.161.327.093.556-.163.378-.419.763-.825,1.147-1.232.438-.469.6-.487.782-.081s.357.817.528,1.232c.149.363.073.623-.292,1.021-.423.461-.847.921-1.272,1.375a.777.777,0,0,0-.24.616c.019.627.021,1.266,0,1.915-.011.278.065.374.259.357.436-.038.871-.066,1.305-.1C224.026,173.042,224.157,173.1,224.149,173.383Zm-7.788-2.609a8.409,8.409,0,0,0-3.746,6.681c0,2.421,1.686,3.473,3.7,2.313a8.4,8.4,0,0,0,3.742-6.636C220.061,170.664,218.4,169.6,216.361,170.774Z" transform="translate(-205.888 -162.905)" fill="#128a46"/>
                <path id="Trazado_140261" data-name="Trazado 140261" d="M219.869,166.914c.182-.613.36-1.228.528-1.841.13-.472.046-.665-.273-.645-.444.028-.891.063-1.338.1-.389.036-.558.224-.724.8s-.332,1.134-.488,1.7a.81.81,0,0,1-.493.643,5.087,5.087,0,0,0-1.512.871c-.243.2-.362.136-.446-.062q-.251-.607-.514-1.2c-.155-.348-.338-.33-.711.065q-.654.7-1.305,1.406c-.365.4-.444.662-.3,1.025.169.417.344.83.525,1.234a.576.576,0,0,1-.107.6,19.549,19.549,0,0,0-1.146,2.043c-.12.248-.232.363-.411.373-.433.024-.869.062-1.308.106-.365.036-.551.242-.708.773-.183.63-.365,1.259-.54,1.887-.15.534-.076.711.289.689q.619-.04,1.242-.1c.205-.019.286.085.273.379-.025.638-.024,1.263,0,1.874a.819.819,0,0,1-.256.656q-.64.678-1.274,1.372c-.346.379-.422.642-.281.988.174.428.357.847.539,1.264.164.378.338.37.728-.041.428-.45.853-.907,1.277-1.365.168-.182.289-.245.417-.128a3.852,3.852,0,0,0,.581.436l1.6-2.854a2.784,2.784,0,0,1-1.119-2.511,8.409,8.409,0,0,1,3.746-6.681,2.469,2.469,0,0,1,2.621-.179l1.6-2.858a2.885,2.885,0,0,0-.589-.292C219.8,167.374,219.78,167.213,219.869,166.914Z" transform="translate(-205.888 -162.905)" fill="#16a354"/>
              </g>
              <g id="Grupo_91388" data-name="Grupo 91388" transform="translate(13.497 34.92)">
                <path id="Trazado_140262" data-name="Trazado 140262" d="M194.668,185.375a2.537,2.537,0,0,0-.419.008.337.337,0,0,1-.27-.1,1.865,1.865,0,0,1-.561-.7,3.373,3.373,0,0,1-.017-.8.569.569,0,0,1,.174-.446c.112-.12.221-.239.33-.354l.521.844,1.672-2.2-1.921-1.114c-.089-.036-.2.035-.381.218a.228.228,0,0,1-.038.041c-.081.089-.166.177-.248.265-.194.2-.389.412-.578.627-.123.131-.215.193-.3.172l.732-.885.572-.69s-1.92-1.109-1.926-1.109a.225.225,0,0,0-.164-.038c-.319.017-.643.044-.967.074a.469.469,0,0,0-.322.144,1.045,1.045,0,0,0-.2.431c-.12.412-.239.825-.354,1.232a.577.577,0,0,1-.359.466,3.42,3.42,0,0,0-.619.3l-1.3-.752c-.088-.038-.2.03-.378.215-.318.337-.63.676-.946,1.018-.209.228-.289.4-.256.589a.473.473,0,0,0,.041.153c.123.3.248.6.381.891a.422.422,0,0,1-.077.436,13.787,13.787,0,0,0-.831,1.477c-.085.177-.166.262-.3.269q-.472.026-.947.079a.475.475,0,0,0-.194.054c-.144.071-.235.229-.318.5-.136.457-.265.91-.4,1.365-.063.235-.068.374,0,.442a.123.123,0,0,0,.073.041l1.228.716v0c0,.289,0,.575.011.858a.6.6,0,0,1-.183.472c-.311.327-.618.66-.923.994a.855.855,0,0,0-.246.419.525.525,0,0,0,.041.3c.126.31.259.608.392.912a.339.339,0,0,0,.144.191l1.893,1.093.006,0,.006-.027.256-.89.272-.956a.035.035,0,0,1,.021.006c.112.047.13.139.074.321-.071.242-.139.479-.207.721-.017.052-.03.1-.044.153-.047.164-.092.327-.136.491-.079.275-.062.417.062.466l1.879,1.086c.177-.49.351-.98.528-1.471.122-.346.248-.694.371-1.041.041-.109.074-.337.156-.412a1.8,1.8,0,0,1,1.059-.139,2.493,2.493,0,0,1,.807.412c.095.054,1.33.758,1.33.768l.43-.806-1.4-1.049c.136-.15.277-.3.412-.446a14.906,14.906,0,0,0,1.2-1.725,8.025,8.025,0,0,0,.774-1.308,3.869,3.869,0,0,0,.224-.732c.044-.242.19-.351.272-.586l1.389.886.882-1.757S194.677,185.375,194.668,185.375Zm-5.581,4.832a2.691,2.691,0,0,1-.657.28c-.262.068-.337.068-.5-.153a3.116,3.116,0,0,1-.525-1.127,3.223,3.223,0,0,1,.322-2.384c.153-.258.344-.493.509-.746a5.04,5.04,0,0,1,.449-.649,3.173,3.173,0,0,1,.61-.484c.357-.242.714-.48,1.071-.719a1.365,1.365,0,0,1,.978-.333c.174.033.275.442.327.6a3.1,3.1,0,0,1,.125.916A6.076,6.076,0,0,1,189.087,190.207Z" transform="translate(-183.449 -179.107)" fill="#005224"/>
                <path id="Trazado_140263" data-name="Trazado 140263" d="M186.629,184.984l-1.185,2.049-.648-.374v0l-1.228-.716a.123.123,0,0,1-.073-.041c-.065-.068-.06-.207,0-.442.13-.455.259-.909.4-1.365.082-.275.174-.433.318-.5Z" transform="translate(-183.448 -176.508)" fill="#19bd60"/>
                <path id="Trazado_140264" data-name="Trazado 140264" d="M186.388,188.959l-.079.133-.371.645-.013.024-1.893-1.093a.339.339,0,0,1-.144-.191c-.133-.3-.265-.6-.392-.912a.525.525,0,0,1-.041-.3l2.738,1.58.16.092Z" transform="translate(-183.449 -174.373)" fill="#0f6f39"/>
                <path id="Trazado_140265" data-name="Trazado 140265" d="M188.663,181.426l-1.185,2.053-2.326-1.345c-.033-.191.047-.362.256-.589.316-.341.629-.681.946-1.018.174-.185.289-.253.378-.215l1.3.752Z" transform="translate(-182.465 -178.414)" fill="#19bd60"/>
                <path id="Trazado_140266" data-name="Trazado 140266" d="M191.324,180.256l-.572.69-2.808-1.62a.469.469,0,0,1,.322-.144c.324-.03.648-.057.967-.074a.225.225,0,0,1,.164.038C189.4,179.147,191.324,180.256,191.324,180.256Z" transform="translate(-180.841 -179.107)" fill="#19bd60"/>
                <path id="Trazado_140267" data-name="Trazado 140267" d="M195.964,186.284a.691.691,0,0,1-.043.25c-.136.466-.265.932-.4,1.4-.107.367-.242.514-.5.539-.3.032-.6.052-.9.068-.156.008-.265.084-.384.333a12.508,12.508,0,0,1-.793,1.414.44.44,0,0,0-.084.46c.13.284.251.575.371.871.112.277.058.46-.223.765-.314.341-.629.683-.946,1.018-.256.27-.39.283-.5.044q-.192-.429-.371-.871c-.063-.155-.155-.2-.341-.047a3.712,3.712,0,0,1-1.093.63.524.524,0,0,0-.327.409c-.12.433-.246.866-.374,1.3-.114.39-.242.532-.507.556-.324.03-.648.055-.969.076-.248.016-.307-.118-.207-.482.125-.455.256-.91.389-1.365.054-.18.039-.273-.073-.319a2.784,2.784,0,0,1-.847-.533c-.093-.084-.182-.038-.3.093q-.46.5-.924.988c-.283.3-.408.3-.526.032-.133-.3-.265-.605-.39-.915-.1-.251-.047-.441.2-.716.3-.333.613-.665.921-.992a.6.6,0,0,0,.185-.476c-.017-.441-.017-.894,0-1.356.009-.212-.049-.288-.2-.275-.3.028-.6.051-.9.07-.264.017-.318-.111-.21-.5q.192-.68.392-1.365c.114-.384.248-.532.514-.559.316-.032.632-.058.945-.076.13-.008.21-.09.3-.27a14.225,14.225,0,0,1,.828-1.479.414.414,0,0,0,.079-.433q-.2-.439-.381-.894c-.106-.262-.047-.455.216-.741q.472-.512.945-1.018c.27-.286.4-.3.514-.046.128.286.251.577.373.869.06.142.145.188.322.044a3.733,3.733,0,0,1,1.093-.63.584.584,0,0,0,.357-.465c.114-.411.234-.822.352-1.232s.243-.55.525-.577c.324-.03.648-.055.969-.076.231-.014.292.125.2.468-.122.442-.251.886-.382,1.332-.065.215-.052.332.09.384a2.256,2.256,0,0,1,.777.484c.125.118.237.068.4-.115.273-.3.553-.6.83-.894.318-.338.438-.351.567-.057s.258.591.382.891c.107.264.052.45-.212.74-.307.333-.613.667-.921,1a.561.561,0,0,0-.174.446c.014.453.016.915,0,1.386-.006.2.047.27.188.258.316-.027.63-.047.945-.071C195.874,186.038,195.97,186.084,195.964,186.284Zm-5.636-1.887a6.08,6.08,0,0,0-2.711,4.833c0,1.752,1.22,2.514,2.68,1.675A6.075,6.075,0,0,0,193,186.1C193.006,184.317,191.8,183.549,190.328,184.4Z" transform="translate(-182.748 -178.703)" fill="#128a46"/>
                <path id="Trazado_140268" data-name="Trazado 140268" d="M192.867,181.6c.131-.446.261-.89.382-1.332.093-.343.032-.482-.2-.468-.321.021-.645.046-.969.076-.281.027-.4.163-.525.577s-.239.822-.352,1.232a.584.584,0,0,1-.357.465,3.733,3.733,0,0,0-1.093.63c-.177.144-.262.1-.322-.044-.122-.292-.245-.583-.373-.869-.111-.253-.243-.24-.514.046q-.474.5-.945,1.018c-.264.286-.322.479-.216.741q.185.455.381.894a.414.414,0,0,1-.079.433,14.225,14.225,0,0,0-.828,1.479c-.088.18-.169.262-.3.27-.313.017-.629.044-.945.076-.265.027-.4.175-.514.559q-.2.685-.392,1.365c-.107.387-.054.515.21.5.3-.019.6-.041.9-.07.149-.013.207.063.2.275-.017.461-.017.915,0,1.356a.6.6,0,0,1-.185.476c-.308.327-.616.659-.921.992-.251.275-.307.465-.2.716.125.31.258.612.39.915.118.272.243.267.526-.032q.465-.488.924-.988c.12-.131.209-.177.3-.093a2.683,2.683,0,0,0,.42.316l1.157-2.065a2.014,2.014,0,0,1-.809-1.817,6.08,6.08,0,0,1,2.711-4.833,1.786,1.786,0,0,1,1.9-.131l1.16-2.068a2.14,2.14,0,0,0-.427-.21C192.815,181.936,192.8,181.819,192.867,181.6Z" transform="translate(-182.748 -178.703)" fill="#16a354"/>
              </g>
              <path id="Trazado_140269" data-name="Trazado 140269" d="M214.118,159.262c-.389-.243-.918.062-1.307.755q-.74,1.315-1.477,2.632c-.051.09-.087.117-.15.109a7.763,7.763,0,0,0-3.086.231c-.076.021-.095-.011-.093-.1q0-1.225,0-2.448a1.442,1.442,0,0,0-.03-.378.477.477,0,0,0-.575-.406c-.028,0-.066.033-.079-.006l-4.415,2.544c-.009.046-.043.06-.066.084a2.018,2.018,0,0,0-.624,1.386q0,1.28,0,2.561a.227.227,0,0,1-.093.2,24.441,24.441,0,0,0-3.067,3.3c-.115.147-.09.139-.188.079-.495-.311-.988-.624-1.484-.932-.237-.147-.525-.074-.852.205a2.019,2.019,0,0,0-.423.548q-1.323,2.358-2.648,4.717l-.191.343c-.34.613-.34,1.275,0,1.492q.751.479,1.509.948c.054.033.058.074.021.175a25.873,25.873,0,0,0-1.24,4.388c-.035.185-.009.16-.164.248q-1,.581-2.008,1.158a1.7,1.7,0,0,0-.37.269,2.1,2.1,0,0,0-.564,1.01c-.008.036,0,.076-.041.111v5.338c.036-.014.033.03.041.052.133.386.453.479.86.245.692-.4,1.383-.795,2.075-1.2.076-.044.111-.041.13.043a8.809,8.809,0,0,0,1.277,2.967c.044.063.038.115-.022.22q-.754,1.332-1.5,2.669a1.532,1.532,0,0,0-.2,1.245.473.473,0,0,0,.2.256q.749.474,1.5.945l6.48-11.565c-1.055-.621-1.713-1.972-1.7-3.925a12.473,12.473,0,0,1,5.633-9.86c1.547-.869,2.933-.905,3.93-.256l6.44-11.5C215.079,159.866,214.6,159.563,214.118,159.262Z" transform="translate(-165.912 -155.746)" fill="#e8be17"/>
              <g id="Grupo_91389" data-name="Grupo 91389" transform="translate(64.523 1.136)">
                <path id="Trazado_140270" data-name="Trazado 140270" d="M224.534,160.141l0,0a.156.156,0,0,0-.194-.006c-.131.071-.262.15-.392.224-.088.052-.175.1-.264.152-.019.013-.027.009-.033-.011a2.739,2.739,0,0,0-.386-.9c-.014-.017-.009-.033.006-.06.147-.264.3-.526.446-.79.019-.035.032-.07.046-.1l.038.308,1-.054-1.081-.623c-.28-.177-.562-.355-.844-.531-.115-.073-.277.019-.393.228q-.223.393-.444.792c-.016.027-.027.035-.044.032a1.638,1.638,0,0,0-.175-.013l.231-.27-.057-.033-1-.569a.136.136,0,0,0-.133-.046c-.008,0-.021.009-.024,0q-.664.382-1.327.765c0,.014-.014.017-.019.025a.6.6,0,0,0-.149.218.56.56,0,0,0-.041.2v.77a.067.067,0,0,1-.027.062,7.3,7.3,0,0,0-.921.991l-.017.022,0,0-.484-.28c-.071-.044-.158-.024-.256.062a.619.619,0,0,0-.128.166c-.264.472-.531.945-.8,1.419l-.058.1c-.1.185-.1.384,0,.45.076.047.149.095.224.141s.152.1.229.144c.016.011.017.022.006.052a8,8,0,0,0-.373,1.319c-.009.057,0,.049-.051.076-.2.115-.4.232-.6.348a.554.554,0,0,0-.109.081.49.49,0,0,0-.07.084.59.59,0,0,0-.1.221c0,.009,0,.024-.013.033v1.6c.011,0,.009.009.013.016a.155.155,0,0,0,.1.107l1.06.624.043-.278c.021.036.044.073.068.111l.035.055c.013.019.011.035-.006.066q-.225.4-.452.8a.472.472,0,0,0-.06.378.142.142,0,0,0,.06.074c.286.182.572.36.86.54l1.142.646-.169-1.346-.545.393c.133-.24.267-.477.4-.716.016-.027.025-.036.046-.033a2.3,2.3,0,0,0,.918-.081l.022-.006c.013,0,.016,0,.016.016v.779c0,.109.036.174.1.2l0,0,1.177.634.125-1.308.139-.079c0-.013.009-.016.016-.022a.612.612,0,0,0,.191-.431v-.757c0-.038,0-.038.03-.066a7.179,7.179,0,0,0,.7-.714c.074-.087.15-.177.221-.272.017-.024.028-.027.043-.017.149.095.3.186.446.28.117.073.278-.019.393-.226l.845-1.5c.109-.2.112-.393,0-.465-.149-.095-.3-.188-.447-.281-.017-.011-.019-.022-.008-.057a7.666,7.666,0,0,0,.384-1.332.08.08,0,0,1,.04-.063c.212-.118.422-.24.629-.36a.588.588,0,0,0,.267-.386.042.042,0,0,1,.009-.025v-.551l.269.278.736-.814Zm-4.391,5.472c-.916.512-1.659.044-1.65-1.09a3.738,3.738,0,0,1,1.694-2.964c.928-.523,1.665-.046,1.656,1.079A3.757,3.757,0,0,1,220.142,165.613Z" transform="translate(-215.742 -157.725)" fill="#7a6411"/>
                <path id="Trazado_140271" data-name="Trazado 140271" d="M220.67,158.432l-.833,1.444-1.823-1.052a.6.6,0,0,1,.149-.218c0-.008.016-.011.019-.025q.664-.384,1.327-.765c0,.011.016,0,.024,0a.136.136,0,0,1,.133.046Z" transform="translate(-214.424 -157.673)" fill="#ffcf24"/>
                <path id="Trazado_140272" data-name="Trazado 140272" d="M218.671,160.224l-1.266,2.193-.866-.5c-.076-.046-.148-.093-.224-.141-.1-.066-.1-.265,0-.45l.058-.1c.265-.474.532-.946.8-1.419a.619.619,0,0,1,.128-.166c.1-.085.185-.106.256-.062l.484.28,0,0Z" transform="translate(-215.455 -156.663)" fill="#dfb61f"/>
                <path id="Trazado_140273" data-name="Trazado 140273" d="M217.788,163.5l-.763,1.323c-.024-.038-.047-.074-.068-.111l-.043.278-1.06-.624a.155.155,0,0,1-.1-.107c0-.006,0-.019-.013-.016v-1.6c.011-.009.009-.024.013-.033a.59.59,0,0,1,.1-.221Z" transform="translate(-215.742 -155.024)" fill="#937815"/>
                <path id="Trazado_140274" data-name="Trazado 140274" d="M225.277,160.632v1.6a.042.042,0,0,0-.009.025.593.593,0,0,1-.267.386l-.629.362a.077.077,0,0,0-.041.062,7.9,7.9,0,0,1-.382,1.334c-.014.033-.011.046.006.055.15.093.3.186.447.281.111.071.109.267,0,.463l-.844,1.506c-.117.207-.278.3-.393.226l-.446-.28c-.016-.009-.025,0-.043.017-.073.095-.147.185-.223.273a6.986,6.986,0,0,1-.7.713c-.032.028-.032.028-.032.068v.755a.606.606,0,0,1-.191.431c-.006.006-.014.011-.016.022l-1.327.765c0-.009-.011,0-.017,0-.12.022-.19-.054-.19-.207v-.755a.134.134,0,0,1,0-.025c0-.014,0-.017-.016-.014l-.022.006a2.361,2.361,0,0,1-.92.079c-.019,0-.03.006-.044.033l-.452.806c-.107.19-.27.284-.378.218l-.86-.54a.149.149,0,0,1-.058-.077.459.459,0,0,1,.06-.374c.149-.269.3-.536.45-.8.019-.032.021-.047.008-.066a2.623,2.623,0,0,1-.384-.893c-.006-.024-.017-.025-.04-.013-.209.122-.416.242-.624.36-.122.071-.218.043-.259-.073,0-.008,0-.021-.011-.016v-1.605a.047.047,0,0,0,.011-.033.631.631,0,0,1,.171-.3.456.456,0,0,1,.111-.081l.6-.349c.047-.027.039-.019.051-.074a7.525,7.525,0,0,1,.373-1.319c.011-.032.009-.043-.006-.054-.152-.093-.3-.188-.453-.284-.1-.065-.1-.264,0-.449l.058-.1q.4-.711.795-1.419a.588.588,0,0,1,.128-.164c.1-.085.185-.107.256-.062.15.092.3.186.447.28.028.017.022.021.055-.024a7.339,7.339,0,0,1,.923-.992.068.068,0,0,0,.028-.062c0-.256,0-.514,0-.769a.6.6,0,0,1,.188-.417c.006-.008.017-.011.019-.025l1.327-.765c0,.011.016,0,.025,0a.142.142,0,0,1,.172.122.438.438,0,0,1,.009.114v.736c0,.027,0,.036.028.03a2.3,2.3,0,0,1,.928-.07c.019,0,.03-.006.044-.033l.446-.792c.117-.209.277-.3.393-.228l.842.531c.115.071.114.265,0,.471l-.446.792c-.016.027-.019.043-.006.06a2.7,2.7,0,0,1,.386.9c.006.021.014.024.035.013.087-.052.175-.1.262-.152.131-.076.262-.153.392-.224s.207-.03.243.082C225.268,160.623,225.266,160.635,225.277,160.632Zm-4.453,5.377a3.759,3.759,0,0,0,1.7-2.977c.01-1.125-.728-1.6-1.658-1.079a3.747,3.747,0,0,0-1.694,2.966C219.167,166.053,219.909,166.519,220.824,166.009Z" transform="translate(-215.345 -157.496)" fill="#d0a91d"/>
                <path id="Trazado_140275" data-name="Trazado 140275" d="M223.556,158.145c-.117-.073-.277.019-.393.228l-.446.792c-.014.027-.025.035-.044.033a2.3,2.3,0,0,0-.928.07c-.024.006-.028,0-.028-.03V158.5a.438.438,0,0,0-.009-.114.142.142,0,0,0-.172-.122c-.009,0-.021.009-.025,0l-1.327.765c0,.014-.013.017-.019.025a.6.6,0,0,0-.188.417c0,.256,0,.514,0,.769a.068.068,0,0,1-.028.062,7.339,7.339,0,0,0-.923.992c-.033.044-.027.041-.055.024-.15-.093-.3-.188-.447-.28-.071-.046-.158-.024-.256.062a.588.588,0,0,0-.128.164q-.4.709-.795,1.419l-.058.1c-.1.185-.1.384,0,.449.15.1.3.191.453.284.016.011.017.022.006.054a7.525,7.525,0,0,0-.373,1.319c-.011.055,0,.047-.051.074l-.6.349a.456.456,0,0,0-.111.081.631.631,0,0,0-.171.3.047.047,0,0,1-.011.033v1.605c.009,0,.009.008.011.016.041.115.137.144.259.073.209-.118.416-.239.624-.36.022-.013.033-.011.04.013a2.623,2.623,0,0,0,.384.893c.013.019.011.035-.008.066-.15.267-.3.534-.45.8a.459.459,0,0,0-.06.374.149.149,0,0,0,.058.077l.452.284,1.95-3.479a1.275,1.275,0,0,1-.51-1.179,3.747,3.747,0,0,1,1.694-2.966,1.118,1.118,0,0,1,1.182-.077l1.937-3.457Z" transform="translate(-215.345 -157.496)" fill="#e7bc20"/>
              </g>
              <g id="Grupo_91390" data-name="Grupo 91390" transform="translate(1.697 37.279)">
                <path id="Trazado_140276" data-name="Trazado 140276" d="M184.774,183.016l0,0a.156.156,0,0,0-.194-.006c-.133.071-.264.15-.392.224l-.265.152c-.019.013-.027.009-.032-.011a2.772,2.772,0,0,0-.386-.9c-.014-.017-.011-.033,0-.06l.446-.79a.819.819,0,0,0,.046-.1l.039.308,1-.054-1.082-.623q-.419-.268-.842-.531c-.117-.074-.277.019-.393.228-.15.262-.3.526-.444.792-.016.027-.027.035-.044.032a1.676,1.676,0,0,0-.175-.013l.231-.27-.058-.033-1-.569a.133.133,0,0,0-.133-.046c-.008,0-.019.009-.022,0-.442.256-.886.51-1.327.766,0,.014-.014.017-.021.025a.645.645,0,0,0-.149.218.588.588,0,0,0-.04.2v.77a.07.07,0,0,1-.027.062,7.214,7.214,0,0,0-.923.991l-.017.022,0,0-.485-.28c-.071-.044-.158-.024-.256.062a.616.616,0,0,0-.126.166q-.4.709-.8,1.417c-.019.035-.038.07-.057.1-.1.185-.1.384,0,.45l.224.141c.074.047.152.1.229.144.016.009.017.022,0,.052a7.843,7.843,0,0,0-.371,1.319c-.009.057,0,.049-.051.076l-.6.348a.563.563,0,0,0-.111.081.659.659,0,0,0-.07.082.606.606,0,0,0-.1.223c0,.009,0,.022-.014.033v1.6c.013,0,.011.009.014.016a.151.151,0,0,0,.1.107l1.062.624.043-.278c.021.036.044.073.066.109l.035.057c.014.019.013.035,0,.065l-.452.8a.469.469,0,0,0-.06.376.133.133,0,0,0,.06.076c.286.182.57.36.858.54l1.144.646-.169-1.346-.547.393c.133-.24.269-.477.4-.716.016-.027.025-.036.044-.033a2.3,2.3,0,0,0,.918-.081l.024-.006c.011,0,.016,0,.016.016v.779c0,.107.036.174.1.2l0,0,1.176.632.126-1.307.139-.079c0-.013.009-.016.014-.022a.6.6,0,0,0,.191-.431V190.2c0-.038,0-.038.032-.068a6.823,6.823,0,0,0,.7-.713c.076-.087.152-.179.223-.272.017-.024.028-.027.043-.017l.446.28c.117.073.277-.021.393-.226l.844-1.5c.111-.2.112-.393,0-.466l-.449-.28c-.017-.011-.019-.022-.006-.057a7.657,7.657,0,0,0,.382-1.332.082.082,0,0,1,.041-.063l.629-.36a.585.585,0,0,0,.265-.386.06.06,0,0,1,.011-.025v-.551l.267.277.738-.812Zm-4.393,5.472c-.916.512-1.659.044-1.65-1.09a3.74,3.74,0,0,1,1.694-2.964c.927-.523,1.667-.046,1.658,1.078A3.759,3.759,0,0,1,180.382,188.488Z" transform="translate(-175.981 -180.6)" fill="#7a6411"/>
                <path id="Trazado_140277" data-name="Trazado 140277" d="M180.909,181.308l-.833,1.443-1.823-1.051a.645.645,0,0,1,.149-.218c.006-.008.016-.011.021-.025.441-.256.885-.51,1.327-.766,0,.013.014,0,.022,0a.133.133,0,0,1,.133.046Z" transform="translate(-174.663 -180.548)" fill="#ffcf24"/>
                <path id="Trazado_140278" data-name="Trazado 140278" d="M178.911,183.1l-1.266,2.193-.866-.5-.224-.141c-.1-.066-.1-.265,0-.45.019-.033.038-.068.057-.1q.4-.709.8-1.417a.616.616,0,0,1,.126-.166c.1-.085.185-.106.256-.062l.485.28,0,0Z" transform="translate(-175.694 -179.537)" fill="#dfb61f"/>
                <path id="Trazado_140279" data-name="Trazado 140279" d="M178.029,186.373l-.765,1.321c-.022-.036-.046-.073-.066-.109l-.043.278-1.062-.624a.151.151,0,0,1-.1-.107c0-.006,0-.019-.014-.016v-1.6c.013-.011.011-.024.014-.033a.606.606,0,0,1,.1-.223Z" transform="translate(-175.981 -177.899)" fill="#937815"/>
                <path id="Trazado_140280" data-name="Trazado 140280" d="M185.516,183.507v1.6a.042.042,0,0,0-.009.025.591.591,0,0,1-.265.386c-.21.12-.419.242-.629.36a.082.082,0,0,0-.041.063,7.7,7.7,0,0,1-.384,1.332c-.013.033-.009.046.008.057.149.093.3.186.447.281.111.07.109.265,0,.463q-.422.754-.845,1.506c-.117.207-.277.3-.393.226l-.446-.28c-.014-.011-.025-.006-.043.017-.071.095-.145.185-.221.272a7.164,7.164,0,0,1-.7.714c-.032.027-.032.028-.032.068v.027c0,.242,0,.485,0,.728a.6.6,0,0,1-.19.431c-.006.006-.014.011-.016.022l-1.327.765c0-.009-.011,0-.017,0-.122.022-.191-.054-.191-.207v-.782c0-.013,0-.016-.014-.014l-.024.006a2.326,2.326,0,0,1-.918.081c-.019,0-.03.006-.046.033q-.225.4-.452.806c-.107.19-.27.284-.376.218l-.86-.54a.135.135,0,0,1-.058-.077.453.453,0,0,1,.06-.374q.223-.4.45-.8c.017-.032.021-.047.006-.066a2.655,2.655,0,0,1-.384-.893c-.006-.024-.016-.025-.04-.013-.207.122-.416.24-.623.36-.123.071-.218.043-.259-.073,0-.008,0-.021-.013-.016v-1.605c.011-.011.009-.022.013-.033a.628.628,0,0,1,.169-.3.519.519,0,0,1,.112-.082c.2-.115.4-.231.6-.348.046-.027.04-.019.049-.074a7.861,7.861,0,0,1,.373-1.321c.013-.03.011-.041-.006-.052-.152-.093-.3-.19-.453-.284-.1-.066-.1-.265,0-.449l.057-.1q.4-.711.8-1.419a.588.588,0,0,1,.128-.164c.1-.085.185-.107.256-.063l.446.281c.03.017.022.021.057-.024a7.237,7.237,0,0,1,.923-.992.072.072,0,0,0,.028-.062c0-.256,0-.514,0-.771a.607.607,0,0,1,.188-.416c.008-.008.017-.011.021-.025q.664-.384,1.327-.765c0,.011.016,0,.024,0a.144.144,0,0,1,.174.122.438.438,0,0,1,.009.114c0,.245,0,.49,0,.736,0,.025.006.035.028.03a2.309,2.309,0,0,1,.929-.07c.017,0,.028-.006.044-.033l.444-.792c.117-.209.277-.3.393-.228q.422.263.844.531c.114.071.114.265,0,.471-.149.264-.3.528-.444.79-.016.028-.019.044-.008.062a2.685,2.685,0,0,1,.387.9c0,.021.014.024.033.013l.264-.153c.13-.074.261-.152.392-.223.115-.065.207-.03.243.082C185.508,183.5,185.507,183.51,185.516,183.507Zm-4.451,5.377a3.761,3.761,0,0,0,1.7-2.977c.011-1.125-.728-1.6-1.656-1.079a3.748,3.748,0,0,0-1.7,2.964C179.407,188.928,180.15,189.395,181.065,188.884Z" transform="translate(-175.584 -180.371)" fill="#d0a91d"/>
                <path id="Trazado_140281" data-name="Trazado 140281" d="M183.8,181.02c-.117-.073-.277.019-.393.228l-.444.792c-.016.027-.027.035-.044.033a2.309,2.309,0,0,0-.929.07c-.022,0-.028,0-.028-.03,0-.246,0-.491,0-.736a.438.438,0,0,0-.009-.114.144.144,0,0,0-.174-.122c-.008,0-.019.009-.024,0q-.664.382-1.327.765c0,.014-.013.017-.021.025a.607.607,0,0,0-.188.416c0,.258,0,.515,0,.771a.072.072,0,0,1-.028.062,7.237,7.237,0,0,0-.923.992c-.035.044-.027.041-.057.024l-.446-.281c-.071-.044-.158-.022-.256.063a.588.588,0,0,0-.128.164q-.4.709-.8,1.419l-.057.1c-.1.183-.1.382,0,.449.152.095.3.191.453.284.017.011.019.022.006.052a7.861,7.861,0,0,0-.373,1.321c-.009.055,0,.047-.049.074-.2.117-.4.232-.6.348a.568.568,0,0,0-.112.081.641.641,0,0,0-.169.3c0,.011,0,.022-.013.033v1.605c.011,0,.009.008.013.016.041.115.136.144.259.073.207-.12.416-.239.623-.36.024-.013.033-.011.04.013a2.655,2.655,0,0,0,.384.893c.014.019.011.035-.006.066q-.228.4-.45.8a.453.453,0,0,0-.06.374.135.135,0,0,0,.058.077l.452.283,1.948-3.478a1.276,1.276,0,0,1-.51-1.18,3.748,3.748,0,0,1,1.7-2.964,1.115,1.115,0,0,1,1.18-.077l1.937-3.459C184.084,181.2,183.941,181.11,183.8,181.02Z" transform="translate(-175.584 -180.371)" fill="#e7bc20"/>
              </g>
            </g>
          </g>
        </g>
      </g>
    </g>
  </g>
</svg>
